<svg id="Capa_1" data-name="Capa 1" xmlns="http://www.w3.org/2000/svg" viewBox="0 0 162 93.83"><defs><style>.cls-1{fill:none;stroke:#7bc082;stroke-miterlimit:10;}.cls-2{fill:#37464f;}.cls-3{fill:#fff;}.cls-4{font-size:6.59px;fill:#7bc082;font-family:OpenSans-SemiBold, Open Sans;font-weight:700;}.cls-5,.cls-6{fill:#96cb99;}.cls-6{font-size:2.97px;font-family:OpenSans-Regular, Open Sans;}</style></defs><title>Mesa de trabajo 7</title><circle class="cls-1" cx="72.23" cy="55.21" r="35.65"/><circle class="cls-2" cx="37.92" cy="45.24" r="10.48"/><path class="cls-3" d="M32,51.35V38.68H44.18c0,.3,0,.6,0,.9V51c0,.11,0,.22,0,.33H32Zm5.82-.62V48.41l-.63.65-.06,0c0-.23,0-.51.08-.66a8.58,8.58,0,0,1,.87-1,9.33,9.33,0,0,0,.74.78c.3.25.2.55.15.87l-.63-.64v2.31h4.93l-3-3.09-.07,0v.89c-.26-.24-.51-.4-.47-.79s0-.69,0-1.06a8.76,8.76,0,0,0,1,0c.38,0,.52.24.76.5h-.86l2.9,3.09v-5H41.4l0,.07.64.58L42,46c-.21,0-.48.06-.62,0a10.75,10.75,0,0,1-.94-1,7,7,0,0,0,.72-.72c.25-.32.54-.23.9-.22l-.66.71h2.22v-5l-3,3.08h.89c-.14.2-.29.43-.47.45a8.76,8.76,0,0,1-1.26,0V42.18a.72.72,0,0,1,.48-.68v.86l2.94-3H38.35v2.27l.09.08L39,41c0,.24.09.51,0,.66a9,9,0,0,1-.89,1,9.44,9.44,0,0,0-.75-.78c-.3-.25-.17-.55-.19-.9l.67.66V39.31H33.07l2.91,3v-.86l.05,0c.14.16.37.31.39.49a10.06,10.06,0,0,1,0,1.35,7.49,7.49,0,0,0-.95,0c-.39.06-.58-.19-.82-.49h.93l-3-3.1v5H34.8l.07-.1L34.2,44c.24,0,.51-.05.65.06a11.71,11.71,0,0,1,.92.94l-.75.77a.69.69,0,0,1-.81.15l.6-.66h-2.2v4.91l3-3h-.86l0-.05c.16-.14.31-.37.48-.4a9.19,9.19,0,0,1,1.29,0v1.18a.7.7,0,0,1-.49.61V47.7l-3,3Z"/><circle class="cls-2" cx="71.38" cy="19.9" r="10.48"/><circle class="cls-2" cx="49.93" cy="82.94" r="10.48"/><circle class="cls-2" cx="98.03" cy="80.75" r="10.48"/><circle class="cls-2" cx="106.19" cy="42.54" r="10.48"/><path class="cls-3" d="M79.37,24.54c0,.31,0,.62,0,.93a.33.33,0,0,1-.27.34,9.55,9.55,0,0,1-3.65.31c-.58-.07-1.16-.2-1.74-.3a.39.39,0,0,1-.35-.45c0-.48,0-1,0-1.46a1.56,1.56,0,0,1,.95-1.52A4.59,4.59,0,0,1,76.63,22a4.05,4.05,0,0,1,1.81.43,1.48,1.48,0,0,1,.94,1.52C79.36,24.11,79.37,24.33,79.37,24.54Zm-.61.7v-.43a7.3,7.3,0,0,1,0-.81A1,1,0,0,0,78,22.89a4.5,4.5,0,0,0-2.24-.27,2.83,2.83,0,0,0-1.34.43.82.82,0,0,0-.43.76c0,.41,0,.82,0,1.23a.24.24,0,0,0,.22.27c.5.07,1,.17,1.51.22A8.55,8.55,0,0,0,78.76,25.24Z"/><path class="cls-3" d="M74.55,16.28v.93a.34.34,0,0,1-.28.36,10.14,10.14,0,0,1-3.15.35,9.18,9.18,0,0,1-2.27-.35.34.34,0,0,1-.29-.33c0-.64,0-1.27,0-1.91a1.45,1.45,0,0,1,1-1.24,4.9,4.9,0,0,1,4,0,1.47,1.47,0,0,1,1,1.55c0,.2,0,.4,0,.6Zm-.62-.13c0-.16,0-.32,0-.48a.88.88,0,0,0-.56-.94,4.47,4.47,0,0,0-.46-.19,4.64,4.64,0,0,0-2.19-.13,2.22,2.22,0,0,0-1.19.47.93.93,0,0,0-.31.54,13.62,13.62,0,0,0,0,1.43.24.24,0,0,0,.16.19,9.69,9.69,0,0,0,4.22.06c.28-.06.38-.17.34-.45A4.17,4.17,0,0,1,73.93,16.15Z"/><path class="cls-3" d="M63.75,24.49c0-.25,0-.49,0-.73a1.3,1.3,0,0,1,.65-1.2A4.19,4.19,0,0,1,67,22a4,4,0,0,1,1.83.44,1.52,1.52,0,0,1,.91,1.49c0,.5,0,1,0,1.5a.4.4,0,0,1-.35.44,9.31,9.31,0,0,1-3.6.29c-.58-.07-1.14-.2-1.72-.3a.34.34,0,0,1-.31-.4C63.76,25.11,63.75,24.8,63.75,24.49Zm5.35.75c0-.54,0-1.07,0-1.6a.72.72,0,0,0-.2-.41,1.67,1.67,0,0,0-.5-.33,4.26,4.26,0,0,0-2.26-.28,2.63,2.63,0,0,0-1.38.47.88.88,0,0,0-.36.5c0,.55,0,1.1,0,1.65A9,9,0,0,0,69.1,25.24Z"/><path class="cls-3" d="M77.76,20.14a1.37,1.37,0,0,1-1.36,1.37,1.39,1.39,0,1,1,0-2.78A1.38,1.38,0,0,1,77.76,20.14Zm-1.38-.77a.76.76,0,0,0,0,1.51.79.79,0,0,0,.75-.76A.76.76,0,0,0,76.38,19.37Z"/><path class="cls-3" d="M71.58,10.5a1.36,1.36,0,0,1,1.36,1.4,1.38,1.38,0,0,1-1.38,1.37,1.41,1.41,0,0,1-1.39-1.39A1.37,1.37,0,0,1,71.58,10.5Zm0,2.13a.75.75,0,0,0,.77-.76.77.77,0,0,0-.75-.75.73.73,0,0,0-.75.76A.71.71,0,0,0,71.55,12.63Z"/><path class="cls-3" d="M65.36,20.12a1.37,1.37,0,0,1,1.38-1.39,1.4,1.4,0,0,1,0,2.79A1.38,1.38,0,0,1,65.36,20.12Zm1.37-.75a.75.75,0,0,0-.75.74.75.75,0,1,0,.75-.74Z"/><path class="cls-3" d="M71.87,19.43c-.21.69.15,1.05.73,1.31.28.13.53.32.8.47s.34.31.24.49-.29.23-.56.07l-1.3-.8a.36.36,0,0,0-.43,0c-.44.28-.9.55-1.35.81-.24.15-.41.12-.51-.07s0-.35.2-.48l1.38-.82a.32.32,0,0,0,.18-.34c0-.43,0-.85,0-1.28,0-.28.11-.43.31-.43s.31.15.31.42Z"/><path class="cls-3" d="M95.12,74.18l.37.16a1.41,1.41,0,0,1,.81.86.25.25,0,0,0,.28.2l6.56,0c.35,0,.7,0,1,0a2.26,2.26,0,0,1,2,2,17.87,17.87,0,0,1,0,2.07,2.28,2.28,0,0,1-.78,1.6,1.57,1.57,0,0,1-1,.39h-.89c.1.11.17.18.23.26a.36.36,0,0,1,0,.5.34.34,0,0,1-.48,0c-.27-.27-.55-.55-.81-.83a.38.38,0,0,1,0-.56l.82-.79a.37.37,0,0,1,.48,0,.36.36,0,0,1,0,.5c-.06.08-.13.15-.2.23a1.38,1.38,0,0,0,1.93-1.14,10.2,10.2,0,0,0,0-2.14,1.57,1.57,0,0,0-1.58-1.39l-3.1,0-4.15,0a.39.39,0,0,0-.44.28,1.53,1.53,0,0,1-2.46.46,1.56,1.56,0,0,1,.62-2.55.55.55,0,0,0,.15-.08Zm.59,1.56a.85.85,0,0,0-.83-.87.87.87,0,0,0-.84.84.84.84,0,0,0,.84.86A.85.85,0,0,0,95.71,75.74Z"/><path class="cls-3" d="M91.22,82.71c.09-.21.16-.44.27-.64a2.15,2.15,0,0,1,2-1.27l5.31,0a.33.33,0,0,0,.38-.24,1.43,1.43,0,0,1,1.39-.92,1.51,1.51,0,0,1,1.1,2.56,1.52,1.52,0,0,1-2.53-.53c-.05-.16-.13-.19-.28-.19l-4.84,0a3.82,3.82,0,0,0-1,.08,1.54,1.54,0,0,0-1.15,1.5c0,.54,0,1.09,0,1.63a1.56,1.56,0,0,0,1.59,1.55h1.29l0-.07a1.5,1.5,0,0,1-.25-.19.33.33,0,0,1,0-.49.32.32,0,0,1,.49,0c.28.27.55.54.82.82a.36.36,0,0,1,0,.52l-.82.81a.36.36,0,0,1-.51,0,.37.37,0,0,1,0-.52,2.88,2.88,0,0,1,.23-.21l-.3,0-1.25,0a2.2,2.2,0,0,1-2-1.67,1.67,1.67,0,0,0-.08-.2V84.2c0-.26,0-.53,0-.79s0-.28,0-.42Zm9.37-.69a.84.84,0,0,0,0-1.68.86.86,0,0,0-.85.83A.88.88,0,0,0,100.59,82Z"/><path class="cls-3" d="M97.62,88.23a5.59,5.59,0,0,1-.65-.32A1.47,1.47,0,0,1,96.53,86,1.54,1.54,0,0,1,99,85.69a1.5,1.5,0,0,1-.71,2.46l-.21.08Zm.26-2.35a.84.84,0,0,0-.85.82.83.83,0,0,0,.82.86.84.84,0,0,0,0-1.68Z"/><path class="cls-3" d="M106,34.31h.25c.05,0,.09.1.14.14l1.3.86,2.89,1.93,1.58,1a.54.54,0,0,1,.27.49q0,.65,0,1.29c0,.27-.13.44-.32.44h-1.27a1,1,0,0,0,0,.12v6.5c0,.17,0,.21.16.21h1.22a.69.69,0,0,1,.2,0c.14,0,.21.19.21.4s-.06.37-.2.43a.69.69,0,0,1-.25,0h-12a.52.52,0,0,1-.52-.27v-.36a.52.52,0,0,1,.54-.26h1.31V40.51h-1.25c-.24,0-.35-.17-.35-.51V38.72a.53.53,0,0,1,.23-.52l2.19-1.44,3-2C105.57,34.64,105.78,34.47,106,34.31Zm-5.45,5.31h11a.85.85,0,0,0,.16,0,.18.18,0,0,0,.09-.1.54.54,0,0,0-.18-.6l-1.58-1-3.82-2.54a.22.22,0,0,0-.22,0l-.51.33-3,2-1.9,1.25a.35.35,0,0,0-.1.18C100.53,39.23,100.54,39.41,100.54,39.62Zm5.9,7.71h3.75V40.52h-3.75Zm-4.27-6.81a1.62,1.62,0,0,0,0,.18v6.41c0,.23.08.24.2.24,1.09,0,2.18,0,3.27,0,.17,0,.2-.08.2-.3,0-2.09,0-4.19,0-6.28a2.28,2.28,0,0,0,0-.26Z"/><path class="cls-3" d="M50.77,90.31a.59.59,0,0,1-.33-.68,5.83,5.83,0,0,1,.09-.84,1.1,1.1,0,0,1,1.12-.91,4.4,4.4,0,0,0,.73-.06,1.17,1.17,0,0,0,.93-1.21c0-.7,0-1.4,0-2.1,0-.44.13-.58.57-.59.25,0,.51,0,.77,0s.29-.09.16-.29a9.23,9.23,0,0,0-.63-.91,2,2,0,0,1-.39-1.07A5,5,0,0,0,48.3,77a4.93,4.93,0,0,0-3.77,2.29,4.73,4.73,0,0,0-.76,2.31,5,5,0,0,0,4,5.31,5.21,5.21,0,0,0,.55.08.14.14,0,0,0,.09,0c0-.2,0-.4,0-.6a.33.33,0,0,0-.1-.17l-1.79-1.8a.39.39,0,0,1-.09-.23c0-.25,0-.49,0-.74a.28.28,0,0,0-.1-.2,1,1,0,0,1-.26-1.54,1,1,0,0,1,1-.32.93.93,0,0,1,.7.56,1,1,0,0,1-.42,1.3s-.06,0-.07,0a1.37,1.37,0,0,0,.09.8l1.13,1.13v-1c0-1.34,0-2.68,0-4a.42.42,0,0,0-.2-.4,1,1,0,0,1-.33-1.15.92.92,0,0,1,1-.64.93.93,0,0,1,.92.73,1,1,0,0,1-.41,1.1.28.28,0,0,0-.14.28c0,1.08,0,2.16,0,3.24,0,.1,0,.2,0,.34a1.56,1.56,0,0,0,.17-.12c.28-.28.55-.57.85-.84a.65.65,0,0,0,.24-.55.52.52,0,0,0-.23-.49A1,1,0,0,1,50,80.51,1,1,0,0,1,51,80a1,1,0,0,1,.31,1.84.36.36,0,0,0-.11.2,3.37,3.37,0,0,0,0,.55A.53.53,0,0,1,51,83c-.57.56-1.13,1.12-1.68,1.69a.41.41,0,0,0-.11.28c0,.75,0,1.51,0,2.26a1.66,1.66,0,0,1,0,.32.38.38,0,0,1-.46.37,5.76,5.76,0,0,1-2.13-.41,5.84,5.84,0,0,1-3.35-3.36,11.43,11.43,0,0,1-.37-1.56.59.59,0,0,0,0-.08v-1c0-.21,0-.41.09-.61a6,6,0,0,1,4.59-4.73l.82-.16H49l.35,0a5.89,5.89,0,0,1,4,2.22,5.8,5.8,0,0,1,1.24,3,1.51,1.51,0,0,0,.25.89,5.15,5.15,0,0,1,1,1.57v.48c-.06.07-.11.17-.19.2a3.2,3.2,0,0,1-.7.28,4.65,4.65,0,0,1-.75.07v.58c0,.57,0,1.14-.06,1.71A1.64,1.64,0,0,1,53,88.62a5.32,5.32,0,0,1-1.05.15c-.35,0-.49.12-.57.46a1.93,1.93,0,0,0,0,.42.56.56,0,0,1-.41.66Z"/><text class="cls-4" transform="translate(-0.17 46.36)">Impacto</text><text class="cls-4" transform="translate(41.52 5.23)">Usos y necesidades</text><text class="cls-4" transform="translate(116.83 41.34)">Gobernanza y <tspan x="0.34" y="7.91">normativadad</tspan></text><text class="cls-4" transform="translate(109.96 85.82)">Datos</text><text class="cls-4" transform="translate(3.8 86.48)">Tecnología</text><path class="cls-3" d="M58.17,49.11a3.31,3.31,0,0,1-1.09,2.68,4.71,4.71,0,0,1-3.11.92H53v3.85h-2.3V45.74h3.46a4.6,4.6,0,0,1,3,.85A3.07,3.07,0,0,1,58.17,49.11ZM53,50.83h.75a2.52,2.52,0,0,0,1.59-.42,1.45,1.45,0,0,0,.52-1.21,1.5,1.5,0,0,0-.44-1.2A2.09,2.09,0,0,0,54,47.62H53Z"/><path class="cls-3" d="M81,56.56H78.12l-4.71-8.19h-.06c.09,1.45.14,2.48.14,3.1v5.09h-2V45.74h2.89l4.7,8.1h0c-.07-1.4-.11-2.4-.11-3V45.74H81Z"/><path class="cls-5" d="M61.63,56.74v-2a15.14,15.14,0,0,0,3.69-.18A3,3,0,0,0,67.56,52a5.16,5.16,0,0,0-.08-2.28A2.93,2.93,0,0,0,65,47.47a6.1,6.1,0,0,0-1.13-.11H59.05V45.53h4.57a7.6,7.6,0,0,1,2.67.44,4.32,4.32,0,0,1,2.75,3A7.56,7.56,0,0,1,69,53.53a4.41,4.41,0,0,1-3.29,3A20.94,20.94,0,0,1,61.63,56.74Z"/><path class="cls-5" d="M62.75,50.78c0-.49,0-1,0-1.46,0-.12,0-.17.16-.16.5,0,1,0,1.49.07a1.31,1.31,0,0,1,1.25,1.47A1.63,1.63,0,0,1,65.2,52a1.72,1.72,0,0,1-1.12.45c-.39,0-.79,0-1.19,0-.11,0-.14,0-.14-.15C62.76,51.77,62.75,51.28,62.75,50.78Z"/><text class="cls-6" transform="translate(50.93 61.36)">Inteligencia de datos anticorrupción</text></svg>