<svg id="Capa_1" data-name="Capa 1" xmlns="http://www.w3.org/2000/svg" viewBox="0 0 162 93.83"><defs><style>.cls-1{fill:none;stroke:#7bc082;stroke-miterlimit:10;}.cls-2{fill:#37464f;}.cls-3{fill:#fff;}.cls-4{font-size:6.58px;fill:#7bc082;font-family:OpenSans-SemiBold, Open Sans;font-weight:700;}.cls-5{font-size:2.68px;font-family:OpenSans-Regular, Open Sans;}.cls-5,.cls-6{fill:#96cb99;}</style></defs><title>Mesa de trabajo 7</title><circle class="cls-1" cx="72.29" cy="55.37" r="35.62"/><circle class="cls-2" cx="38.02" cy="45.41" r="10.47"/><path class="cls-3" d="M32.12,51.51V38.86H44.28V51.52H32.12Zm5.81-.62V48.58l-.63.64-.06,0c0-.23,0-.5.08-.66a8.42,8.42,0,0,1,.87-1,9.14,9.14,0,0,0,.74.77c.29.25.2.55.15.87l-.63-.64v2.31h4.92l-3-3.08-.07,0v.89c-.26-.24-.52-.39-.48-.78a9.5,9.5,0,0,0,0-1.07c.37,0,.71,0,1,0s.51.24.76.5h-.86l2.89,3.08v-5H41.5l0,.07.63.59,0,.07c-.21,0-.47,0-.61-.06a9.4,9.4,0,0,1-.94-1,8.2,8.2,0,0,0,.72-.73c.24-.31.53-.22.89-.22l-.66.71h2.22v-5l-3,3.08h.89c-.15.19-.3.42-.48.45a8.74,8.74,0,0,1-1.26,0V42.35a.72.72,0,0,1,.48-.68v.85l3-3H38.45v2.27l.09.07.56-.68c0,.24.1.51,0,.66a10.1,10.1,0,0,1-.89,1,9.44,9.44,0,0,0-.75-.78c-.3-.26-.17-.56-.19-.9l.67.66V39.48H33.18l2.9,3v-.86l.05,0c.14.16.37.31.39.49a10,10,0,0,1,0,1.35,7.49,7.49,0,0,0-.95,0c-.39.06-.58-.19-.82-.49h.93l-3-3.1v5H34.9l.07-.09-.66-.64c.23,0,.5,0,.64.07a8.2,8.2,0,0,1,.92.94l-.75.76a.67.67,0,0,1-.81.15l.6-.65H32.72v4.9l3-3h-.86l0-.06c.16-.14.31-.37.48-.39a9.19,9.19,0,0,1,1.29,0v1.17a.73.73,0,0,1-.49.62v-.83l-3,3Z"/><circle class="cls-2" cx="71.45" cy="20.09" r="10.47"/><circle class="cls-2" cx="50.02" cy="83.07" r="10.47"/><circle class="cls-2" cx="98.07" cy="80.88" r="10.47"/><circle class="cls-2" cx="106.22" cy="42.71" r="10.47"/><path class="cls-3" d="M78.3,23.94c0,.23,0,.47,0,.71a.24.24,0,0,1-.2.26,7.32,7.32,0,0,1-2.79.24c-.45,0-.89-.15-1.33-.23a.3.3,0,0,1-.26-.34c0-.38,0-.75,0-1.12a1.18,1.18,0,0,1,.72-1.16A3.55,3.55,0,0,1,76.2,22a3.19,3.19,0,0,1,1.39.33,1.14,1.14,0,0,1,.71,1.16C78.29,23.62,78.3,23.78,78.3,23.94Zm-.47.54v-.33c0-.21,0-.41,0-.62a.78.78,0,0,0-.56-.85,3.32,3.32,0,0,0-1.71-.2,2.18,2.18,0,0,0-1,.32.61.61,0,0,0-.33.58c0,.32,0,.63,0,.95a.17.17,0,0,0,.17.2c.38,0,.76.13,1.15.17A6.9,6.9,0,0,0,77.83,24.48Z"/><path class="cls-3" d="M74.62,17.64v.71a.27.27,0,0,1-.22.27,7.48,7.48,0,0,1-2.4.27,7.18,7.18,0,0,1-1.73-.27.27.27,0,0,1-.23-.25c0-.49,0-1,0-1.46a1.09,1.09,0,0,1,.79-.94,3.72,3.72,0,0,1,3,0,1.13,1.13,0,0,1,.74,1.18c0,.15,0,.3,0,.46Zm-.48-.1c0-.13,0-.25,0-.37a.67.67,0,0,0-.43-.72,2.13,2.13,0,0,0-.35-.14,3.46,3.46,0,0,0-1.66-.1,1.72,1.72,0,0,0-.92.36.68.68,0,0,0-.23.41,7.93,7.93,0,0,0,0,1.09.2.2,0,0,0,.12.15,7.33,7.33,0,0,0,3.23,0c.2,0,.29-.13.26-.34A2.44,2.44,0,0,1,74.14,17.54Z"/><path class="cls-3" d="M66.37,23.9c0-.18,0-.37,0-.56a1,1,0,0,1,.5-.91,3.16,3.16,0,0,1,2-.46,3.11,3.11,0,0,1,1.4.34,1.16,1.16,0,0,1,.7,1.13c0,.38,0,.77,0,1.15,0,.19-.07.28-.26.34a7.5,7.5,0,0,1-2.75.22c-.44,0-.87-.16-1.31-.23-.18,0-.24-.13-.24-.31S66.37,24.14,66.37,23.9Zm4.08.58c0-.42,0-.82,0-1.23a.58.58,0,0,0-.16-.31,1.34,1.34,0,0,0-.37-.25,3.2,3.2,0,0,0-1.73-.21,1.94,1.94,0,0,0-1,.35.7.7,0,0,0-.28.39c0,.42,0,.84,0,1.26A6.87,6.87,0,0,0,70.45,24.48Z"/><path class="cls-3" d="M77.07,20.58a1,1,0,0,1-1,1.05A1.09,1.09,0,0,1,75,20.56a1.07,1.07,0,0,1,1.06-1A1.05,1.05,0,0,1,77.07,20.58ZM76,20a.58.58,0,1,0,0,1.15A.58.58,0,1,0,76,20Z"/><path class="cls-3" d="M72.35,13.22a1.05,1.05,0,0,1,1,1.08,1.06,1.06,0,1,1-1-1.08Zm0,1.63a.56.56,0,0,0,.58-.58.59.59,0,0,0-.57-.58.56.56,0,0,0-.57.59A.54.54,0,0,0,72.33,14.85Z"/><path class="cls-3" d="M67.6,20.57a1.05,1.05,0,0,1,1.05-1.07,1.07,1.07,0,0,1,0,2.13A1.05,1.05,0,0,1,67.6,20.57ZM68.65,20a.56.56,0,0,0-.57.57.57.57,0,1,0,.57-.57Z"/><path class="cls-3" d="M72.57,20c-.16.53.11.8.56,1,.21.1.4.24.6.36s.27.24.19.37-.22.18-.42.05l-1-.6a.27.27,0,0,0-.33,0l-1,.62q-.27.16-.39-.06c-.07-.14,0-.26.16-.37l1-.62a.26.26,0,0,0,.14-.26c0-.33,0-.65,0-1s.08-.33.23-.33.24.11.24.33Z"/><path class="cls-3" d="M95.16,74.32l.37.15a1.42,1.42,0,0,1,.81.87.25.25,0,0,0,.28.19l6.56,0c.35,0,.69,0,1,0a2.27,2.27,0,0,1,2,2,20.25,20.25,0,0,1,0,2.06,2.18,2.18,0,0,1-.78,1.6,1.5,1.5,0,0,1-1,.39h-.88l.22.26a.37.37,0,0,1,0,.5.34.34,0,0,1-.48,0c-.28-.27-.55-.55-.82-.83a.38.38,0,0,1,0-.56l.81-.78a.38.38,0,0,1,.49,0,.37.37,0,0,1,0,.5c-.06.08-.14.15-.21.23a1.37,1.37,0,0,0,1.93-1.13,10.31,10.31,0,0,0,0-2.15A1.57,1.57,0,0,0,104,76.27l-3.1,0-4.15,0a.39.39,0,0,0-.44.27,1.53,1.53,0,0,1-2.46.47,1.56,1.56,0,0,1,.63-2.55l.14-.08Zm.59,1.56a.84.84,0,1,0-1.67,0,.86.86,0,0,0,.85.86A.85.85,0,0,0,95.75,75.88Z"/><path class="cls-3" d="M91.27,82.84c.08-.21.16-.44.26-.64a2.16,2.16,0,0,1,2-1.27l5.3,0a.33.33,0,0,0,.37-.24,1.51,1.51,0,1,1,2.49,1.63,1.51,1.51,0,0,1-2.52-.53c0-.16-.13-.19-.28-.19l-4.84,0a3.74,3.74,0,0,0-.95.08A1.56,1.56,0,0,0,92,83.19c0,.54,0,1.08,0,1.63a1.57,1.57,0,0,0,1.59,1.55h1.29l0-.07a2.71,2.71,0,0,1-.25-.19.33.33,0,0,1,0-.5.32.32,0,0,1,.49,0l.82.82a.36.36,0,0,1,0,.52l-.82.82a.36.36,0,0,1-.5,0,.37.37,0,0,1,0-.52l.23-.21-.29,0-1.25,0a2.19,2.19,0,0,1-2-1.67c0-.07-.06-.13-.08-.2v-.83c0-.27,0-.53,0-.79s0-.28,0-.42Zm9.35-.69a.84.84,0,0,0,0-1.68.86.86,0,0,0-.84.83A.87.87,0,0,0,100.62,82.15Z"/><path class="cls-3" d="M97.66,88.36c-.22-.11-.44-.2-.65-.32a1.48,1.48,0,0,1-.44-1.93A1.53,1.53,0,0,1,99,85.82a1.5,1.5,0,0,1-.71,2.46l-.21.08ZM97.92,86a.83.83,0,0,0-.85.82.82.82,0,0,0,.82.85.84.84,0,0,0,0-1.67Z"/><path class="cls-3" d="M106,34.48h.24a.92.92,0,0,0,.14.14c.43.3.87.58,1.3.87l2.89,1.92,1.58,1.05a.53.53,0,0,1,.27.48c0,.43,0,.86,0,1.29,0,.27-.14.44-.32.44h-1.27a1,1,0,0,0,0,.12V47.3c0,.18,0,.22.16.22.4,0,.81,0,1.22,0a.62.62,0,0,1,.19,0c.15.05.22.19.22.41s-.06.37-.2.42a.72.72,0,0,1-.25,0H100.24a.51.51,0,0,1-.52-.28v-.36a.54.54,0,0,1,.54-.26c.31,0,.61,0,.92,0h.39V40.68h-1.25c-.24,0-.35-.17-.35-.51s0-.85,0-1.28a.53.53,0,0,1,.23-.52l2.19-1.44,3-2C105.61,34.81,105.81,34.64,106,34.48Zm-5.45,5.32h11a.43.43,0,0,0,.16,0,.14.14,0,0,0,.08-.1.52.52,0,0,0-.18-.6l-1.57-1-3.82-2.54a.24.24,0,0,0-.22,0c-.17.1-.34.23-.51.34l-3,1.95L100.68,39a.29.29,0,0,0-.1.18C100.57,39.4,100.58,39.58,100.58,39.8Zm5.89,7.69h3.75V40.7h-3.75Zm-4.27-6.8c0,.08,0,.13,0,.18v6.41c0,.23.07.24.19.24,1.09,0,2.19,0,3.28,0,.16,0,.19-.08.19-.3V41c0-.08,0-.17,0-.26Z"/><path class="cls-3" d="M50.86,90.43a.58.58,0,0,1-.33-.68,8,8,0,0,1,.08-.84A1.11,1.11,0,0,1,51.74,88a4.28,4.28,0,0,0,.72,0,1.16,1.16,0,0,0,.93-1.21c0-.7,0-1.4,0-2.1,0-.44.12-.58.56-.59h.77c.23,0,.29-.09.16-.29a9.13,9.13,0,0,0-.62-.91,1.82,1.82,0,0,1-.39-1.07,4.85,4.85,0,0,0-2.46-3.94,4.68,4.68,0,0,0-3-.66,4.91,4.91,0,0,0-3.77,2.29,4.7,4.7,0,0,0-.76,2.3,5,5,0,0,0,4,5.31l.55.08h.09c0-.21,0-.41,0-.61a.39.39,0,0,0-.1-.16l-1.79-1.8a.39.39,0,0,1-.09-.23c0-.25,0-.5,0-.74a.26.26,0,0,0-.1-.2,1,1,0,0,1-.25-1.54.92.92,0,0,1,.94-.31.9.9,0,0,1,.7.55,1,1,0,0,1-.42,1.3s-.06,0-.07,0a1.38,1.38,0,0,0,.09.8l1.13,1.12v-1c0-1.34,0-2.68,0-4a.42.42,0,0,0-.21-.4A1,1,0,0,1,48,78.8a.9.9,0,0,1,1-.63.93.93,0,0,1,.92.72A1,1,0,0,1,49.45,80a.27.27,0,0,0-.13.27c0,1.08,0,2.16,0,3.24,0,.1,0,.2,0,.34l.16-.12c.29-.28.56-.57.85-.84a.63.63,0,0,0,.25-.55.52.52,0,0,0-.23-.49A1,1,0,0,1,50,80.64a1,1,0,0,1,1.07-.53,1,1,0,0,1,.8,1,1,1,0,0,1-.48.89.32.32,0,0,0-.12.2,3.37,3.37,0,0,0,0,.55.54.54,0,0,1-.2.47l-1.68,1.69a.46.46,0,0,0-.11.27c0,.76,0,1.51,0,2.27,0,.1,0,.21,0,.32,0,.27-.17.37-.46.37a6,6,0,0,1-5.47-3.77A10.15,10.15,0,0,1,43,82.76a.59.59,0,0,0,0-.08v-1c0-.21.05-.41.09-.61a6.07,6.07,0,0,1,1.24-2.67,5.87,5.87,0,0,1,3.35-2.05l.81-.17h.69l.35.05a5.9,5.9,0,0,1,4,2.23,5.73,5.73,0,0,1,1.24,3,1.52,1.52,0,0,0,.26.89,5.36,5.36,0,0,1,1,1.57v.48c-.07.07-.12.16-.2.2a3,3,0,0,1-.7.28,4.65,4.65,0,0,1-.75.07v.58a16,16,0,0,1-.06,1.7,1.64,1.64,0,0,1-1.17,1.5,4.59,4.59,0,0,1-1,.15c-.35,0-.49.12-.56.46a1.19,1.19,0,0,0,0,.42.56.56,0,0,1-.41.66Z"/><text class="cls-4" transform="translate(-0.03 46.53)">Impacto</text><text class="cls-4" transform="translate(41.61 5.43)">Usos y necesidades</text><text class="cls-4" transform="translate(116.85 41.51)">Gobernanza y <tspan x="0.34" y="7.9">normativadad</tspan></text><text class="cls-4" transform="translate(109.99 85.95)">Datos</text><text class="cls-4" transform="translate(3.93 86.61)">Tecnología</text><text class="cls-5" transform="translate(56.45 59.93)">Inteligencia de datos anticorrupción</text><path class="cls-3" d="M63.4,48.78a3,3,0,0,1-1,2.44,4.31,4.31,0,0,1-2.84.84h-.9v3.52h-2.1V45.69h3.16a4.2,4.2,0,0,1,2.74.78A2.82,2.82,0,0,1,63.4,48.78Zm-4.73,1.57h.69A2.28,2.28,0,0,0,60.81,50a1.32,1.32,0,0,0,.48-1.11,1.38,1.38,0,0,0-.41-1.09,1.9,1.9,0,0,0-1.26-.35h-.95Z"/><path class="cls-3" d="M84.3,55.58H81.64L77.33,48.1h-.06c.09,1.32.13,2.26.13,2.83v4.65H75.53V45.69h2.64l4.3,7.41h0c-.07-1.29-.11-2.2-.11-2.73V45.69H84.3Z"/><path class="cls-6" d="M66.72,55.74V53.87a8.75,8.75,0,0,0,2.84-.16,2.71,2.71,0,0,0,2-2.32,4.82,4.82,0,0,0-.07-2.07,2.71,2.71,0,0,0-2.26-2,5,5,0,0,0-1-.09H63.83V45.5H68a7,7,0,0,1,2.44.4A4,4,0,0,1,73,48.6a6.88,6.88,0,0,1,0,4.21,4,4,0,0,1-3,2.72A13.68,13.68,0,0,1,66.72,55.74Z"/><path class="cls-6" d="M66.74,50.3c0-.44,0-.89,0-1.34,0-.11,0-.15.15-.14.45,0,1.15,0,1.6.06a1.21,1.21,0,0,1,1.14,1.35,1.53,1.53,0,0,1-.41,1.15,1.58,1.58,0,0,1-1,.4c-.36,0-1,0-1.32,0-.11,0-.13,0-.13-.14C66.75,51.2,66.74,50.75,66.74,50.3Z"/></svg>