<svg id="Capa_1" data-name="Capa 1" xmlns="http://www.w3.org/2000/svg" viewBox="0 0 493.98 281.82"><defs><style>.cls-1{fill:none;stroke:#7bc082;stroke-miterlimit:10;}.cls-2{fill:#37464f;}.cls-3{fill:#fff;}.cls-4{font-size:20.26px;fill:#7bc082;font-family:OpenSans-SemiBold, Open Sans;font-weight:700;}</style></defs><title>Mesa de trabajo 7</title><circle class="cls-1" cx="220.99" cy="169.67" r="109.6"/><circle class="cls-2" cx="117.55" cy="132.02" r="32.2"/><path class="cls-3" d="M99.38,150.8V111.86H136.8c0,.92,0,1.84,0,2.76v35.2c0,.33,0,.66,0,1H104.16Zm17.89-1.93v-7.1l-1.93,2-.2-.1c.06-.69-.1-1.55.24-2a28.8,28.8,0,0,1,2.68-2.93,31.07,31.07,0,0,0,2.28,2.39c.91.76.62,1.68.47,2.67l-1.94-2v7.09H134l-9.22-9.48-.22.14v2.74c-.8-.74-1.57-1.22-1.45-2.42a32.31,32.31,0,0,0,0-3.27c1.15,0,2.18.08,3.19,0s1.58.74,2.34,1.53H126l8.91,9.5V132.13h-6.7l-.14.2,2,1.8-.09.23c-.64,0-1.46.16-1.89-.17a32.13,32.13,0,0,1-2.89-2.93,25.78,25.78,0,0,0,2.21-2.24c.74-1,1.64-.7,2.75-.68l-2,2.19h6.84V115.12l-9.19,9.49h2.75c-.45.59-.91,1.3-1.46,1.38a26.35,26.35,0,0,1-3.89.06V122.6a2.29,2.29,0,0,1,1.49-2.1v2.65l9.06-9.37H118.87v7l.28.23,1.74-2.11c.1.73.28,1.58,0,2a31.73,31.73,0,0,1-2.74,3c-.84-.88-1.52-1.72-2.32-2.41s-.52-1.7-.58-2.76l2.07,2v-7H102.64l8.93,9.36v-2.65l.17-.08c.42.5,1.13.95,1.21,1.5a33.72,33.72,0,0,1,0,4.16,20.19,20.19,0,0,0-2.92,0c-1.22.17-1.8-.59-2.53-1.52h2.85L101.23,115V130.5H108l.21-.29-2-2c.73.06,1.55-.14,2,.2a30.94,30.94,0,0,1,2.82,2.89l-2.29,2.35a2.09,2.09,0,0,1-2.5.46l1.84-2h-6.75v15.08l9.1-9.17h-2.66l-.08-.17c.49-.43.94-1.14,1.48-1.22a28.69,28.69,0,0,1,4-.06v3.61a2.18,2.18,0,0,1-1.5,1.9v-2.54l-9.14,9.3Z"/><circle class="cls-2" cx="218.4" cy="61.11" r="32.2"/><circle class="cls-2" cx="149.46" cy="249.89" r="32.2"/><circle class="cls-2" cx="299.3" cy="250.17" r="32.2"/><circle class="cls-2" cx="321.39" cy="131.71" r="32.2"/><path class="cls-3" d="M243,75.37c0,.95,0,1.91,0,2.86a1,1,0,0,1-.81,1.06,29.33,29.33,0,0,1-11.22,1c-1.8-.21-3.58-.62-5.36-.93a1.21,1.21,0,0,1-1.06-1.38c0-1.49,0-3,0-4.49a4.8,4.8,0,0,1,2.91-4.68,14.15,14.15,0,0,1,7.11-1.32,12.84,12.84,0,0,1,5.57,1.32c1.88,1,3,2.4,2.87,4.67C242.93,74.08,243,74.72,243,75.37Zm-1.88,2.17V76.21c0-.83-.06-1.65,0-2.47a3.17,3.17,0,0,0-2.26-3.43,13.83,13.83,0,0,0-6.88-.83,8.93,8.93,0,0,0-4.13,1.31,2.5,2.5,0,0,0-1.32,2.35c.06,1.26,0,2.53,0,3.79a.68.68,0,0,0,.67.81c1.55.23,3.09.54,4.64.69A27,27,0,0,0,241.09,77.54Z"/><path class="cls-3" d="M228.14,50v2.87a1,1,0,0,1-.86,1.09A30.12,30.12,0,0,1,217.6,55a28.43,28.43,0,0,1-7-1.07,1,1,0,0,1-.89-1c0-2-.09-3.93.05-5.88S211.3,44,213,43.26a15.09,15.09,0,0,1,12.19.13,4.52,4.52,0,0,1,3,4.75c0,.61,0,1.24,0,1.85Zm-1.91-.4a14.4,14.4,0,0,1,0-1.47,2.72,2.72,0,0,0-1.74-2.89,11.85,11.85,0,0,0-1.42-.6,14.34,14.34,0,0,0-6.7-.39,6.85,6.85,0,0,0-3.67,1.45,2.83,2.83,0,0,0-1,1.65,38,38,0,0,0,0,4.4.82.82,0,0,0,.48.6,29.5,29.5,0,0,0,13,.16c.84-.17,1.17-.52,1-1.37A11.3,11.3,0,0,1,226.23,49.59Z"/><path class="cls-3" d="M195,75.22c0-.74,0-1.49,0-2.24a4,4,0,0,1,2-3.68c2.41-1.64,5.15-1.93,8-1.85a12.68,12.68,0,0,1,5.63,1.35,4.66,4.66,0,0,1,2.8,4.57c-.07,1.55,0,3.09,0,4.64a1.21,1.21,0,0,1-1.06,1.34,28.91,28.91,0,0,1-11.06.88c-1.78-.2-3.53-.61-5.29-.91a1,1,0,0,1-1-1.24C195,77.13,195,76.18,195,75.22Zm16.42,2.33c0-1.69,0-3.31,0-4.93a2.07,2.07,0,0,0-.62-1.26,5.27,5.27,0,0,0-1.52-1,13.17,13.17,0,0,0-6.94-.85A7.84,7.84,0,0,0,198,70.92a2.74,2.74,0,0,0-1.12,1.56c-.14,1.68,0,3.38,0,5.07A27.89,27.89,0,0,0,211.37,77.55Z"/><path class="cls-3" d="M238,61.86a4.22,4.22,0,0,1-4.19,4.22,4.28,4.28,0,1,1,0-8.56A4.24,4.24,0,0,1,238,61.86Zm-4.24-2.38a2.32,2.32,0,1,0,.07,4.64,2.32,2.32,0,1,0-.07-4.64Z"/><path class="cls-3" d="M219,32.22a4.17,4.17,0,0,1,4.16,4.32,4.26,4.26,0,0,1-4.24,4.21,4.34,4.34,0,0,1-4.27-4.29A4.23,4.23,0,0,1,219,32.22Zm-.1,6.54a2.28,2.28,0,0,0,2.36-2.32,2.38,2.38,0,0,0-2.3-2.32,2.27,2.27,0,0,0-2.32,2.34A2.21,2.21,0,0,0,218.92,38.76Z"/><path class="cls-3" d="M199.89,61.79a4.22,4.22,0,0,1,4.24-4.27,4.29,4.29,0,0,1,0,8.57A4.23,4.23,0,0,1,199.89,61.79Zm4.22-2.31a2.28,2.28,0,0,0-2.3,2.28,2.31,2.31,0,1,0,2.3-2.28Z"/><path class="cls-3" d="M219.91,59.69c-.64,2.11.45,3.22,2.24,4a23.37,23.37,0,0,1,2.44,1.45c.84.5,1.07.94.75,1.5s-.88.69-1.71.19c-1.34-.8-2.69-1.6-4-2.43a1.08,1.08,0,0,0-1.32,0c-1.36.87-2.76,1.68-4.15,2.5-.74.44-1.27.36-1.58-.22s-.08-1.07.63-1.49c1.41-.84,2.81-1.69,4.24-2.5a1,1,0,0,0,.57-1.06c0-1.31,0-2.62,0-3.94,0-.87.32-1.31.94-1.31s1,.44,1,1.29Z"/><path class="cls-3" d="M290.35,229l1.15.48a4.4,4.4,0,0,1,2.5,2.67.76.76,0,0,0,.86.6q10.09,0,20.17.15c1.07,0,2.14,0,3.2.07a7,7,0,0,1,6.21,6.23,58.32,58.32,0,0,1-.05,6.34,6.92,6.92,0,0,1-2.39,4.92,4.73,4.73,0,0,1-3.12,1.2h-2.71c.3.35.5.56.69.79a1.12,1.12,0,0,1-.06,1.55,1,1,0,0,1-1.47-.07c-.85-.83-1.69-1.68-2.5-2.54a1.16,1.16,0,0,1,0-1.72c.82-.82,1.66-1.62,2.5-2.42a1.16,1.16,0,0,1,1.49-.11,1.14,1.14,0,0,1,.07,1.55c-.19.24-.42.45-.64.68a4.22,4.22,0,0,0,5.94-3.47,31.08,31.08,0,0,0,.12-6.61,4.83,4.83,0,0,0-4.84-4.26c-3.18,0-6.36-.06-9.55-.08-4.25,0-8.5-.06-12.75-.13a1.21,1.21,0,0,0-1.36.85,4.69,4.69,0,0,1-7.55,1.42,4.79,4.79,0,0,1,1.91-7.83,2.28,2.28,0,0,0,.45-.26Zm1.82,4.82a2.59,2.59,0,0,0-2.54-2.68,2.62,2.62,0,1,0,2.54,2.68Z"/><path class="cls-3" d="M278.38,255.2c.27-.66.49-1.35.82-2a6.63,6.63,0,0,1,6.2-3.89q8.16,0,16.32.07a1,1,0,0,0,1.14-.74,4.66,4.66,0,1,1,7.66,5,4.63,4.63,0,0,1-7.75-1.61c-.18-.5-.41-.58-.87-.58-5,0-9.93-.08-14.89-.08a11,11,0,0,0-2.94.26,4.75,4.75,0,0,0-3.55,4.62c0,1.66-.06,3.32,0,5a4.83,4.83,0,0,0,4.9,4.77h4l.16-.21a5.79,5.79,0,0,1-.77-.59,1,1,0,0,1-.05-1.52,1,1,0,0,1,1.52.06c.84.83,1.68,1.67,2.51,2.53a1.1,1.1,0,0,1,0,1.6c-.83.85-1.68,1.68-2.53,2.51a1.11,1.11,0,0,1-1.54,0,1.14,1.14,0,0,1,.1-1.6c.17-.17.37-.33.72-.64-.43,0-.67-.06-.91-.06l-3.85-.07a6.75,6.75,0,0,1-6.09-5.12,4.23,4.23,0,0,0-.25-.62v-2.57c0-.8.12-1.61.13-2.42a11.27,11.27,0,0,0-.13-1.29Zm28.79-2.13a2.59,2.59,0,0,0,0-5.17,2.64,2.64,0,0,0-2.61,2.56A2.69,2.69,0,0,0,307.17,253.07Z"/><path class="cls-3" d="M298.05,272.17c-.66-.33-1.36-.6-2-1a4.55,4.55,0,0,1-1.37-5.93,4.71,4.71,0,0,1,7.6-.9,4.62,4.62,0,0,1-2.18,7.57,4.86,4.86,0,0,0-.63.25Zm.8-7.24a2.56,2.56,0,0,0-2.62,2.52,2.53,2.53,0,0,0,2.53,2.63,2.58,2.58,0,0,0,.09-5.15Z"/><path class="cls-3" d="M320.79,106.4h.76a3,3,0,0,0,.43.44l4,2.66,8.89,5.92,4.85,3.2a1.68,1.68,0,0,1,.83,1.51c0,1.32,0,2.64,0,4,0,.83-.41,1.36-1,1.37-1.11,0-2.21,0-3.32,0a5.85,5.85,0,0,0-.59,0,3.8,3.8,0,0,0,0,.38q0,10,0,20c0,.54.15.67.49.67,1.25,0,2.5,0,3.76,0a2,2,0,0,1,.59.08c.46.14.66.58.67,1.25s-.19,1.14-.63,1.3a1.94,1.94,0,0,1-.76.09q-18.36,0-36.74,0a1.61,1.61,0,0,1-1.6-.85v-1.11a1.67,1.67,0,0,1,1.67-.8c.94.06,1.89,0,2.83,0h1.19v-21h-3.84c-.72,0-1.07-.5-1.08-1.55,0-1.31,0-2.63,0-4a1.73,1.73,0,0,1,.72-1.6c2.25-1.46,4.49-2.94,6.73-4.42q4.62-3,9.25-6.08C319.5,107.42,320.14,106.89,320.79,106.4ZM304,122.75h33.88a1.61,1.61,0,0,0,.49,0,.46.46,0,0,0,.26-.3,1.65,1.65,0,0,0-.55-1.85q-2.43-1.59-4.85-3.19c-3.92-2.61-7.83-5.23-11.75-7.82a.68.68,0,0,0-.66,0c-.54.29-1.06.68-1.59,1l-9.09,6c-1.95,1.28-3.9,2.55-5.84,3.84a.87.87,0,0,0-.29.56C304,121.53,304,122.08,304,122.75Zm18.12,23.69h11.54V125.52H322.15ZM309,125.5c0,.24,0,.4,0,.55,0,6.57,0,13.14,0,19.71,0,.71.24.74.61.74,3.36,0,6.72,0,10.08,0,.5,0,.6-.23.59-.9,0-6.44,0-12.88,0-19.32,0-.25,0-.5,0-.79Z"/><path class="cls-3" d="M152.05,272.54a1.8,1.8,0,0,1-1-2.08c.11-.86.08-1.74.27-2.58a3.4,3.4,0,0,1,3.47-2.8,14.88,14.88,0,0,0,2.22-.18,3.57,3.57,0,0,0,2.86-3.72c.07-2.15,0-4.3-.07-6.45,0-1.35.39-1.8,1.73-1.83.79,0,1.58,0,2.36,0s.9-.28.51-.89a28.24,28.24,0,0,0-1.93-2.79,5.75,5.75,0,0,1-1.19-3.3,15,15,0,0,0-7.56-12.13,14.7,14.7,0,0,0-9.23-2,15.15,15.15,0,0,0-11.59,7.05,14.35,14.35,0,0,0-2.35,7.1,15.39,15.39,0,0,0,12.36,16.32c.56.11,1.13.17,1.71.24a1,1,0,0,0,.27,0c0-.63,0-1.24,0-1.85a.93.93,0,0,0-.3-.52c-1.83-1.85-3.67-3.68-5.49-5.54a1.11,1.11,0,0,1-.3-.69c0-.76,0-1.53,0-2.29a.82.82,0,0,0-.33-.62,3.15,3.15,0,0,1-.77-4.73,2.94,2.94,0,0,1,2.92-1,2.75,2.75,0,0,1,2.13,1.7,3,3,0,0,1-1.3,4,.69.69,0,0,0-.2.13,4.37,4.37,0,0,0,.27,2.47l3.49,3.45v-3.09c0-4.12,0-8.24,0-12.35a1.3,1.3,0,0,0-.63-1.25,2.93,2.93,0,0,1-1-3.54,2.79,2.79,0,0,1,2.92-1.94A2.88,2.88,0,0,1,149,237a2.94,2.94,0,0,1-1.28,3.4.87.87,0,0,0-.43.86q0,5,0,9.94c0,.3,0,.61-.06,1.06a5.93,5.93,0,0,0,.51-.39c.87-.85,1.71-1.74,2.61-2.56a2,2,0,0,0,.75-1.71,1.56,1.56,0,0,0-.69-1.48,2.93,2.93,0,0,1-.86-3.73,3.06,3.06,0,0,1,3.3-1.65,3.11,3.11,0,0,1,1,5.68.92.92,0,0,0-.36.62,9.43,9.43,0,0,0,0,1.68,1.66,1.66,0,0,1-.6,1.45c-1.74,1.7-3.46,3.44-5.16,5.19a1.34,1.34,0,0,0-.34.85c0,2.32,0,4.64,0,7a5.34,5.34,0,0,1-.1,1c-.15.85-.52,1.15-1.4,1.14A18.19,18.19,0,0,1,129,253.74a33.45,33.45,0,0,1-1.16-4.79,1.31,1.31,0,0,0-.12-.27v-3c.09-.62.16-1.25.29-1.86a18.37,18.37,0,0,1,3.8-8.21,18,18,0,0,1,10.3-6.32c.84-.19,1.67-.34,2.51-.51h2.11l1.06.15a18.15,18.15,0,0,1,12.42,6.84A17.55,17.55,0,0,1,164,245a4.62,4.62,0,0,0,.79,2.72,15.88,15.88,0,0,1,2.92,4.83V254c-.19.21-.35.5-.6.61a10.09,10.09,0,0,1-2.14.86,14.93,14.93,0,0,1-2.32.21c0,.62,0,1.2,0,1.78,0,1.75,0,3.52-.18,5.25a5,5,0,0,1-3.6,4.6,15.18,15.18,0,0,1-3.24.48c-1.06.08-1.5.36-1.72,1.4a4.34,4.34,0,0,0-.11,1.29,1.69,1.69,0,0,1-1.25,2Z"/><text class="cls-4" transform="translate(-1.53 127.45)">Impacto</text><text class="cls-4" transform="translate(125.1 16.02)">Usos y Necesidades</text><text class="cls-4" transform="translate(358.09 127.02)">Gobernanza y <tspan x="2.61" y="24.31">Normatividad</tspan></text><text class="cls-4" transform="translate(336.98 263.75)">Datos</text><text class="cls-4" transform="translate(6.66 263.79)">Tecnología</text></svg>