<svg id="Capa_1" data-name="Capa 1" xmlns="http://www.w3.org/2000/svg" viewBox="0 0 162 93.83"><defs><style>.cls-1{fill:none;stroke:#7bc082;stroke-miterlimit:10;}.cls-2{fill:#37464f;}.cls-3{fill:#fff;}.cls-4{fill:#7bc082;}.cls-5{fill:#96cb99;}</style></defs><title>Mesa de trabajo 7</title><circle class="cls-1" cx="72.29" cy="55.37" r="35.62"/><circle class="cls-2" cx="38.02" cy="45.41" r="10.47"/><path class="cls-3" d="M32.12,51.51V38.86H44.28V51.52H32.12Zm5.81-.62V48.58l-.63.64-.06,0c0-.23,0-.5.08-.66a8.42,8.42,0,0,1,.87-1,9.14,9.14,0,0,0,.74.77c.29.25.2.55.15.87l-.63-.64v2.31h4.92l-3-3.08-.07,0v.89c-.26-.24-.52-.39-.48-.78a9.5,9.5,0,0,0,0-1.07c.37,0,.71,0,1,0s.51.24.76.5h-.86l2.89,3.08v-5H41.5l0,.07.63.59,0,.07c-.21,0-.47,0-.61-.06a9.4,9.4,0,0,1-.94-1,8.2,8.2,0,0,0,.72-.73c.24-.31.53-.22.89-.22l-.66.71h2.22v-5l-3,3.08h.89c-.15.19-.3.42-.48.45a8.74,8.74,0,0,1-1.26,0V42.35a.72.72,0,0,1,.48-.68v.85l3-3H38.45v2.27l.09.07.56-.68c0,.24.1.51,0,.66a10.1,10.1,0,0,1-.89,1,9.44,9.44,0,0,0-.75-.78c-.3-.26-.17-.56-.19-.9l.67.66V39.48H33.18l2.9,3v-.86l.05,0c.14.16.37.31.39.49a10,10,0,0,1,0,1.35,7.49,7.49,0,0,0-.95,0c-.39.06-.58-.19-.82-.49h.93l-3-3.1v5H34.9l.07-.09-.66-.64c.23,0,.5,0,.64.07a8.2,8.2,0,0,1,.92.94l-.75.76a.67.67,0,0,1-.81.15l.6-.65H32.72v4.9l3-3h-.86l0-.06c.16-.14.31-.37.48-.39a9.19,9.19,0,0,1,1.29,0v1.17a.73.73,0,0,1-.49.62v-.83l-3,3Z"/><circle class="cls-2" cx="71.45" cy="20.09" r="10.47"/><circle class="cls-2" cx="50.02" cy="83.07" r="10.47"/><circle class="cls-2" cx="98.07" cy="80.88" r="10.47"/><circle class="cls-2" cx="106.22" cy="42.71" r="10.47"/><path class="cls-3" d="M78.3,23.94c0,.23,0,.47,0,.71a.24.24,0,0,1-.2.26,7.32,7.32,0,0,1-2.79.24c-.45,0-.89-.15-1.33-.23a.3.3,0,0,1-.26-.34c0-.38,0-.75,0-1.12a1.18,1.18,0,0,1,.72-1.16A3.55,3.55,0,0,1,76.2,22a3.19,3.19,0,0,1,1.39.33,1.14,1.14,0,0,1,.71,1.16C78.29,23.62,78.3,23.78,78.3,23.94Zm-.47.54v-.33c0-.21,0-.41,0-.62a.78.78,0,0,0-.56-.85,3.32,3.32,0,0,0-1.71-.2,2.18,2.18,0,0,0-1,.32.61.61,0,0,0-.33.58c0,.32,0,.63,0,.95a.17.17,0,0,0,.17.2c.38,0,.76.13,1.15.17A6.9,6.9,0,0,0,77.83,24.48Z"/><path class="cls-3" d="M74.62,17.64v.71a.27.27,0,0,1-.22.27,7.48,7.48,0,0,1-2.4.27,7.18,7.18,0,0,1-1.73-.27.27.27,0,0,1-.23-.25c0-.49,0-1,0-1.46a1.09,1.09,0,0,1,.79-.94,3.72,3.72,0,0,1,3,0,1.13,1.13,0,0,1,.74,1.18c0,.15,0,.3,0,.46Zm-.48-.1c0-.13,0-.25,0-.37a.67.67,0,0,0-.43-.72,2.13,2.13,0,0,0-.35-.14,3.46,3.46,0,0,0-1.66-.1,1.72,1.72,0,0,0-.92.36.68.68,0,0,0-.23.41,7.93,7.93,0,0,0,0,1.09.2.2,0,0,0,.12.15,7.33,7.33,0,0,0,3.23,0c.2,0,.29-.13.26-.34A2.44,2.44,0,0,1,74.14,17.54Z"/><path class="cls-3" d="M66.37,23.9c0-.18,0-.37,0-.56a1,1,0,0,1,.5-.91,3.16,3.16,0,0,1,2-.46,3.11,3.11,0,0,1,1.4.34,1.16,1.16,0,0,1,.7,1.13c0,.38,0,.77,0,1.15,0,.19-.07.28-.26.34a7.5,7.5,0,0,1-2.75.22c-.44,0-.87-.16-1.31-.23-.18,0-.24-.13-.24-.31S66.37,24.14,66.37,23.9Zm4.08.58c0-.42,0-.82,0-1.23a.58.58,0,0,0-.16-.31,1.34,1.34,0,0,0-.37-.25,3.2,3.2,0,0,0-1.73-.21,1.94,1.94,0,0,0-1,.35.7.7,0,0,0-.28.39c0,.42,0,.84,0,1.26A6.87,6.87,0,0,0,70.45,24.48Z"/><path class="cls-3" d="M77.07,20.58a1,1,0,0,1-1,1.05A1.09,1.09,0,0,1,75,20.56a1.07,1.07,0,0,1,1.06-1A1.05,1.05,0,0,1,77.07,20.58ZM76,20a.58.58,0,1,0,0,1.15A.58.58,0,1,0,76,20Z"/><path class="cls-3" d="M72.35,13.22a1.05,1.05,0,0,1,1,1.08,1.06,1.06,0,1,1-1-1.08Zm0,1.63a.56.56,0,0,0,.58-.58.59.59,0,0,0-.57-.58.56.56,0,0,0-.57.59A.54.54,0,0,0,72.33,14.85Z"/><path class="cls-3" d="M67.6,20.57a1.05,1.05,0,0,1,1.05-1.07,1.07,1.07,0,0,1,0,2.13A1.05,1.05,0,0,1,67.6,20.57ZM68.65,20a.56.56,0,0,0-.57.57.57.57,0,1,0,.57-.57Z"/><path class="cls-3" d="M72.57,20c-.16.53.11.8.56,1,.21.1.4.24.6.36s.27.24.19.37-.22.18-.42.05l-1-.6a.27.27,0,0,0-.33,0l-1,.62q-.27.16-.39-.06c-.07-.14,0-.26.16-.37l1-.62a.26.26,0,0,0,.14-.26c0-.33,0-.65,0-1s.08-.33.23-.33.24.11.24.33Z"/><path class="cls-3" d="M95.16,74.32l.37.15a1.42,1.42,0,0,1,.81.87.25.25,0,0,0,.28.19l6.56,0c.35,0,.69,0,1,0a2.27,2.27,0,0,1,2,2,20.25,20.25,0,0,1,0,2.06,2.18,2.18,0,0,1-.78,1.6,1.5,1.5,0,0,1-1,.39h-.88l.22.26a.37.37,0,0,1,0,.5.34.34,0,0,1-.48,0c-.28-.27-.55-.55-.82-.83a.38.38,0,0,1,0-.56l.81-.78a.38.38,0,0,1,.49,0,.37.37,0,0,1,0,.5c-.06.08-.14.15-.21.23a1.37,1.37,0,0,0,1.93-1.13,10.31,10.31,0,0,0,0-2.15A1.57,1.57,0,0,0,104,76.27l-3.1,0-4.15,0a.39.39,0,0,0-.44.27,1.53,1.53,0,0,1-2.46.47,1.56,1.56,0,0,1,.63-2.55l.14-.08Zm.59,1.56a.84.84,0,1,0-1.67,0,.86.86,0,0,0,.85.86A.85.85,0,0,0,95.75,75.88Z"/><path class="cls-3" d="M91.27,82.84c.08-.21.16-.44.26-.64a2.16,2.16,0,0,1,2-1.27l5.3,0a.33.33,0,0,0,.37-.24,1.51,1.51,0,1,1,2.49,1.63,1.51,1.51,0,0,1-2.52-.53c0-.16-.13-.19-.28-.19l-4.84,0a3.74,3.74,0,0,0-.95.08A1.56,1.56,0,0,0,92,83.19c0,.54,0,1.08,0,1.63a1.57,1.57,0,0,0,1.59,1.55h1.29l0-.07a2.71,2.71,0,0,1-.25-.19.33.33,0,0,1,0-.5.32.32,0,0,1,.49,0l.82.82a.36.36,0,0,1,0,.52l-.82.82a.36.36,0,0,1-.5,0,.37.37,0,0,1,0-.52l.23-.21-.29,0-1.25,0a2.19,2.19,0,0,1-2-1.67c0-.07-.06-.13-.08-.2v-.83c0-.27,0-.53,0-.79s0-.28,0-.42Zm9.35-.69a.84.84,0,0,0,0-1.68.86.86,0,0,0-.84.83A.87.87,0,0,0,100.62,82.15Z"/><path class="cls-3" d="M97.66,88.36c-.22-.11-.44-.2-.65-.32a1.48,1.48,0,0,1-.44-1.93A1.53,1.53,0,0,1,99,85.82a1.5,1.5,0,0,1-.71,2.46l-.21.08ZM97.92,86a.83.83,0,0,0-.85.82.82.82,0,0,0,.82.85.84.84,0,0,0,0-1.67Z"/><path class="cls-3" d="M106,34.48h.24a.92.92,0,0,0,.14.14c.43.3.87.58,1.3.87l2.89,1.92,1.58,1.05a.53.53,0,0,1,.27.48c0,.43,0,.86,0,1.29,0,.27-.14.44-.32.44h-1.27a1,1,0,0,0,0,.12V47.3c0,.18,0,.22.16.22.4,0,.81,0,1.22,0a.62.62,0,0,1,.19,0c.15.05.22.19.22.41s-.06.37-.2.42a.72.72,0,0,1-.25,0H100.24a.51.51,0,0,1-.52-.28v-.36a.54.54,0,0,1,.54-.26c.31,0,.61,0,.92,0h.39V40.68h-1.25c-.24,0-.35-.17-.35-.51s0-.85,0-1.28a.53.53,0,0,1,.23-.52l2.19-1.44,3-2C105.61,34.81,105.81,34.64,106,34.48Zm-5.45,5.32h11a.43.43,0,0,0,.16,0,.14.14,0,0,0,.08-.1.52.52,0,0,0-.18-.6l-1.57-1-3.82-2.54a.24.24,0,0,0-.22,0c-.17.1-.34.23-.51.34l-3,1.95L100.68,39a.29.29,0,0,0-.1.18C100.57,39.4,100.58,39.58,100.58,39.8Zm5.89,7.69h3.75V40.7h-3.75Zm-4.27-6.8c0,.08,0,.13,0,.18v6.41c0,.23.07.24.19.24,1.09,0,2.19,0,3.28,0,.16,0,.19-.08.19-.3V41c0-.08,0-.17,0-.26Z"/><path class="cls-3" d="M50.86,90.43a.58.58,0,0,1-.33-.68,8,8,0,0,1,.08-.84A1.11,1.11,0,0,1,51.74,88a4.28,4.28,0,0,0,.72,0,1.16,1.16,0,0,0,.93-1.21c0-.7,0-1.4,0-2.1,0-.44.12-.58.56-.59h.77c.23,0,.29-.09.16-.29a9.13,9.13,0,0,0-.62-.91,1.82,1.82,0,0,1-.39-1.07,4.85,4.85,0,0,0-2.46-3.94,4.68,4.68,0,0,0-3-.66,4.91,4.91,0,0,0-3.77,2.29,4.7,4.7,0,0,0-.76,2.3,5,5,0,0,0,4,5.31l.55.08h.09c0-.21,0-.41,0-.61a.39.39,0,0,0-.1-.16l-1.79-1.8a.39.39,0,0,1-.09-.23c0-.25,0-.5,0-.74a.26.26,0,0,0-.1-.2,1,1,0,0,1-.25-1.54.92.92,0,0,1,.94-.31.9.9,0,0,1,.7.55,1,1,0,0,1-.42,1.3s-.06,0-.07,0a1.38,1.38,0,0,0,.09.8l1.13,1.12v-1c0-1.34,0-2.68,0-4a.42.42,0,0,0-.21-.4A1,1,0,0,1,48,78.8a.9.9,0,0,1,1-.63.93.93,0,0,1,.92.72A1,1,0,0,1,49.45,80a.27.27,0,0,0-.13.27c0,1.08,0,2.16,0,3.24,0,.1,0,.2,0,.34l.16-.12c.29-.28.56-.57.85-.84a.63.63,0,0,0,.25-.55.52.52,0,0,0-.23-.49A1,1,0,0,1,50,80.64a1,1,0,0,1,1.07-.53,1,1,0,0,1,.8,1,1,1,0,0,1-.48.89.32.32,0,0,0-.12.2,3.37,3.37,0,0,0,0,.55.54.54,0,0,1-.2.47l-1.68,1.69a.46.46,0,0,0-.11.27c0,.76,0,1.51,0,2.27,0,.1,0,.21,0,.32,0,.27-.17.37-.46.37a6,6,0,0,1-5.47-3.77A10.15,10.15,0,0,1,43,82.76a.59.59,0,0,0,0-.08v-1c0-.21.05-.41.09-.61a6.07,6.07,0,0,1,1.24-2.67,5.87,5.87,0,0,1,3.35-2.05l.81-.17h.69l.35.05a5.9,5.9,0,0,1,4,2.23,5.73,5.73,0,0,1,1.24,3,1.52,1.52,0,0,0,.26.89,5.36,5.36,0,0,1,1,1.57v.48c-.07.07-.12.16-.2.2a3,3,0,0,1-.7.28,4.65,4.65,0,0,1-.75.07v.58a16,16,0,0,1-.06,1.7,1.64,1.64,0,0,1-1.17,1.5,4.59,4.59,0,0,1-1,.15c-.35,0-.49.12-.56.46a1.19,1.19,0,0,0,0,.42.56.56,0,0,1-.41.66Z"/><path class="cls-4" d="M.59,46.53v-4.7h.77v4.7Z"/><path class="cls-4" d="M5.51,46.53H4.75v-2.2a1,1,0,0,0-.15-.61.57.57,0,0,0-.48-.2.73.73,0,0,0-.64.29,1.61,1.61,0,0,0-.21.94v1.78H2.52V43h.59l.1.47h0a1,1,0,0,1,.43-.4,1.44,1.44,0,0,1,.62-.13,1.07,1.07,0,0,1,1.09.56h.05a1.05,1.05,0,0,1,.44-.42,1.53,1.53,0,0,1,.66-.14,1.19,1.19,0,0,1,.93.32,1.43,1.43,0,0,1,.29,1v2.32H7v-2.2a1,1,0,0,0-.15-.61.6.6,0,0,0-.49-.2.75.75,0,0,0-.64.28,1.37,1.37,0,0,0-.21.84Z"/><path class="cls-4" d="M10.61,46.59a1.22,1.22,0,0,1-1-.48H9.52c0,.3.05.48.05.54v1.46H8.81V43h.61c0,.07.05.23.11.48h0a1.18,1.18,0,0,1,1.06-.54,1.22,1.22,0,0,1,1,.48A2.15,2.15,0,0,1,12,44.74a2.18,2.18,0,0,1-.38,1.36A1.24,1.24,0,0,1,10.61,46.59Zm-.18-3.07a.78.78,0,0,0-.66.27,1.33,1.33,0,0,0-.2.84v.11a1.64,1.64,0,0,0,.2.94.75.75,0,0,0,.67.29.67.67,0,0,0,.61-.32,1.66,1.66,0,0,0,.21-.91,1.63,1.63,0,0,0-.21-.91A.72.72,0,0,0,10.43,43.52Z"/><path class="cls-4" d="M15.14,46.53,15,46h0a1.29,1.29,0,0,1-.52.44,1.58,1.58,0,0,1-.67.12,1.09,1.09,0,0,1-.81-.28,1.06,1.06,0,0,1-.3-.8.94.94,0,0,1,.41-.83,2.34,2.34,0,0,1,1.24-.31l.62,0v-.19a.73.73,0,0,0-.16-.51.66.66,0,0,0-.49-.16,1.55,1.55,0,0,0-.53.08,3.41,3.41,0,0,0-.48.18L13,43.21a2.69,2.69,0,0,1,.64-.22,2.51,2.51,0,0,1,.65-.08,1.51,1.51,0,0,1,1,.29,1.17,1.17,0,0,1,.35.93v2.4ZM14,46a.89.89,0,0,0,.66-.23.81.81,0,0,0,.25-.64v-.31l-.45,0a1.49,1.49,0,0,0-.78.18.52.52,0,0,0-.24.48.46.46,0,0,0,.14.37A.57.57,0,0,0,14,46Z"/><path class="cls-4" d="M18.17,46.59a1.58,1.58,0,0,1-1.23-.47,2,2,0,0,1-.42-1.35A2,2,0,0,1,17,43.39a1.62,1.62,0,0,1,1.27-.48,2.37,2.37,0,0,1,1,.21l-.23.6a2.35,2.35,0,0,0-.79-.18c-.62,0-.92.41-.92,1.22a1.42,1.42,0,0,0,.23.9.79.79,0,0,0,.67.3,1.91,1.91,0,0,0,1-.25v.66a1.67,1.67,0,0,1-.44.17A2.87,2.87,0,0,1,18.17,46.59Z"/><path class="cls-4" d="M21.32,46a1.81,1.81,0,0,0,.55-.09v.57a1.12,1.12,0,0,1-.32.09,1.9,1.9,0,0,1-.41,0c-.72,0-1.08-.38-1.08-1.13V43.54h-.48v-.33l.52-.28.25-.75h.47V43h1v.57h-1v1.91a.54.54,0,0,0,.14.4A.48.48,0,0,0,21.32,46Z"/><path class="cls-4" d="M25.73,44.74a2,2,0,0,1-.44,1.36,1.61,1.61,0,0,1-1.25.49,1.72,1.72,0,0,1-.88-.22,1.55,1.55,0,0,1-.59-.65,2.32,2.32,0,0,1-.2-1,1.93,1.93,0,0,1,.44-1.35,1.62,1.62,0,0,1,1.25-.48,1.55,1.55,0,0,1,1.22.49A1.92,1.92,0,0,1,25.73,44.74Zm-2.59,0c0,.82.31,1.23.91,1.23s.91-.41.91-1.23-.31-1.22-.91-1.22a.77.77,0,0,0-.69.32A1.61,1.61,0,0,0,23.14,44.74Z"/><path class="cls-4" d="M45.92.73v3a1.85,1.85,0,0,1-.23.92,1.49,1.49,0,0,1-.64.6,2.25,2.25,0,0,1-1,.21A1.87,1.87,0,0,1,42.68,5a1.64,1.64,0,0,1-.49-1.27v-3H43v3a1.17,1.17,0,0,0,.27.85,1.1,1.1,0,0,0,.83.28c.73,0,1.09-.38,1.09-1.14v-3Z"/><path class="cls-4" d="M49.43,4.42a.94.94,0,0,1-.38.8A1.86,1.86,0,0,1,48,5.5a2.63,2.63,0,0,1-1.14-.22V4.63A2.87,2.87,0,0,0,48,4.92q.69,0,.69-.42a.35.35,0,0,0-.07-.23.83.83,0,0,0-.26-.18,3,3,0,0,0-.49-.22A2.31,2.31,0,0,1,47,3.39a.9.9,0,0,1-.22-.62.8.8,0,0,1,.37-.7,1.74,1.74,0,0,1,1-.26,2.83,2.83,0,0,1,1.19.26l-.24.57a2.67,2.67,0,0,0-1-.24c-.4,0-.6.11-.6.34a.33.33,0,0,0,.16.28,2.9,2.9,0,0,0,.68.32,3.48,3.48,0,0,1,.64.31.9.9,0,0,1,.29.33A.87.87,0,0,1,49.43,4.42Z"/><path class="cls-4" d="M53.4,3.65A1.94,1.94,0,0,1,53,5a1.62,1.62,0,0,1-1.24.49,1.7,1.7,0,0,1-.88-.23,1.47,1.47,0,0,1-.59-.64,2.21,2.21,0,0,1-.21-1,1.9,1.9,0,0,1,.45-1.35,1.79,1.79,0,0,1,2.47,0A1.92,1.92,0,0,1,53.4,3.65Zm-2.59,0c0,.82.3,1.23.91,1.23s.9-.41.9-1.23-.3-1.22-.91-1.22a.79.79,0,0,0-.69.32A1.62,1.62,0,0,0,50.81,3.65Z"/><path class="cls-4" d="M56.65,4.42a.92.92,0,0,1-.38.8,1.83,1.83,0,0,1-1.08.28,2.6,2.6,0,0,1-1.14-.22V4.63a2.83,2.83,0,0,0,1.16.29c.47,0,.7-.14.7-.42a.31.31,0,0,0-.08-.23.77.77,0,0,0-.25-.18,3.42,3.42,0,0,0-.49-.22,2.22,2.22,0,0,1-.83-.48A.86.86,0,0,1,54,2.77a.78.78,0,0,1,.37-.7,1.72,1.72,0,0,1,1-.26,2.86,2.86,0,0,1,1.19.26l-.25.57a2.58,2.58,0,0,0-1-.24c-.39,0-.59.11-.59.34a.35.35,0,0,0,.15.28,3.13,3.13,0,0,0,.68.32,2.93,2.93,0,0,1,.64.31,1,1,0,0,1,.3.33A1,1,0,0,1,56.65,4.42Z"/><path class="cls-4" d="M58.64,1.88h.82l.73,2a4.12,4.12,0,0,1,.22.81h0a3.91,3.91,0,0,1,.11-.43c.05-.16.32-1,.81-2.39h.82l-1.52,4A1.45,1.45,0,0,1,59.27,7a2,2,0,0,1-.49,0v-.6a1.51,1.51,0,0,0,.39,0,.8.8,0,0,0,.77-.63l.13-.34Z"/><path class="cls-4" d="M67.55,5.43h-.76V3.25a1,1,0,0,0-.17-.62.64.64,0,0,0-.52-.2.83.83,0,0,0-.7.28,1.56,1.56,0,0,0-.22,1V5.43h-.76V1.88H65l.11.46h0A1,1,0,0,1,65.61,2a1.59,1.59,0,0,1,.66-.14,1.15,1.15,0,0,1,1.28,1.31Z"/><path class="cls-4" d="M70.15,5.5A1.72,1.72,0,0,1,68.85,5a1.82,1.82,0,0,1-.46-1.33,2,2,0,0,1,.43-1.37,1.67,1.67,0,0,1,2.31-.07,1.66,1.66,0,0,1,.4,1.18v.41H69.16a1.18,1.18,0,0,0,.28.79,1,1,0,0,0,.75.28,2.65,2.65,0,0,0,.58-.06,3.43,3.43,0,0,0,.59-.2v.62a2.43,2.43,0,0,1-.56.18A3.2,3.2,0,0,1,70.15,5.5ZM70,2.38a.75.75,0,0,0-.57.23,1.11,1.11,0,0,0-.26.67h1.61a1,1,0,0,0-.21-.67A.75.75,0,0,0,70,2.38Z"/><path class="cls-4" d="M73.83,5.5A1.58,1.58,0,0,1,72.6,5a2,2,0,0,1-.42-1.36,2,2,0,0,1,.44-1.38,1.62,1.62,0,0,1,1.27-.48,2.37,2.37,0,0,1,1,.21l-.23.61a2.17,2.17,0,0,0-.79-.19c-.62,0-.92.41-.92,1.23a1.42,1.42,0,0,0,.23.9.79.79,0,0,0,.67.3,2,2,0,0,0,1-.25v.66a2.11,2.11,0,0,1-.44.17A2.87,2.87,0,0,1,73.83,5.5Z"/><path class="cls-4" d="M77.2,5.5A1.68,1.68,0,0,1,75.91,5a1.79,1.79,0,0,1-.47-1.33,2,2,0,0,1,.43-1.37,1.52,1.52,0,0,1,1.2-.5,1.48,1.48,0,0,1,1.11.43,1.66,1.66,0,0,1,.41,1.18v.41H76.22a1.13,1.13,0,0,0,.28.79.94.94,0,0,0,.74.28,2.74,2.74,0,0,0,.59-.06,3.34,3.34,0,0,0,.58-.2v.62a2.29,2.29,0,0,1-.56.18A3.13,3.13,0,0,1,77.2,5.5Zm-.13-3.12a.77.77,0,0,0-.58.23,1.11,1.11,0,0,0-.26.67h1.61a1,1,0,0,0-.21-.67A.72.72,0,0,0,77.07,2.38Z"/><path class="cls-4" d="M81.83,4.42a.92.92,0,0,1-.38.8,1.83,1.83,0,0,1-1.08.28,2.57,2.57,0,0,1-1.14-.22V4.63a2.79,2.79,0,0,0,1.16.29c.47,0,.7-.14.7-.42A.36.36,0,0,0,81,4.27a.77.77,0,0,0-.25-.18,3.42,3.42,0,0,0-.49-.22,2.22,2.22,0,0,1-.83-.48.86.86,0,0,1-.22-.62.78.78,0,0,1,.37-.7,1.72,1.72,0,0,1,1-.26,2.86,2.86,0,0,1,1.19.26l-.25.57a2.62,2.62,0,0,0-1-.24c-.4,0-.59.11-.59.34a.35.35,0,0,0,.15.28,2.9,2.9,0,0,0,.68.32,3.18,3.18,0,0,1,.64.31,1,1,0,0,1,.3.33A1,1,0,0,1,81.83,4.42Z"/><path class="cls-4" d="M82.6.94a.42.42,0,0,1,.12-.32.49.49,0,0,1,.62,0,.42.42,0,0,1,.11.32.39.39,0,0,1-.11.3.49.49,0,0,1-.62,0A.39.39,0,0,1,82.6.94Zm.81,4.49h-.76V1.88h.76Z"/><path class="cls-4" d="M85.68,5.5a1.2,1.2,0,0,1-1-.49,2.15,2.15,0,0,1-.38-1.35,2.2,2.2,0,0,1,.38-1.36,1.26,1.26,0,0,1,1-.49,1.23,1.23,0,0,1,1.06.52h0a5.71,5.71,0,0,1,0-.6V.43h.76v5h-.59L86.78,5h0A1.22,1.22,0,0,1,85.68,5.5Zm.21-.61a.83.83,0,0,0,.68-.27,1.34,1.34,0,0,0,.21-.85v-.1a1.66,1.66,0,0,0-.21-1,.82.82,0,0,0-.69-.28.7.7,0,0,0-.61.32,1.63,1.63,0,0,0-.22.92,1.63,1.63,0,0,0,.21.91A.73.73,0,0,0,85.89,4.89Z"/><path class="cls-4" d="M90.81,5.43l-.15-.49h0a1.54,1.54,0,0,1-.51.44,1.64,1.64,0,0,1-.67.12,1.14,1.14,0,0,1-.82-.29,1,1,0,0,1-.29-.8,1,1,0,0,1,.4-.83A2.49,2.49,0,0,1,90,3.28l.61,0V3.07a.69.69,0,0,0-.16-.51A.65.65,0,0,0,90,2.39a1.77,1.77,0,0,0-.52.08l-.49.19-.24-.54a2.48,2.48,0,0,1,.63-.23A3.11,3.11,0,0,1,90,1.81a1.54,1.54,0,0,1,1,.3,1.17,1.17,0,0,1,.34.93V5.43Zm-1.12-.51a1,1,0,0,0,.66-.23A.86.86,0,0,0,90.6,4v-.3h-.46a1.75,1.75,0,0,0-.78.18.55.55,0,0,0-.24.49.5.5,0,0,0,.14.37A.61.61,0,0,0,89.69,4.92Z"/><path class="cls-4" d="M93.61,5.5a1.22,1.22,0,0,1-1-.49,2.15,2.15,0,0,1-.38-1.35,2.2,2.2,0,0,1,.38-1.36,1.26,1.26,0,0,1,1.05-.49,1.25,1.25,0,0,1,1.07.52h0a5.71,5.71,0,0,1,0-.6V.43h.76v5h-.59L94.71,5h0A1.21,1.21,0,0,1,93.61,5.5Zm.2-.61a.83.83,0,0,0,.68-.27,1.4,1.4,0,0,0,.22-.85v-.1a1.65,1.65,0,0,0-.22-1,.82.82,0,0,0-.69-.28.7.7,0,0,0-.61.32,1.63,1.63,0,0,0-.22.92,1.63,1.63,0,0,0,.21.91A.73.73,0,0,0,93.81,4.89Z"/><path class="cls-4" d="M98.06,5.5A1.72,1.72,0,0,1,96.76,5a1.82,1.82,0,0,1-.46-1.33,2,2,0,0,1,.43-1.37,1.51,1.51,0,0,1,1.19-.5A1.48,1.48,0,0,1,99,2.24a1.62,1.62,0,0,1,.41,1.18v.41H97.07a1.18,1.18,0,0,0,.28.79,1,1,0,0,0,.75.28,2.65,2.65,0,0,0,.58-.06,3.43,3.43,0,0,0,.59-.2v.62a2.43,2.43,0,0,1-.56.18A3.2,3.2,0,0,1,98.06,5.5Zm-.14-3.12a.75.75,0,0,0-.57.23,1,1,0,0,0-.26.67H98.7a1,1,0,0,0-.21-.67A.75.75,0,0,0,97.92,2.38Z"/><path class="cls-4" d="M102.69,4.42a.94.94,0,0,1-.38.8,1.84,1.84,0,0,1-1.09.28,2.63,2.63,0,0,1-1.14-.22V4.63a2.87,2.87,0,0,0,1.17.29c.46,0,.7-.14.7-.42a.36.36,0,0,0-.08-.23.9.9,0,0,0-.25-.18,3.62,3.62,0,0,0-.5-.22,2.4,2.4,0,0,1-.83-.48.9.9,0,0,1-.21-.62.8.8,0,0,1,.36-.7,1.75,1.75,0,0,1,1-.26,2.82,2.82,0,0,1,1.18.26l-.24.57a2.67,2.67,0,0,0-1-.24c-.4,0-.6.11-.6.34A.33.33,0,0,0,101,3a2.9,2.9,0,0,0,.68.32,3.48,3.48,0,0,1,.64.31.9.9,0,0,1,.29.33A.87.87,0,0,1,102.69,4.42Z"/><path class="cls-4" d="M119.39,39h1.73v2.36a5.31,5.31,0,0,1-.81.2,5.57,5.57,0,0,1-.85.06,2.11,2.11,0,0,1-1.64-.64,2.51,2.51,0,0,1-.58-1.78,2.4,2.4,0,0,1,.65-1.78,2.5,2.5,0,0,1,1.8-.64,3.46,3.46,0,0,1,1.39.29l-.27.64a2.64,2.64,0,0,0-1.14-.27,1.53,1.53,0,0,0-1.19.48,1.82,1.82,0,0,0-.44,1.29,1.9,1.9,0,0,0,.4,1.31,1.42,1.42,0,0,0,1.13.45,3.89,3.89,0,0,0,.8-.1V39.62h-1Z"/><path class="cls-4" d="M125.32,39.73a1.94,1.94,0,0,1-.44,1.36,1.63,1.63,0,0,1-1.25.49,1.72,1.72,0,0,1-.88-.23,1.55,1.55,0,0,1-.59-.65,2.27,2.27,0,0,1-.2-1,1.94,1.94,0,0,1,.44-1.35,1.8,1.8,0,0,1,2.48,0A2,2,0,0,1,125.32,39.73Zm-2.58,0c0,.82.3,1.23.91,1.23s.9-.41.9-1.23-.31-1.22-.91-1.22a.76.76,0,0,0-.69.31A1.63,1.63,0,0,0,122.74,39.73Z"/><path class="cls-4" d="M128,37.89a1.25,1.25,0,0,1,1,.48,2.24,2.24,0,0,1,.37,1.36,2.2,2.2,0,0,1-.38,1.36,1.36,1.36,0,0,1-2.09,0h0l-.14.42h-.57v-5H127V37.7c0,.09,0,.22,0,.39s0,.28,0,.33h0A1.2,1.2,0,0,1,128,37.89Zm-.2.62a.75.75,0,0,0-.65.27,1.45,1.45,0,0,0-.21.89v.06a1.75,1.75,0,0,0,.2.94.78.78,0,0,0,.68.29.67.67,0,0,0,.6-.32,1.67,1.67,0,0,0,.21-.92C128.64,38.91,128.37,38.51,127.81,38.51Z"/><path class="cls-4" d="M131.85,41.58a1.73,1.73,0,0,1-1.3-.49,1.84,1.84,0,0,1-.47-1.33,2,2,0,0,1,.44-1.37,1.48,1.48,0,0,1,1.19-.5,1.44,1.44,0,0,1,1.11.43,1.64,1.64,0,0,1,.41,1.18v.4h-2.37a1.16,1.16,0,0,0,.28.8,1,1,0,0,0,.74.28,2.74,2.74,0,0,0,.59-.06,3.34,3.34,0,0,0,.58-.2v.61a2.31,2.31,0,0,1-.56.19A3.1,3.1,0,0,1,131.85,41.58Zm-.14-3.12a.78.78,0,0,0-.58.23,1.14,1.14,0,0,0-.26.67h1.62a1,1,0,0,0-.22-.67A.71.71,0,0,0,131.71,38.46Z"/><path class="cls-4" d="M135.89,37.89a2,2,0,0,1,.38,0l-.08.71a1.19,1.19,0,0,0-.33,0,1,1,0,0,0-.74.29,1.12,1.12,0,0,0-.28.77v1.86h-.75V38h.59l.1.62h0a1.31,1.31,0,0,1,.46-.5A1,1,0,0,1,135.89,37.89Z"/><path class="cls-4" d="M140.05,41.51h-.75V39.33a1,1,0,0,0-.17-.62.66.66,0,0,0-.53-.2.83.83,0,0,0-.7.28,1.64,1.64,0,0,0-.22,1v1.77h-.75V38h.59l.1.46h0a1,1,0,0,1,.46-.39,1.55,1.55,0,0,1,.65-.14,1.14,1.14,0,0,1,1.28,1.3Z"/><path class="cls-4" d="M143.33,41.51l-.15-.49h0a1.47,1.47,0,0,1-.52.44,1.56,1.56,0,0,1-.66.12,1.12,1.12,0,0,1-.82-.29,1,1,0,0,1-.3-.8,1,1,0,0,1,.41-.83,2.36,2.36,0,0,1,1.25-.3l.61,0v-.19a.69.69,0,0,0-.16-.51.66.66,0,0,0-.49-.17,1.89,1.89,0,0,0-.53.08,4.78,4.78,0,0,0-.48.19l-.24-.54a2.48,2.48,0,0,1,.63-.23,3.11,3.11,0,0,1,.65-.08,1.51,1.51,0,0,1,1,.3,1.14,1.14,0,0,1,.35.93v2.39ZM142.2,41a.93.93,0,0,0,.66-.23.84.84,0,0,0,.25-.65v-.31l-.45,0a1.71,1.71,0,0,0-.78.18.55.55,0,0,0-.24.49.5.5,0,0,0,.14.37A.64.64,0,0,0,142.2,41Z"/><path class="cls-4" d="M148.05,41.51h-.76V39.33a1,1,0,0,0-.16-.62.66.66,0,0,0-.53-.2.83.83,0,0,0-.7.28,1.56,1.56,0,0,0-.22,1v1.77h-.76V38h.6l.1.46h0a1,1,0,0,1,.46-.39,1.51,1.51,0,0,1,.65-.14,1.14,1.14,0,0,1,1.28,1.3Z"/><path class="cls-4" d="M151.48,41.51h-2.7V41l1.8-2.51h-1.69V38h2.54v.52l-1.76,2.45h1.81Z"/><path class="cls-4" d="M154.47,41.51l-.15-.49h0a1.56,1.56,0,0,1-.52.44,1.61,1.61,0,0,1-.67.12,1.14,1.14,0,0,1-.82-.29,1.07,1.07,0,0,1-.29-.8,1,1,0,0,1,.41-.83,2.32,2.32,0,0,1,1.24-.3l.62,0v-.19a.74.74,0,0,0-.16-.51.67.67,0,0,0-.5-.17,1.82,1.82,0,0,0-.52.08,3.43,3.43,0,0,0-.48.19l-.25-.54A2.71,2.71,0,0,1,153,38a3,3,0,0,1,.65-.08,1.51,1.51,0,0,1,1,.3,1.14,1.14,0,0,1,.34.93v2.39ZM153.35,41a1,1,0,0,0,.66-.23.84.84,0,0,0,.25-.65v-.31l-.46,0A1.7,1.7,0,0,0,153,40a.54.54,0,0,0-.25.49.5.5,0,0,0,.14.37A.67.67,0,0,0,153.35,41Z"/><path class="cls-4" d="M157.24,38h.82l.73,2a4,4,0,0,1,.21.81h0a3.91,3.91,0,0,1,.11-.43c.05-.17.32-1,.81-2.39h.82l-1.52,4a1.45,1.45,0,0,1-1.38,1.11,2.63,2.63,0,0,1-.49-.05v-.6a1.51,1.51,0,0,0,.39,0,.8.8,0,0,0,.77-.64l.13-.33Z"/><path class="cls-4" d="M120.86,49.41h-.76V47.23a1,1,0,0,0-.16-.62.66.66,0,0,0-.53-.2.83.83,0,0,0-.7.28,1.56,1.56,0,0,0-.22,1v1.77h-.76V45.86h.6l.1.46h0a1,1,0,0,1,.46-.39,1.51,1.51,0,0,1,.65-.14,1.14,1.14,0,0,1,1.28,1.3Z"/><path class="cls-4" d="M125.07,47.63a1.94,1.94,0,0,1-.45,1.36,1.62,1.62,0,0,1-1.24.49,1.67,1.67,0,0,1-.88-.23,1.43,1.43,0,0,1-.59-.65,2.13,2.13,0,0,1-.21-1,1.94,1.94,0,0,1,.44-1.35,1.61,1.61,0,0,1,1.26-.49,1.58,1.58,0,0,1,1.22.5A1.92,1.92,0,0,1,125.07,47.63Zm-2.59,0c0,.82.3,1.23.91,1.23s.9-.41.9-1.23-.3-1.22-.91-1.22a.79.79,0,0,0-.69.31A1.63,1.63,0,0,0,122.48,47.63Z"/><path class="cls-4" d="M127.74,45.79a1.83,1.83,0,0,1,.37,0l-.07.71a1.24,1.24,0,0,0-.33,0,1,1,0,0,0-.74.3,1,1,0,0,0-.28.76v1.86h-.76V45.86h.6l.1.62h0a1.41,1.41,0,0,1,.47-.5A1,1,0,0,1,127.74,45.79Z"/><path class="cls-4" d="M131.77,49.41H131V47.22a1,1,0,0,0-.15-.61.6.6,0,0,0-.49-.2.74.74,0,0,0-.64.28,1.74,1.74,0,0,0-.2,1v1.77h-.76V45.86h.6l.1.46h0a1,1,0,0,1,.43-.39,1.41,1.41,0,0,1,.62-.14,1.07,1.07,0,0,1,1.08.56h.06a1,1,0,0,1,.44-.41,1.4,1.4,0,0,1,.66-.15,1.19,1.19,0,0,1,.92.32,1.4,1.4,0,0,1,.29,1v2.32h-.75V47.22a1,1,0,0,0-.16-.61.57.57,0,0,0-.48-.2.76.76,0,0,0-.65.27,1.5,1.5,0,0,0-.2.85Z"/><path class="cls-4" d="M137.29,49.41l-.15-.49h0a1.67,1.67,0,0,1-.52.44,1.64,1.64,0,0,1-.67.12,1.14,1.14,0,0,1-.82-.29,1.07,1.07,0,0,1-.29-.8,1,1,0,0,1,.4-.83,2.39,2.39,0,0,1,1.25-.3l.61,0v-.19a.69.69,0,0,0-.16-.51.65.65,0,0,0-.49-.17,1.77,1.77,0,0,0-.52.08,4.14,4.14,0,0,0-.49.19l-.24-.54a2.48,2.48,0,0,1,.63-.23,3.11,3.11,0,0,1,.65-.08,1.53,1.53,0,0,1,1,.3,1.14,1.14,0,0,1,.34.93v2.39Zm-1.12-.51a1,1,0,0,0,.66-.23.87.87,0,0,0,.25-.65v-.31l-.46,0a1.75,1.75,0,0,0-.78.18.55.55,0,0,0-.24.49.5.5,0,0,0,.14.37A.67.67,0,0,0,136.17,48.9Z"/><path class="cls-4" d="M140.21,48.86a1.7,1.7,0,0,0,.55-.08v.57l-.32.09a2.71,2.71,0,0,1-.41,0c-.71,0-1.07-.38-1.07-1.14V46.43h-.49v-.34l.52-.27.26-.76h.47v.8h1v.57h-1v1.9a.52.52,0,0,0,.13.4A.48.48,0,0,0,140.21,48.86Z"/><path class="cls-4" d="M141.43,44.91a.43.43,0,0,1,.11-.31.44.44,0,0,1,.32-.11.45.45,0,0,1,.31.11.43.43,0,0,1,.11.31.38.38,0,0,1-.42.42.44.44,0,0,1-.32-.11A.45.45,0,0,1,141.43,44.91Zm.8,4.5h-.76V45.86h.76Z"/><path class="cls-4" d="M144.12,49.41l-1.35-3.55h.8l.72,2.06a4.18,4.18,0,0,1,.23.84h0a6.37,6.37,0,0,1,.23-.84l.72-2.06h.8l-1.35,3.55Z"/><path class="cls-4" d="M149.06,49.41l-.15-.49h0a1.47,1.47,0,0,1-.52.44,1.56,1.56,0,0,1-.66.12,1.12,1.12,0,0,1-.82-.29,1,1,0,0,1-.3-.8,1,1,0,0,1,.41-.83,2.36,2.36,0,0,1,1.25-.3l.61,0v-.19a.69.69,0,0,0-.16-.51.66.66,0,0,0-.49-.17,1.84,1.84,0,0,0-.53.08,4,4,0,0,0-.48.19L147,46.1a2.48,2.48,0,0,1,.63-.23,3.11,3.11,0,0,1,.65-.08,1.51,1.51,0,0,1,1,.3,1.14,1.14,0,0,1,.35.93v2.39Zm-1.13-.51a.93.93,0,0,0,.66-.23.84.84,0,0,0,.25-.65v-.31l-.45,0a1.71,1.71,0,0,0-.78.18.55.55,0,0,0-.24.49.5.5,0,0,0,.14.37A.64.64,0,0,0,147.93,48.9Z"/><path class="cls-4" d="M151.85,49.48a1.26,1.26,0,0,1-1-.49,2.21,2.21,0,0,1-.37-1.35,2.18,2.18,0,0,1,.38-1.36,1.24,1.24,0,0,1,1.05-.49,1.21,1.21,0,0,1,1.06.52h0a4,4,0,0,1-.05-.61V44.41h.75v5h-.59L153,49h0A1.23,1.23,0,0,1,151.85,49.48Zm.2-.62a.8.8,0,0,0,.68-.26,1.29,1.29,0,0,0,.22-.85v-.1a1.58,1.58,0,0,0-.22-1,.79.79,0,0,0-.68-.28.72.72,0,0,0-.62.32,1.69,1.69,0,0,0-.21.92,1.57,1.57,0,0,0,.21.9A.7.7,0,0,0,152.05,48.86Z"/><path class="cls-4" d="M157,49.41l-.15-.49h0a1.54,1.54,0,0,1-.51.44,1.64,1.64,0,0,1-.67.12,1.12,1.12,0,0,1-.82-.29,1,1,0,0,1-.3-.8,1,1,0,0,1,.41-.83,2.36,2.36,0,0,1,1.25-.3l.61,0v-.19a.69.69,0,0,0-.16-.51.65.65,0,0,0-.49-.17,1.89,1.89,0,0,0-.53.08,4.78,4.78,0,0,0-.48.19l-.24-.54a2.48,2.48,0,0,1,.63-.23,3.11,3.11,0,0,1,.65-.08,1.51,1.51,0,0,1,1,.3,1.14,1.14,0,0,1,.35.93v2.39Zm-1.13-.51a.93.93,0,0,0,.66-.23.84.84,0,0,0,.25-.65v-.31l-.45,0a1.71,1.71,0,0,0-.78.18.55.55,0,0,0-.24.49.5.5,0,0,0,.14.37A.64.64,0,0,0,155.85,48.9Z"/><path class="cls-4" d="M159.77,49.48a1.23,1.23,0,0,1-1-.49,2.15,2.15,0,0,1-.38-1.35,2.18,2.18,0,0,1,.38-1.36,1.24,1.24,0,0,1,1-.49,1.21,1.21,0,0,1,1.06.52h0a5.86,5.86,0,0,1,0-.61V44.41h.76v5H161l-.14-.46h0A1.23,1.23,0,0,1,159.77,49.48Zm.21-.62a.79.79,0,0,0,.67-.26,1.29,1.29,0,0,0,.22-.85v-.1a1.58,1.58,0,0,0-.22-1,.79.79,0,0,0-.68-.28.69.69,0,0,0-.61.32,1.61,1.61,0,0,0-.22.92,1.57,1.57,0,0,0,.21.9A.7.7,0,0,0,160,48.86Z"/><path class="cls-4" d="M114.43,83.56a2.32,2.32,0,0,1-.65,1.78,2.59,2.59,0,0,1-1.86.61h-1.31v-4.7h1.45a2.39,2.39,0,0,1,1.75.61A2.27,2.27,0,0,1,114.43,83.56Zm-.81,0c0-1.12-.53-1.68-1.58-1.68h-.66v3.41h.54A1.52,1.52,0,0,0,113.62,83.58Z"/><path class="cls-4" d="M117.58,86l-.15-.49h0a1.56,1.56,0,0,1-.52.44,1.61,1.61,0,0,1-.67.12,1.14,1.14,0,0,1-.82-.29,1.07,1.07,0,0,1-.29-.8,1,1,0,0,1,.41-.83,2.42,2.42,0,0,1,1.24-.3l.62,0v-.19a.74.74,0,0,0-.16-.51.67.67,0,0,0-.5-.17,1.82,1.82,0,0,0-.52.08,3.43,3.43,0,0,0-.48.19l-.25-.54a2.71,2.71,0,0,1,.64-.23,3,3,0,0,1,.65-.08,1.51,1.51,0,0,1,1,.3,1.15,1.15,0,0,1,.34.93V86Zm-1.12-.51a1,1,0,0,0,.66-.23.84.84,0,0,0,.25-.65v-.31l-.46,0a1.7,1.7,0,0,0-.77.18.54.54,0,0,0-.25.49.5.5,0,0,0,.14.37A.67.67,0,0,0,116.46,85.44Z"/><path class="cls-4" d="M120.5,85.41a1.82,1.82,0,0,0,.56-.09v.57a1.7,1.7,0,0,1-.33.09,2.59,2.59,0,0,1-.41,0c-.71,0-1.07-.38-1.07-1.14V83h-.49v-.34l.53-.27.25-.75H120v.79h1V83h-1v1.9a.46.46,0,0,0,.49.54Z"/><path class="cls-4" d="M124.92,84.17a1.94,1.94,0,0,1-.45,1.36,1.6,1.6,0,0,1-1.24.49,1.7,1.7,0,0,1-.88-.23,1.47,1.47,0,0,1-.59-.64,2.21,2.21,0,0,1-.21-1,1.9,1.9,0,0,1,.45-1.35,1.79,1.79,0,0,1,2.47,0A1.92,1.92,0,0,1,124.92,84.17Zm-2.59,0c0,.82.31,1.23.91,1.23s.9-.41.9-1.23-.3-1.22-.9-1.22a.76.76,0,0,0-.69.31A1.57,1.57,0,0,0,122.33,84.17Z"/><path class="cls-4" d="M128.18,84.94a.94.94,0,0,1-.38.8,1.89,1.89,0,0,1-1.09.28,2.63,2.63,0,0,1-1.14-.22v-.65a2.87,2.87,0,0,0,1.17.29q.69,0,.69-.42a.35.35,0,0,0-.07-.23.83.83,0,0,0-.26-.18,3,3,0,0,0-.49-.22,2.22,2.22,0,0,1-.83-.48.9.9,0,0,1-.22-.62.83.83,0,0,1,.37-.71,1.83,1.83,0,0,1,1-.25,2.83,2.83,0,0,1,1.19.26l-.25.57a2.58,2.58,0,0,0-1-.24c-.4,0-.6.11-.6.34a.33.33,0,0,0,.16.28,3.51,3.51,0,0,0,.67.32,2.93,2.93,0,0,1,.64.31.85.85,0,0,1,.3.33A1,1,0,0,1,128.18,84.94Z"/><path class="cls-4" d="M6.17,86.61H5.41v-4H4v-.66H7.56v.66H6.17Z"/><path class="cls-4" d="M9.75,86.68a1.7,1.7,0,0,1-1.3-.49A1.83,1.83,0,0,1,8,84.86a2,2,0,0,1,.44-1.37A1.51,1.51,0,0,1,9.61,83a1.44,1.44,0,0,1,1.11.43,1.62,1.62,0,0,1,.41,1.18V85H8.76a1.18,1.18,0,0,0,.28.8,1,1,0,0,0,.74.28,2.74,2.74,0,0,0,.59-.06,3.08,3.08,0,0,0,.58-.2v.62a2.36,2.36,0,0,1-.55.18A3.2,3.2,0,0,1,9.75,86.68Zm-.14-3.12a.78.78,0,0,0-.58.23,1.1,1.1,0,0,0-.25.67h1.61a1.07,1.07,0,0,0-.21-.67A.75.75,0,0,0,9.61,83.56Z"/><path class="cls-4" d="M13.42,86.68a1.55,1.55,0,0,1-1.22-.47,2,2,0,0,1-.42-1.36,2,2,0,0,1,.44-1.38A1.61,1.61,0,0,1,13.48,83a2.38,2.38,0,0,1,1,.21l-.23.61a2.17,2.17,0,0,0-.79-.19q-.93,0-.93,1.23a1.42,1.42,0,0,0,.24.9.78.78,0,0,0,.67.3,2,2,0,0,0,.95-.25v.66a2,2,0,0,1-.43.17A2.9,2.9,0,0,1,13.42,86.68Z"/><path class="cls-4" d="M18.38,86.61h-.76V84.43a1,1,0,0,0-.17-.62.64.64,0,0,0-.52-.2.82.82,0,0,0-.7.28,1.56,1.56,0,0,0-.22,1v1.77h-.76V83.06h.59l.11.46h0a1,1,0,0,1,.45-.39A1.59,1.59,0,0,1,17.1,83a1.14,1.14,0,0,1,1.28,1.3Z"/><path class="cls-4" d="M22.58,84.83a1.94,1.94,0,0,1-.45,1.36,1.6,1.6,0,0,1-1.24.49,1.7,1.7,0,0,1-.88-.23,1.53,1.53,0,0,1-.59-.64,2.2,2.2,0,0,1-.2-1,1.89,1.89,0,0,1,.44-1.35A1.59,1.59,0,0,1,20.91,83a1.58,1.58,0,0,1,1.22.5A1.92,1.92,0,0,1,22.58,84.83Zm-2.59,0c0,.82.31,1.23.91,1.23s.9-.41.9-1.23-.3-1.22-.9-1.22a.76.76,0,0,0-.69.31A1.57,1.57,0,0,0,20,84.83Z"/><path class="cls-4" d="M24.21,86.61h-.76v-5h.76Z"/><path class="cls-4" d="M28.44,84.83A1.94,1.94,0,0,1,28,86.19a1.62,1.62,0,0,1-1.24.49,1.7,1.7,0,0,1-.88-.23,1.47,1.47,0,0,1-.59-.64,2.21,2.21,0,0,1-.21-1,1.9,1.9,0,0,1,.45-1.35,1.79,1.79,0,0,1,2.47,0A1.92,1.92,0,0,1,28.44,84.83Zm-2.59,0c0,.82.3,1.23.91,1.23s.9-.41.9-1.23-.3-1.22-.91-1.22a.79.79,0,0,0-.69.31A1.66,1.66,0,0,0,25.85,84.83Z"/><path class="cls-4" d="M32.31,83.06v.41l-.61.11a1,1,0,0,1,.14.28,1,1,0,0,1,.05.35,1.06,1.06,0,0,1-.37.86,1.62,1.62,0,0,1-1.05.32,1.48,1.48,0,0,1-.31,0,.43.43,0,0,0-.24.36.2.2,0,0,0,.11.18,1,1,0,0,0,.42.06h.62a1.4,1.4,0,0,1,.9.25.89.89,0,0,1,.3.72,1.06,1.06,0,0,1-.5.94,2.7,2.7,0,0,1-1.44.32,2,2,0,0,1-1.11-.25.85.85,0,0,1-.38-.74.79.79,0,0,1,.21-.55,1.12,1.12,0,0,1,.58-.31.51.51,0,0,1-.25-.21.47.47,0,0,1-.1-.3.52.52,0,0,1,.11-.33,1.24,1.24,0,0,1,.34-.28.93.93,0,0,1-.45-.38,1.19,1.19,0,0,1-.17-.63,1.13,1.13,0,0,1,.36-.9,1.56,1.56,0,0,1,1-.32l.32,0,.25,0Zm-2.79,4.11a.41.41,0,0,0,.22.37,1.15,1.15,0,0,0,.61.13,2,2,0,0,0,.92-.17.53.53,0,0,0,.31-.47.35.35,0,0,0-.17-.33,1.26,1.26,0,0,0-.61-.1h-.58a.79.79,0,0,0-.51.15A.5.5,0,0,0,29.52,87.17Zm.32-3a.73.73,0,0,0,.17.51.67.67,0,0,0,.5.18c.43,0,.65-.23.65-.7a.76.76,0,0,0-.16-.53.6.6,0,0,0-.49-.19.65.65,0,0,0-.5.18A.82.82,0,0,0,29.84,84.21Z"/><path class="cls-4" d="M32.93,82.62v-.08c.12-.15.25-.31.38-.5a4.34,4.34,0,0,0,.3-.47h.88v.07a5.79,5.79,0,0,1-.5.5,5.89,5.89,0,0,1-.56.48Zm.79,4H33V83.06h.75Z"/><path class="cls-4" d="M37,86.61l-.15-.49h0a1.47,1.47,0,0,1-.52.44,1.56,1.56,0,0,1-.66.12,1.12,1.12,0,0,1-.82-.29,1,1,0,0,1-.3-.8,1,1,0,0,1,.41-.83,2.46,2.46,0,0,1,1.25-.3l.61,0v-.19a.69.69,0,0,0-.16-.51.66.66,0,0,0-.49-.17,1.84,1.84,0,0,0-.53.08c-.16.06-.33.12-.48.19l-.24-.54a2.48,2.48,0,0,1,.63-.23A3.11,3.11,0,0,1,36.2,83a1.51,1.51,0,0,1,1,.3,1.16,1.16,0,0,1,.35.93v2.39ZM35.9,86.1a.93.93,0,0,0,.66-.23.84.84,0,0,0,.25-.65v-.3h-.45a1.71,1.71,0,0,0-.78.18.55.55,0,0,0-.24.49.46.46,0,0,0,.14.37A.64.64,0,0,0,35.9,86.1Z"/><path class="cls-5" d="M56.72,59.93V58h.22v1.91Z"/><path class="cls-5" d="M58.42,59.93V59a.41.41,0,0,0-.08-.27.37.37,0,0,0-.25-.08.4.4,0,0,0-.33.12.55.55,0,0,0-.11.4v.75h-.22V58.5h.18l0,.2h0a.42.42,0,0,1,.18-.17.6.6,0,0,1,.27-.06.53.53,0,0,1,.39.13.51.51,0,0,1,.13.4v.93Z"/><path class="cls-5" d="M59.54,59.78h.11l.09,0v.17l-.11,0h-.12c-.28,0-.42-.15-.42-.44v-.85h-.2v-.11l.2-.09.1-.3h.12v.33h.42v.17h-.42v.84a.28.28,0,0,0,.06.2A.22.22,0,0,0,59.54,59.78Z"/><path class="cls-5" d="M60.63,60a.65.65,0,0,1-.5-.19.77.77,0,0,1-.18-.54.79.79,0,0,1,.17-.55.55.55,0,0,1,.46-.21.52.52,0,0,1,.42.18.65.65,0,0,1,.16.47v.14h-1a.62.62,0,0,0,.13.38.42.42,0,0,0,.34.13,1.06,1.06,0,0,0,.46-.1v.2l-.22.07Zm-.06-1.3a.33.33,0,0,0-.27.11.49.49,0,0,0-.12.31h.75a.51.51,0,0,0-.09-.32A.35.35,0,0,0,60.57,58.66Z"/><path class="cls-5" d="M61.75,59.93h-.22v-2h.22Z"/><path class="cls-5" d="M62.19,58.11a.12.12,0,0,1,0-.11.12.12,0,0,1,.09,0,.16.16,0,0,1,.09,0,.17.17,0,0,1,0,.22.18.18,0,0,1-.09,0,.13.13,0,0,1-.09,0A.12.12,0,0,1,62.19,58.11Zm.24,1.82h-.22V58.5h.22Z"/><path class="cls-5" d="M64.06,58.5v.14l-.26,0a.67.67,0,0,1,.06.12.43.43,0,0,1,0,.17.42.42,0,0,1-.14.33.57.57,0,0,1-.4.13h-.12c-.09.05-.14.11-.14.18a.11.11,0,0,0,0,.09.34.34,0,0,0,.17,0h.25a.6.6,0,0,1,.36.09.38.38,0,0,1,.13.29.4.4,0,0,1-.2.36.93.93,0,0,1-.55.13.77.77,0,0,1-.44-.11.33.33,0,0,1-.15-.29.38.38,0,0,1,.08-.23.47.47,0,0,1,.24-.13.16.16,0,0,1-.09-.07.2.2,0,0,1,0-.13.18.18,0,0,1,0-.13.51.51,0,0,1,.13-.12.43.43,0,0,1-.18-.15.56.56,0,0,1-.07-.26A.49.49,0,0,1,63,58.6a.62.62,0,0,1,.4-.13.66.66,0,0,1,.21,0Zm-1.14,1.68a.19.19,0,0,0,.1.17.53.53,0,0,0,.28.06.7.7,0,0,0,.4-.08.25.25,0,0,0,.14-.22.17.17,0,0,0-.08-.16.5.5,0,0,0-.27-.05h-.26A.39.39,0,0,0,63,60,.29.29,0,0,0,62.92,60.18ZM63,59a.34.34,0,0,0,.08.23.36.36,0,0,0,.24.07c.21,0,.32-.1.32-.3a.29.29,0,0,0-.32-.33A.28.28,0,0,0,63,59Z"/><path class="cls-5" d="M65,60a.67.67,0,0,1-.51-.19.77.77,0,0,1-.18-.54.84.84,0,0,1,.17-.55.56.56,0,0,1,.46-.21.55.55,0,0,1,.43.18.7.7,0,0,1,.15.47v.14h-1a.62.62,0,0,0,.13.38.44.44,0,0,0,.34.13,1.06,1.06,0,0,0,.46-.1v.2l-.22.07Zm-.06-1.3a.34.34,0,0,0-.28.11.49.49,0,0,0-.12.31h.75a.51.51,0,0,0-.09-.32A.33.33,0,0,0,64.91,58.66Z"/><path class="cls-5" d="M66.85,59.93V59a.41.41,0,0,0-.08-.27.37.37,0,0,0-.25-.08.42.42,0,0,0-.33.12.6.6,0,0,0-.11.4v.75h-.22V58.5H66l0,.2h0a.42.42,0,0,1,.18-.17.6.6,0,0,1,.27-.06.46.46,0,0,1,.52.53v.93Z"/><path class="cls-5" d="M68.08,60a.62.62,0,0,1-.48-.19.81.81,0,0,1-.17-.54.85.85,0,0,1,.17-.56.71.71,0,0,1,.7-.17.58.58,0,0,1,.17,0l-.07.18-.16,0h-.15c-.29,0-.43.18-.43.55a.67.67,0,0,0,.1.41.39.39,0,0,0,.32.14.85.85,0,0,0,.37-.08v.2A.82.82,0,0,1,68.08,60Z"/><path class="cls-5" d="M68.77,58.11a.12.12,0,0,1,0-.11.12.12,0,0,1,.09,0,.15.15,0,0,1,.09.25.18.18,0,0,1-.09,0,.13.13,0,0,1-.09,0A.12.12,0,0,1,68.77,58.11ZM69,59.93h-.22V58.5H69Z"/><path class="cls-5" d="M70.35,59.93l0-.2h0a.67.67,0,0,1-.22.18.68.68,0,0,1-.27.05.49.49,0,0,1-.33-.11.4.4,0,0,1-.12-.31c0-.29.23-.44.69-.46h.25V59a.34.34,0,0,0-.08-.25c0-.06-.12-.08-.23-.08a.94.94,0,0,0-.4.1l-.07-.16a.92.92,0,0,1,.23-.09,1.15,1.15,0,0,1,.26,0,.54.54,0,0,1,.38.11.5.5,0,0,1,.12.37v1Zm-.49-.15a.48.48,0,0,0,.32-.11.43.43,0,0,0,.11-.31v-.13h-.21a.72.72,0,0,0-.38.08.25.25,0,0,0-.11.22.21.21,0,0,0,.07.18A.3.3,0,0,0,69.86,59.78Z"/><path class="cls-5" d="M72.63,59.74h0a.5.5,0,0,1-.45.22.53.53,0,0,1-.44-.19,1.08,1.08,0,0,1,0-1.1.54.54,0,0,1,.44-.2.53.53,0,0,1,.45.21h0V57.9h.22v2h-.18Zm-.43,0a.39.39,0,0,0,.32-.12.59.59,0,0,0,.1-.39v-.05a.68.68,0,0,0-.1-.43.38.38,0,0,0-.32-.13.34.34,0,0,0-.3.14.81.81,0,0,0-.1.42.71.71,0,0,0,.1.42A.36.36,0,0,0,72.2,59.78Z"/><path class="cls-5" d="M73.91,60a.67.67,0,0,1-.51-.19.77.77,0,0,1-.18-.54.84.84,0,0,1,.17-.55.56.56,0,0,1,.46-.21.55.55,0,0,1,.43.18.7.7,0,0,1,.15.47v.14h-1a.62.62,0,0,0,.13.38.44.44,0,0,0,.34.13,1.06,1.06,0,0,0,.46-.1v.2l-.22.07Zm-.06-1.3a.34.34,0,0,0-.28.11.49.49,0,0,0-.12.31h.75a.51.51,0,0,0-.09-.32A.33.33,0,0,0,73.85,58.66Z"/><path class="cls-5" d="M76.48,59.74h0A.5.5,0,0,1,76,60a.52.52,0,0,1-.44-.19,1,1,0,0,1,0-1.1.53.53,0,0,1,.44-.2.51.51,0,0,1,.44.21h0V57.9h.21v2h-.17Zm-.44,0a.42.42,0,0,0,.33-.12.65.65,0,0,0,.1-.39v-.05a.75.75,0,0,0-.1-.43.39.39,0,0,0-.33-.13.32.32,0,0,0-.29.14.73.73,0,0,0-.1.42.71.71,0,0,0,.1.42A.33.33,0,0,0,76,59.78Z"/><path class="cls-5" d="M78,59.93l0-.2h0a.56.56,0,0,1-.21.18.68.68,0,0,1-.27.05.49.49,0,0,1-.33-.11.4.4,0,0,1-.12-.31c0-.29.23-.44.69-.46H78V59a.34.34,0,0,0-.08-.25c0-.06-.12-.08-.23-.08a1,1,0,0,0-.41.1l-.06-.16a.92.92,0,0,1,.23-.09,1.07,1.07,0,0,1,.25,0,.51.51,0,0,1,.38.11.46.46,0,0,1,.13.37v1Zm-.49-.15a.48.48,0,0,0,.32-.11.43.43,0,0,0,.11-.31v-.13h-.22a.7.7,0,0,0-.37.08.24.24,0,0,0-.12.22.22.22,0,0,0,.08.18A.28.28,0,0,0,77.54,59.78Z"/><path class="cls-5" d="M79.1,59.78h.11l.09,0v.17l-.11,0h-.12c-.28,0-.42-.15-.42-.44v-.85h-.2v-.11l.2-.09.09-.3h.13v.33h.42v.17h-.42v.84a.28.28,0,0,0,.06.2A.21.21,0,0,0,79.1,59.78Z"/><path class="cls-5" d="M80.82,59.22a.81.81,0,0,1-.17.54.6.6,0,0,1-.49.2.64.64,0,0,1-.34-.09.58.58,0,0,1-.23-.26.8.8,0,0,1-.09-.39.78.78,0,0,1,.18-.55.63.63,0,0,1,.49-.2.63.63,0,0,1,.48.2A.86.86,0,0,1,80.82,59.22Zm-1.09,0a.67.67,0,0,0,.11.41.37.37,0,0,0,.32.15.41.41,0,0,0,.33-.14.72.72,0,0,0,.11-.42.68.68,0,0,0-.11-.42.42.42,0,0,0-.33-.14.36.36,0,0,0-.32.14A.68.68,0,0,0,79.73,59.22Z"/><path class="cls-5" d="M82.13,59.54a.35.35,0,0,1-.15.31.72.72,0,0,1-.42.11.88.88,0,0,1-.44-.09v-.2l.22.08a.91.91,0,0,0,.23,0,.6.6,0,0,0,.26-.05.19.19,0,0,0,.09-.17.17.17,0,0,0-.07-.14,1,1,0,0,0-.29-.14,2.72,2.72,0,0,1-.28-.13.4.4,0,0,1-.13-.13.43.43,0,0,1,0-.17.32.32,0,0,1,.15-.28.7.7,0,0,1,.39-.1,1,1,0,0,1,.45.1l-.08.17a1,1,0,0,0-.39-.08.47.47,0,0,0-.23,0,.17.17,0,0,0-.08.14.17.17,0,0,0,0,.1.35.35,0,0,0,.09.07l.26.11a.8.8,0,0,1,.34.19A.32.32,0,0,1,82.13,59.54Z"/><path class="cls-5" d="M84.06,59.93l0-.2h0a.56.56,0,0,1-.21.18.72.72,0,0,1-.27.05.53.53,0,0,1-.34-.11.4.4,0,0,1-.12-.31c0-.29.23-.44.7-.46H84V59a.34.34,0,0,0-.07-.25.28.28,0,0,0-.23-.08,1,1,0,0,0-.41.1l-.07-.16a.85.85,0,0,1,.24-.09,1.07,1.07,0,0,1,.25,0,.52.52,0,0,1,.38.11.5.5,0,0,1,.12.37v1Zm-.49-.15a.46.46,0,0,0,.32-.11.4.4,0,0,0,.12-.31v-.13h-.22a.68.68,0,0,0-.37.08.24.24,0,0,0-.12.22.25.25,0,0,0,.07.18A.32.32,0,0,0,83.57,59.78Z"/><path class="cls-5" d="M85.66,59.93V59a.41.41,0,0,0-.08-.27.37.37,0,0,0-.25-.08.4.4,0,0,0-.33.12.55.55,0,0,0-.11.4v.75h-.22V58.5h.18l0,.2h0a.42.42,0,0,1,.18-.17.6.6,0,0,1,.27-.06.53.53,0,0,1,.39.13.51.51,0,0,1,.13.4v.93Z"/><path class="cls-5" d="M86.78,59.78h.11l.09,0v.17l-.1,0h-.13c-.28,0-.41-.15-.41-.44v-.85h-.21v-.11l.21-.09.09-.3h.12v.33H87v.17h-.42v.84a.28.28,0,0,0,.06.2A.22.22,0,0,0,86.78,59.78Z"/><path class="cls-5" d="M87.25,58.11a.12.12,0,0,1,0-.11.12.12,0,0,1,.09,0,.15.15,0,0,1,.09.25.18.18,0,0,1-.09,0,.13.13,0,0,1-.09,0A.12.12,0,0,1,87.25,58.11Zm.23,1.82h-.21V58.5h.21Z"/><path class="cls-5" d="M88.52,60a.59.59,0,0,1-.48-.19.76.76,0,0,1-.17-.54.8.8,0,0,1,.17-.56.62.62,0,0,1,.49-.2.76.76,0,0,1,.21,0,.5.5,0,0,1,.16,0l-.06.18-.16,0h-.15c-.29,0-.44.18-.44.55a.67.67,0,0,0,.11.41.37.37,0,0,0,.31.14.83.83,0,0,0,.37-.08v.2A.74.74,0,0,1,88.52,60Z"/><path class="cls-5" d="M90.46,59.22a.81.81,0,0,1-.17.54.61.61,0,0,1-.49.2.68.68,0,0,1-.35-.09.73.73,0,0,1-.23-.26.93.93,0,0,1-.08-.39.78.78,0,0,1,.18-.55.63.63,0,0,1,.49-.2.59.59,0,0,1,.47.2A.81.81,0,0,1,90.46,59.22Zm-1.09,0a.61.61,0,0,0,.11.41.37.37,0,0,0,.32.15.42.42,0,0,0,.33-.14.72.72,0,0,0,.11-.42.68.68,0,0,0-.11-.42.42.42,0,0,0-.33-.14.36.36,0,0,0-.32.14A.62.62,0,0,0,89.37,59.22Z"/><path class="cls-5" d="M91.5,58.47l.17,0,0,.2-.16,0a.42.42,0,0,0-.3.14.53.53,0,0,0-.12.35v.77h-.22V58.5H91l0,.26h0a.55.55,0,0,1,.19-.21A.46.46,0,0,1,91.5,58.47Z"/><path class="cls-5" d="M92.59,58.47l.17,0,0,.2-.15,0a.39.39,0,0,0-.3.14.53.53,0,0,0-.12.35v.77h-.22V58.5h.18l0,.26h0a.78.78,0,0,1,.19-.21A.46.46,0,0,1,92.59,58.47Z"/><path class="cls-5" d="M93.24,58.5v.93a.34.34,0,0,0,.08.26.3.3,0,0,0,.25.09.42.42,0,0,0,.33-.12.65.65,0,0,0,.1-.41V58.5h.22v1.43H94l0-.19h0a.42.42,0,0,1-.19.16.6.6,0,0,1-.27.06.45.45,0,0,1-.52-.52V58.5Z"/><path class="cls-5" d="M95.35,60a.71.71,0,0,1-.26-.05.42.42,0,0,1-.19-.16h0a1.94,1.94,0,0,1,0,.24v.59h-.22V58.5h.18l0,.2h0a.44.44,0,0,1,.19-.17.55.55,0,0,1,.26-.06.54.54,0,0,1,.44.2.88.88,0,0,1,.15.55.87.87,0,0,1-.15.54A.53.53,0,0,1,95.35,60Zm0-1.3a.38.38,0,0,0-.32.12.59.59,0,0,0-.1.39v0a.7.7,0,0,0,.1.43.36.36,0,0,0,.32.13.34.34,0,0,0,.29-.15.72.72,0,0,0,.11-.42.69.69,0,0,0-.11-.41A.36.36,0,0,0,95.32,58.66Z"/><path class="cls-5" d="M96.9,60a.63.63,0,0,1-.49-.19.81.81,0,0,1-.17-.54.8.8,0,0,1,.18-.56.62.62,0,0,1,.49-.2.76.76,0,0,1,.21,0,.5.5,0,0,1,.16,0l-.07.18-.15,0h-.15c-.3,0-.44.18-.44.55a.67.67,0,0,0,.1.41.4.4,0,0,0,.32.14.85.85,0,0,0,.37-.08v.2A.8.8,0,0,1,96.9,60Z"/><path class="cls-5" d="M97.58,58.11a.12.12,0,0,1,0-.11.12.12,0,0,1,.09,0,.16.16,0,0,1,.09,0,.17.17,0,0,1,0,.22.18.18,0,0,1-.09,0,.13.13,0,0,1-.09,0A.12.12,0,0,1,97.58,58.11Zm.24,1.82H97.6V58.5h.22Z"/><path class="cls-5" d="M99.52,59.22a.77.77,0,0,1-.18.54.6.6,0,0,1-.49.2.64.64,0,0,1-.34-.09.58.58,0,0,1-.23-.26.93.93,0,0,1-.08-.39.82.82,0,0,1,.17-.55.63.63,0,0,1,.49-.2.63.63,0,0,1,.48.2A.81.81,0,0,1,99.52,59.22Zm-1.1,0a.67.67,0,0,0,.11.41.4.4,0,0,0,.33.15.39.39,0,0,0,.32-.14.66.66,0,0,0,.11-.42.62.62,0,0,0-.11-.42.39.39,0,0,0-.33-.14.36.36,0,0,0-.32.14A.68.68,0,0,0,98.42,59.22Zm.25-.94a1.73,1.73,0,0,0,.14-.2l.12-.2h.26v0l-.17.21-.2.19h-.15Z"/><path class="cls-5" d="M100.88,59.93V59a.41.41,0,0,0-.08-.27.36.36,0,0,0-.25-.08.42.42,0,0,0-.33.12.6.6,0,0,0-.1.4v.75H99.9V58.5h.18l0,.2h0a.52.52,0,0,1,.19-.17.6.6,0,0,1,.27-.06.53.53,0,0,1,.39.13.55.55,0,0,1,.13.4v.93Z"/><path class="cls-3" d="M63.4,48.78a3,3,0,0,1-1,2.44,4.31,4.31,0,0,1-2.84.84h-.9v3.52h-2.1V45.69h3.16a4.2,4.2,0,0,1,2.74.78A2.82,2.82,0,0,1,63.4,48.78Zm-4.73,1.57h.69A2.28,2.28,0,0,0,60.81,50a1.32,1.32,0,0,0,.48-1.11,1.38,1.38,0,0,0-.41-1.09,1.9,1.9,0,0,0-1.26-.35h-.95Z"/><path class="cls-3" d="M84.3,55.58H81.64L77.33,48.1h-.06c.09,1.32.13,2.26.13,2.83v4.65H75.53V45.69h2.64l4.3,7.41h0c-.07-1.29-.11-2.2-.11-2.73V45.69H84.3Z"/><path class="cls-5" d="M66.72,55.74V53.87a8.75,8.75,0,0,0,2.84-.16,2.71,2.71,0,0,0,2-2.32,4.82,4.82,0,0,0-.07-2.07,2.71,2.71,0,0,0-2.26-2,5,5,0,0,0-1-.09H63.83V45.5H68a7,7,0,0,1,2.44.4A4,4,0,0,1,73,48.6a6.88,6.88,0,0,1,0,4.21,4,4,0,0,1-3,2.72A13.68,13.68,0,0,1,66.72,55.74Z"/><path class="cls-5" d="M66.74,50.3c0-.44,0-.89,0-1.34,0-.11,0-.15.15-.14.45,0,1.15,0,1.6.06a1.21,1.21,0,0,1,1.14,1.35,1.53,1.53,0,0,1-.41,1.15,1.58,1.58,0,0,1-1,.4c-.36,0-1,0-1.32,0-.11,0-.13,0-.13-.14C66.75,51.2,66.74,50.75,66.74,50.3Z"/></svg>