<svg id="Capa_1" data-name="Capa 1" xmlns="http://www.w3.org/2000/svg" viewBox="0 0 162 93.83"><defs><style>.cls-1{fill:none;stroke:#7bc082;stroke-miterlimit:10;}.cls-2{fill:#37464f;}.cls-3{fill:#fff;}.cls-4{fill:#7bc082;}.cls-5{fill:#96cb99;}</style></defs><title>Mesa de trabajo 7</title><circle class="cls-1" cx="72.23" cy="55.21" r="35.65"/><circle class="cls-2" cx="37.92" cy="45.24" r="10.48"/><path class="cls-3" d="M32,51.35V38.68H44.18c0,.3,0,.6,0,.9V51c0,.11,0,.22,0,.33H32Zm5.82-.62V48.41l-.63.65-.06,0c0-.23,0-.51.08-.66a8.58,8.58,0,0,1,.87-1,9.33,9.33,0,0,0,.74.78c.3.25.2.55.15.87l-.63-.64v2.31h4.93l-3-3.09-.07,0v.89c-.26-.24-.51-.4-.47-.79s0-.69,0-1.06a8.76,8.76,0,0,0,1,0c.38,0,.52.24.76.5h-.86l2.9,3.09v-5H41.4l0,.07.64.58L42,46c-.21,0-.48.06-.62,0a10.75,10.75,0,0,1-.94-1,7,7,0,0,0,.72-.72c.25-.32.54-.23.9-.22l-.66.71h2.22v-5l-3,3.08h.89c-.14.2-.29.43-.47.45a8.76,8.76,0,0,1-1.26,0V42.18a.72.72,0,0,1,.48-.68v.86l2.94-3H38.35v2.27l.09.08L39,41c0,.24.09.51,0,.66a9,9,0,0,1-.89,1,9.44,9.44,0,0,0-.75-.78c-.3-.25-.17-.55-.19-.9l.67.66V39.31H33.07l2.91,3v-.86l.05,0c.14.16.37.31.39.49a10.06,10.06,0,0,1,0,1.35,7.49,7.49,0,0,0-.95,0c-.39.06-.58-.19-.82-.49h.93l-3-3.1v5H34.8l.07-.1L34.2,44c.24,0,.51-.05.65.06a11.71,11.71,0,0,1,.92.94l-.75.77a.69.69,0,0,1-.81.15l.6-.66h-2.2v4.91l3-3h-.86l0-.05c.16-.14.31-.37.48-.4a9.19,9.19,0,0,1,1.29,0v1.18a.7.7,0,0,1-.49.61V47.7l-3,3Z"/><circle class="cls-2" cx="71.38" cy="19.9" r="10.48"/><circle class="cls-2" cx="49.93" cy="82.94" r="10.48"/><circle class="cls-2" cx="98.03" cy="80.75" r="10.48"/><circle class="cls-2" cx="106.19" cy="42.54" r="10.48"/><path class="cls-3" d="M79.37,24.54c0,.31,0,.62,0,.93a.33.33,0,0,1-.27.34,9.55,9.55,0,0,1-3.65.31c-.58-.07-1.16-.2-1.74-.3a.39.39,0,0,1-.35-.45c0-.48,0-1,0-1.46a1.56,1.56,0,0,1,.95-1.52A4.59,4.59,0,0,1,76.63,22a4.05,4.05,0,0,1,1.81.43,1.48,1.48,0,0,1,.94,1.52C79.36,24.11,79.37,24.33,79.37,24.54Zm-.61.7v-.43a7.3,7.3,0,0,1,0-.81A1,1,0,0,0,78,22.89a4.5,4.5,0,0,0-2.24-.27,2.83,2.83,0,0,0-1.34.43.82.82,0,0,0-.43.76c0,.41,0,.82,0,1.23a.24.24,0,0,0,.22.27c.5.07,1,.17,1.51.22A8.55,8.55,0,0,0,78.76,25.24Z"/><path class="cls-3" d="M74.55,16.28v.93a.34.34,0,0,1-.28.36,10.14,10.14,0,0,1-3.15.35,9.18,9.18,0,0,1-2.27-.35.34.34,0,0,1-.29-.33c0-.64,0-1.27,0-1.91a1.45,1.45,0,0,1,1-1.24,4.9,4.9,0,0,1,4,0,1.47,1.47,0,0,1,1,1.55c0,.2,0,.4,0,.6Zm-.62-.13c0-.16,0-.32,0-.48a.88.88,0,0,0-.56-.94,4.47,4.47,0,0,0-.46-.19,4.64,4.64,0,0,0-2.19-.13,2.22,2.22,0,0,0-1.19.47.93.93,0,0,0-.31.54,13.62,13.62,0,0,0,0,1.43.24.24,0,0,0,.16.19,9.69,9.69,0,0,0,4.22.06c.28-.06.38-.17.34-.45A4.17,4.17,0,0,1,73.93,16.15Z"/><path class="cls-3" d="M63.75,24.49c0-.25,0-.49,0-.73a1.3,1.3,0,0,1,.65-1.2A4.19,4.19,0,0,1,67,22a4,4,0,0,1,1.83.44,1.52,1.52,0,0,1,.91,1.49c0,.5,0,1,0,1.5a.4.4,0,0,1-.35.44,9.31,9.31,0,0,1-3.6.29c-.58-.07-1.14-.2-1.72-.3a.34.34,0,0,1-.31-.4C63.76,25.11,63.75,24.8,63.75,24.49Zm5.35.75c0-.54,0-1.07,0-1.6a.72.72,0,0,0-.2-.41,1.67,1.67,0,0,0-.5-.33,4.26,4.26,0,0,0-2.26-.28,2.63,2.63,0,0,0-1.38.47.88.88,0,0,0-.36.5c0,.55,0,1.1,0,1.65A9,9,0,0,0,69.1,25.24Z"/><path class="cls-3" d="M77.76,20.14a1.37,1.37,0,0,1-1.36,1.37,1.39,1.39,0,1,1,0-2.78A1.38,1.38,0,0,1,77.76,20.14Zm-1.38-.77a.76.76,0,0,0,0,1.51.79.79,0,0,0,.75-.76A.76.76,0,0,0,76.38,19.37Z"/><path class="cls-3" d="M71.58,10.5a1.36,1.36,0,0,1,1.36,1.4,1.38,1.38,0,0,1-1.38,1.37,1.41,1.41,0,0,1-1.39-1.39A1.37,1.37,0,0,1,71.58,10.5Zm0,2.13a.75.75,0,0,0,.77-.76.77.77,0,0,0-.75-.75.73.73,0,0,0-.75.76A.71.71,0,0,0,71.55,12.63Z"/><path class="cls-3" d="M65.36,20.12a1.37,1.37,0,0,1,1.38-1.39,1.4,1.4,0,0,1,0,2.79A1.38,1.38,0,0,1,65.36,20.12Zm1.37-.75a.75.75,0,0,0-.75.74.75.75,0,1,0,.75-.74Z"/><path class="cls-3" d="M71.87,19.43c-.21.69.15,1.05.73,1.31.28.13.53.32.8.47s.34.31.24.49-.29.23-.56.07l-1.3-.8a.36.36,0,0,0-.43,0c-.44.28-.9.55-1.35.81-.24.15-.41.12-.51-.07s0-.35.2-.48l1.38-.82a.32.32,0,0,0,.18-.34c0-.43,0-.85,0-1.28,0-.28.11-.43.31-.43s.31.15.31.42Z"/><path class="cls-3" d="M95.12,74.18l.37.16a1.41,1.41,0,0,1,.81.86.25.25,0,0,0,.28.2l6.56,0c.35,0,.7,0,1,0a2.26,2.26,0,0,1,2,2,17.87,17.87,0,0,1,0,2.07,2.28,2.28,0,0,1-.78,1.6,1.57,1.57,0,0,1-1,.39h-.89c.1.11.17.18.23.26a.36.36,0,0,1,0,.5.34.34,0,0,1-.48,0c-.27-.27-.55-.55-.81-.83a.38.38,0,0,1,0-.56l.82-.79a.37.37,0,0,1,.48,0,.36.36,0,0,1,0,.5c-.06.08-.13.15-.2.23a1.38,1.38,0,0,0,1.93-1.14,10.2,10.2,0,0,0,0-2.14,1.57,1.57,0,0,0-1.58-1.39l-3.1,0-4.15,0a.39.39,0,0,0-.44.28,1.53,1.53,0,0,1-2.46.46,1.56,1.56,0,0,1,.62-2.55.55.55,0,0,0,.15-.08Zm.59,1.56a.85.85,0,0,0-.83-.87.87.87,0,0,0-.84.84.84.84,0,0,0,.84.86A.85.85,0,0,0,95.71,75.74Z"/><path class="cls-3" d="M91.22,82.71c.09-.21.16-.44.27-.64a2.15,2.15,0,0,1,2-1.27l5.31,0a.33.33,0,0,0,.38-.24,1.43,1.43,0,0,1,1.39-.92,1.51,1.51,0,0,1,1.1,2.56,1.52,1.52,0,0,1-2.53-.53c-.05-.16-.13-.19-.28-.19l-4.84,0a3.82,3.82,0,0,0-1,.08,1.54,1.54,0,0,0-1.15,1.5c0,.54,0,1.09,0,1.63a1.56,1.56,0,0,0,1.59,1.55h1.29l0-.07a1.5,1.5,0,0,1-.25-.19.33.33,0,0,1,0-.49.32.32,0,0,1,.49,0c.28.27.55.54.82.82a.36.36,0,0,1,0,.52l-.82.81a.36.36,0,0,1-.51,0,.37.37,0,0,1,0-.52,2.88,2.88,0,0,1,.23-.21l-.3,0-1.25,0a2.2,2.2,0,0,1-2-1.67,1.67,1.67,0,0,0-.08-.2V84.2c0-.26,0-.53,0-.79s0-.28,0-.42Zm9.37-.69a.84.84,0,0,0,0-1.68.86.86,0,0,0-.85.83A.88.88,0,0,0,100.59,82Z"/><path class="cls-3" d="M97.62,88.23a5.59,5.59,0,0,1-.65-.32A1.47,1.47,0,0,1,96.53,86,1.54,1.54,0,0,1,99,85.69a1.5,1.5,0,0,1-.71,2.46l-.21.08Zm.26-2.35a.84.84,0,0,0-.85.82.83.83,0,0,0,.82.86.84.84,0,0,0,0-1.68Z"/><path class="cls-3" d="M106,34.31h.25c.05,0,.09.1.14.14l1.3.86,2.89,1.93,1.58,1a.54.54,0,0,1,.27.49q0,.65,0,1.29c0,.27-.13.44-.32.44h-1.27a1,1,0,0,0,0,.12v6.5c0,.17,0,.21.16.21h1.22a.69.69,0,0,1,.2,0c.14,0,.21.19.21.4s-.06.37-.2.43a.69.69,0,0,1-.25,0h-12a.52.52,0,0,1-.52-.27v-.36a.52.52,0,0,1,.54-.26h1.31V40.51h-1.25c-.24,0-.35-.17-.35-.51V38.72a.53.53,0,0,1,.23-.52l2.19-1.44,3-2C105.57,34.64,105.78,34.47,106,34.31Zm-5.45,5.31h11a.85.85,0,0,0,.16,0,.18.18,0,0,0,.09-.1.54.54,0,0,0-.18-.6l-1.58-1-3.82-2.54a.22.22,0,0,0-.22,0l-.51.33-3,2-1.9,1.25a.35.35,0,0,0-.1.18C100.53,39.23,100.54,39.41,100.54,39.62Zm5.9,7.71h3.75V40.52h-3.75Zm-4.27-6.81a1.62,1.62,0,0,0,0,.18v6.41c0,.23.08.24.2.24,1.09,0,2.18,0,3.27,0,.17,0,.2-.08.2-.3,0-2.09,0-4.19,0-6.28a2.28,2.28,0,0,0,0-.26Z"/><path class="cls-3" d="M50.77,90.31a.59.59,0,0,1-.33-.68,5.83,5.83,0,0,1,.09-.84,1.1,1.1,0,0,1,1.12-.91,4.4,4.4,0,0,0,.73-.06,1.17,1.17,0,0,0,.93-1.21c0-.7,0-1.4,0-2.1,0-.44.13-.58.57-.59.25,0,.51,0,.77,0s.29-.09.16-.29a9.23,9.23,0,0,0-.63-.91,2,2,0,0,1-.39-1.07A5,5,0,0,0,48.3,77a4.93,4.93,0,0,0-3.77,2.29,4.73,4.73,0,0,0-.76,2.31,5,5,0,0,0,4,5.31,5.21,5.21,0,0,0,.55.08.14.14,0,0,0,.09,0c0-.2,0-.4,0-.6a.33.33,0,0,0-.1-.17l-1.79-1.8a.39.39,0,0,1-.09-.23c0-.25,0-.49,0-.74a.28.28,0,0,0-.1-.2,1,1,0,0,1-.26-1.54,1,1,0,0,1,1-.32.93.93,0,0,1,.7.56,1,1,0,0,1-.42,1.3s-.06,0-.07,0a1.37,1.37,0,0,0,.09.8l1.13,1.13v-1c0-1.34,0-2.68,0-4a.42.42,0,0,0-.2-.4,1,1,0,0,1-.33-1.15.92.92,0,0,1,1-.64.93.93,0,0,1,.92.73,1,1,0,0,1-.41,1.1.28.28,0,0,0-.14.28c0,1.08,0,2.16,0,3.24,0,.1,0,.2,0,.34a1.56,1.56,0,0,0,.17-.12c.28-.28.55-.57.85-.84a.65.65,0,0,0,.24-.55.52.52,0,0,0-.23-.49A1,1,0,0,1,50,80.51,1,1,0,0,1,51,80a1,1,0,0,1,.31,1.84.36.36,0,0,0-.11.2,3.37,3.37,0,0,0,0,.55A.53.53,0,0,1,51,83c-.57.56-1.13,1.12-1.68,1.69a.41.41,0,0,0-.11.28c0,.75,0,1.51,0,2.26a1.66,1.66,0,0,1,0,.32.38.38,0,0,1-.46.37,5.76,5.76,0,0,1-2.13-.41,5.84,5.84,0,0,1-3.35-3.36,11.43,11.43,0,0,1-.37-1.56.59.59,0,0,0,0-.08v-1c0-.21,0-.41.09-.61a6,6,0,0,1,4.59-4.73l.82-.16H49l.35,0a5.89,5.89,0,0,1,4,2.22,5.8,5.8,0,0,1,1.24,3,1.51,1.51,0,0,0,.25.89,5.15,5.15,0,0,1,1,1.57v.48c-.06.07-.11.17-.19.2a3.2,3.2,0,0,1-.7.28,4.65,4.65,0,0,1-.75.07v.58c0,.57,0,1.14-.06,1.71A1.64,1.64,0,0,1,53,88.62a5.32,5.32,0,0,1-1.05.15c-.35,0-.49.12-.57.46a1.93,1.93,0,0,0,0,.42.56.56,0,0,1-.41.66Z"/><path class="cls-4" d="M.45,46.36V41.65h.77v4.71Z"/><path class="cls-4" d="M5.38,46.36H4.62v-2.2a1,1,0,0,0-.15-.61.57.57,0,0,0-.48-.2.75.75,0,0,0-.65.29,1.7,1.7,0,0,0-.2.94v1.78H2.38V42.8H3l.1.47h0a1,1,0,0,1,.43-.4,1.41,1.41,0,0,1,.62-.13,1.08,1.08,0,0,1,1.09.55h0a1.09,1.09,0,0,1,.44-.41,1.39,1.39,0,0,1,.66-.14,1.19,1.19,0,0,1,.93.32,1.43,1.43,0,0,1,.29,1v2.32H6.87v-2.2a1,1,0,0,0-.15-.61.6.6,0,0,0-.49-.2.72.72,0,0,0-.64.28,1.37,1.37,0,0,0-.21.84Z"/><path class="cls-4" d="M10.49,46.42a1.26,1.26,0,0,1-1.05-.48h0c0,.3,0,.48,0,.54v1.46H8.68V42.8H9.3c0,.07,0,.22.1.48h0a1.19,1.19,0,0,1,1.06-.54,1.24,1.24,0,0,1,1,.48,2.15,2.15,0,0,1,.37,1.35,2.12,2.12,0,0,1-.38,1.36A1.23,1.23,0,0,1,10.49,46.42Zm-.18-3.07a.78.78,0,0,0-.66.27,1.33,1.33,0,0,0-.21.84v.11a1.61,1.61,0,0,0,.21.94.74.74,0,0,0,.67.29.66.66,0,0,0,.6-.32,1.57,1.57,0,0,0,.22-.91,1.63,1.63,0,0,0-.21-.91A.72.72,0,0,0,10.31,43.35Z"/><path class="cls-4" d="M15,46.36l-.15-.5h0a1.41,1.41,0,0,1-.52.45,1.76,1.76,0,0,1-.67.11,1.13,1.13,0,0,1-.82-.28,1.09,1.09,0,0,1-.29-.8.94.94,0,0,1,.41-.83,2.34,2.34,0,0,1,1.24-.31l.62,0V44a.73.73,0,0,0-.16-.51.67.67,0,0,0-.5-.17,1.82,1.82,0,0,0-.52.08c-.17.06-.33.12-.48.19L12.9,43a3.23,3.23,0,0,1,.64-.23,3,3,0,0,1,.65-.07,1.51,1.51,0,0,1,1,.29,1.17,1.17,0,0,1,.35.93v2.4Zm-1.13-.52a.89.89,0,0,0,.66-.23A.8.8,0,0,0,14.8,45v-.31l-.46,0a1.47,1.47,0,0,0-.77.18.54.54,0,0,0-.25.48.45.45,0,0,0,.15.37A.57.57,0,0,0,13.89,45.84Z"/><path class="cls-4" d="M18.05,46.42A1.54,1.54,0,0,1,16.82,46a2,2,0,0,1-.42-1.35,2,2,0,0,1,.44-1.38,1.64,1.64,0,0,1,1.27-.48,2.34,2.34,0,0,1,1,.2l-.22.61a2.39,2.39,0,0,0-.8-.18c-.61,0-.92.4-.92,1.22a1.49,1.49,0,0,0,.23.9.79.79,0,0,0,.67.3,1.91,1.91,0,0,0,1-.25v.66a1.43,1.43,0,0,1-.43.17A2.33,2.33,0,0,1,18.05,46.42Z"/><path class="cls-4" d="M21.2,45.81a1.82,1.82,0,0,0,.56-.09v.57a1.87,1.87,0,0,1-.33.1,2.73,2.73,0,0,1-.41,0c-.71,0-1.07-.38-1.07-1.13V43.37h-.49V43l.52-.28.26-.75h.47v.79h1v.57h-1v1.91a.54.54,0,0,0,.13.4A.48.48,0,0,0,21.2,45.81Z"/><path class="cls-4" d="M25.62,44.57a2,2,0,0,1-.44,1.36,1.61,1.61,0,0,1-1.25.49,1.69,1.69,0,0,1-.88-.22,1.49,1.49,0,0,1-.59-.65,2.17,2.17,0,0,1-.21-1,1.91,1.91,0,0,1,.45-1.35A1.61,1.61,0,0,1,24,42.74a1.55,1.55,0,0,1,1.22.49A1.92,1.92,0,0,1,25.62,44.57Zm-2.59,0c0,.82.31,1.23.91,1.23s.9-.41.9-1.23-.3-1.22-.9-1.22a.77.77,0,0,0-.69.32A1.54,1.54,0,0,0,23,44.57Z"/><path class="cls-4" d="M45.34.52V3.57a1.81,1.81,0,0,1-.23.91,1.49,1.49,0,0,1-.64.6,2.29,2.29,0,0,1-1,.21,1.9,1.9,0,0,1-1.36-.46,1.7,1.7,0,0,1-.48-1.28v-3h.77v3a1.2,1.2,0,0,0,.27.86,1.14,1.14,0,0,0,.83.27c.72,0,1.09-.38,1.09-1.14v-3Z"/><path class="cls-4" d="M48.85,4.21a.93.93,0,0,1-.38.8,1.79,1.79,0,0,1-1.09.28,2.64,2.64,0,0,1-1.14-.21V4.42a2.72,2.72,0,0,0,1.17.29c.46,0,.7-.14.7-.42A.33.33,0,0,0,48,4.07a.9.9,0,0,0-.25-.19,3.62,3.62,0,0,0-.5-.22,2.31,2.31,0,0,1-.83-.48.89.89,0,0,1-.22-.61.81.81,0,0,1,.37-.71,1.74,1.74,0,0,1,1-.26,2.83,2.83,0,0,1,1.19.26l-.24.57a2.67,2.67,0,0,0-1-.24c-.4,0-.6.11-.6.34a.32.32,0,0,0,.16.28,2.9,2.9,0,0,0,.68.32,4.29,4.29,0,0,1,.64.31,1,1,0,0,1,.29.33A.87.87,0,0,1,48.85,4.21Z"/><path class="cls-4" d="M52.82,3.44a2,2,0,0,1-.44,1.36,1.61,1.61,0,0,1-1.25.49,1.72,1.72,0,0,1-.88-.22,1.49,1.49,0,0,1-.59-.65,2.17,2.17,0,0,1-.21-1,1.9,1.9,0,0,1,.45-1.35,1.61,1.61,0,0,1,1.25-.49,1.56,1.56,0,0,1,1.22.5A1.92,1.92,0,0,1,52.82,3.44Zm-2.59,0c0,.82.31,1.23.91,1.23s.91-.41.91-1.23-.31-1.22-.91-1.22a.77.77,0,0,0-.69.32A1.54,1.54,0,0,0,50.23,3.44Z"/><path class="cls-4" d="M56.08,4.21a.91.91,0,0,1-.38.8,1.76,1.76,0,0,1-1.08.28,2.66,2.66,0,0,1-1.15-.21V4.42a2.72,2.72,0,0,0,1.17.29c.47,0,.7-.14.7-.42a.29.29,0,0,0-.08-.22A.77.77,0,0,0,55,3.88a3.42,3.42,0,0,0-.49-.22,2.22,2.22,0,0,1-.83-.48.85.85,0,0,1-.22-.61.79.79,0,0,1,.37-.71,1.72,1.72,0,0,1,1-.26A2.86,2.86,0,0,1,56,1.86l-.25.57a2.62,2.62,0,0,0-1-.24c-.4,0-.6.11-.6.34a.34.34,0,0,0,.16.28,2.9,2.9,0,0,0,.68.32,3.84,3.84,0,0,1,.64.31,1.15,1.15,0,0,1,.3.33A1,1,0,0,1,56.08,4.21Z"/><path class="cls-4" d="M58.07,1.67h.83l.72,2a3.78,3.78,0,0,1,.22.81h0A3.91,3.91,0,0,1,60,4.07c.05-.17.33-1,.82-2.4h.82l-1.53,4A1.43,1.43,0,0,1,58.7,6.81a2.63,2.63,0,0,1-.49,0v-.6a2.13,2.13,0,0,0,.39,0,.8.8,0,0,0,.77-.64l.13-.33Z"/><path class="cls-4" d="M67.86,5.23h-.94L64.6,1.48h0v.21c0,.4,0,.76,0,1.09V5.23h-.7V.52h.93l2.31,3.73h0s0-.23,0-.54,0-.55,0-.72V.52h.71Z"/><path class="cls-4" d="M70.57,5.29a1.71,1.71,0,0,1-1.29-.48,1.83,1.83,0,0,1-.47-1.34,2,2,0,0,1,.43-1.37,1.52,1.52,0,0,1,1.2-.5A1.49,1.49,0,0,1,71.55,2,1.66,1.66,0,0,1,72,3.21v.41H69.59a1.13,1.13,0,0,0,.28.79.94.94,0,0,0,.74.28,2.81,2.81,0,0,0,.59-.06,3.25,3.25,0,0,0,.58-.19v.61a2.31,2.31,0,0,1-.56.19A4.09,4.09,0,0,1,70.57,5.29Zm-.13-3.11a.75.75,0,0,0-.58.22,1.11,1.11,0,0,0-.26.67h1.61A1,1,0,0,0,71,2.4.72.72,0,0,0,70.44,2.18Z"/><path class="cls-4" d="M74.25,5.29A1.58,1.58,0,0,1,73,4.82a2,2,0,0,1-.42-1.35A2,2,0,0,1,73,2.09a1.62,1.62,0,0,1,1.27-.49,2.38,2.38,0,0,1,1,.21l-.23.61a2.46,2.46,0,0,0-.79-.19q-.93,0-.93,1.23a1.49,1.49,0,0,0,.23.9.81.81,0,0,0,.68.3,1.9,1.9,0,0,0,.95-.25v.66a1.33,1.33,0,0,1-.43.17A2.9,2.9,0,0,1,74.25,5.29Z"/><path class="cls-4" d="M77.63,5.29a1.71,1.71,0,0,1-1.29-.48,1.83,1.83,0,0,1-.47-1.34A2,2,0,0,1,76.3,2.1a1.52,1.52,0,0,1,1.2-.5A1.48,1.48,0,0,1,78.61,2,1.66,1.66,0,0,1,79,3.21v.41H76.65a1.13,1.13,0,0,0,.28.79.94.94,0,0,0,.74.28,2.81,2.81,0,0,0,.59-.06,3.25,3.25,0,0,0,.58-.19v.61a2.31,2.31,0,0,1-.56.19A4.09,4.09,0,0,1,77.63,5.29ZM77.5,2.18a.76.76,0,0,0-.58.22,1.11,1.11,0,0,0-.26.67h1.61a1,1,0,0,0-.21-.67A.72.72,0,0,0,77.5,2.18Z"/><path class="cls-4" d="M82.27,4.21a.93.93,0,0,1-.38.8,1.81,1.81,0,0,1-1.09.28,2.61,2.61,0,0,1-1.14-.21V4.42a2.72,2.72,0,0,0,1.17.29q.69,0,.69-.42a.32.32,0,0,0-.07-.22.83.83,0,0,0-.26-.19,3.42,3.42,0,0,0-.49-.22,2.22,2.22,0,0,1-.83-.48.85.85,0,0,1-.22-.61A.79.79,0,0,1,80,1.86a1.72,1.72,0,0,1,1-.26,2.83,2.83,0,0,1,1.19.26L82,2.43a2.58,2.58,0,0,0-1-.24c-.4,0-.6.11-.6.34a.33.33,0,0,0,.15.28,3.13,3.13,0,0,0,.68.32,3.48,3.48,0,0,1,.64.31.92.92,0,0,1,.3.33A.87.87,0,0,1,82.27,4.21Z"/><path class="cls-4" d="M83,.73a.46.46,0,0,1,.11-.32A.44.44,0,0,1,83.47.3a.45.45,0,0,1,.31.11.46.46,0,0,1,.11.32.42.42,0,0,1-.11.3.45.45,0,0,1-.31.11A.44.44,0,0,1,83.15,1,.42.42,0,0,1,83,.73Zm.8,4.5h-.76V1.67h.76Z"/><path class="cls-4" d="M86.12,5.29a1.25,1.25,0,0,1-1-.48,2.16,2.16,0,0,1-.37-1.36,2.2,2.2,0,0,1,.38-1.36,1.26,1.26,0,0,1,1-.49,1.23,1.23,0,0,1,1.06.52h0a5.51,5.51,0,0,1,0-.6V.22H88v5h-.6l-.13-.47h0A1.23,1.23,0,0,1,86.12,5.29Zm.2-.61A.83.83,0,0,0,87,4.42a1.31,1.31,0,0,0,.22-.85V3.46a1.58,1.58,0,0,0-.22-1,.82.82,0,0,0-.68-.28.72.72,0,0,0-.62.32,1.73,1.73,0,0,0-.21.93,1.62,1.62,0,0,0,.21.9A.7.7,0,0,0,86.32,4.68Z"/><path class="cls-4" d="M91.25,5.23l-.15-.5h0a1.36,1.36,0,0,1-.52.44,1.61,1.61,0,0,1-.67.12A1.13,1.13,0,0,1,89.07,5a1.05,1.05,0,0,1-.29-.8.91.91,0,0,1,.41-.83,2.31,2.31,0,0,1,1.24-.31l.62,0V2.86a.74.74,0,0,0-.16-.51.69.69,0,0,0-.5-.17,1.77,1.77,0,0,0-.52.08l-.49.19-.24-.54a2.93,2.93,0,0,1,.63-.23,3.11,3.11,0,0,1,.65-.08,1.53,1.53,0,0,1,1,.3,1.17,1.17,0,0,1,.35.93v2.4Zm-1.12-.52a.92.92,0,0,0,.66-.23A.81.81,0,0,0,91,3.84V3.53l-.46,0a1.54,1.54,0,0,0-.78.18.52.52,0,0,0-.24.48.48.48,0,0,0,.14.37A.61.61,0,0,0,90.13,4.71Z"/><path class="cls-4" d="M94.05,5.29a1.25,1.25,0,0,1-1-.48,2.16,2.16,0,0,1-.37-1.36A2.14,2.14,0,0,1,93,2.09a1.26,1.26,0,0,1,1-.49,1.24,1.24,0,0,1,1.07.52h0a3.77,3.77,0,0,1,0-.6V.22h.76v5h-.6l-.13-.47h0A1.23,1.23,0,0,1,94.05,5.29Zm.2-.61a.84.84,0,0,0,.68-.26,1.37,1.37,0,0,0,.22-.85V3.46a1.58,1.58,0,0,0-.22-1,.82.82,0,0,0-.68-.28.72.72,0,0,0-.62.32,1.73,1.73,0,0,0-.21.93,1.62,1.62,0,0,0,.21.9A.69.69,0,0,0,94.25,4.68Z"/><path class="cls-4" d="M98.51,5.29a1.74,1.74,0,0,1-1.3-.48,1.87,1.87,0,0,1-.47-1.34,2,2,0,0,1,.44-1.37A1.67,1.67,0,0,1,99.49,2a1.66,1.66,0,0,1,.4,1.18v.41H97.52a1.18,1.18,0,0,0,.28.79,1,1,0,0,0,.75.28,2.65,2.65,0,0,0,.58-.06,3.33,3.33,0,0,0,.59-.19v.61a2.47,2.47,0,0,1-.56.19A4.19,4.19,0,0,1,98.51,5.29Zm-.14-3.11a.78.78,0,0,0-.58.22,1.1,1.1,0,0,0-.25.67h1.61a1,1,0,0,0-.21-.67A.74.74,0,0,0,98.37,2.18Z"/><path class="cls-4" d="M103.14,4.21a.91.91,0,0,1-.38.8,1.76,1.76,0,0,1-1.08.28,2.66,2.66,0,0,1-1.15-.21V4.42a2.72,2.72,0,0,0,1.17.29c.47,0,.7-.14.7-.42a.29.29,0,0,0-.08-.22.77.77,0,0,0-.25-.19,3.42,3.42,0,0,0-.49-.22,2.22,2.22,0,0,1-.83-.48.85.85,0,0,1-.22-.61.79.79,0,0,1,.37-.71,1.72,1.72,0,0,1,1-.26,2.86,2.86,0,0,1,1.19.26l-.25.57a2.62,2.62,0,0,0-1-.24c-.4,0-.59.11-.59.34a.33.33,0,0,0,.15.28,2.9,2.9,0,0,0,.68.32,3.48,3.48,0,0,1,.64.31,1.15,1.15,0,0,1,.3.33A1,1,0,0,1,103.14,4.21Z"/><path class="cls-4" d="M119.37,38.79h1.73v2.36a5.31,5.31,0,0,1-.81.2,7.48,7.48,0,0,1-.85,0,2.14,2.14,0,0,1-1.65-.63,2.56,2.56,0,0,1-.58-1.78,2.37,2.37,0,0,1,.66-1.78,2.43,2.43,0,0,1,1.8-.64,3.45,3.45,0,0,1,1.39.28l-.27.64a2.78,2.78,0,0,0-1.14-.26,1.52,1.52,0,0,0-1.19.47A1.85,1.85,0,0,0,118,39a2,2,0,0,0,.39,1.32,1.47,1.47,0,0,0,1.14.44,3.92,3.92,0,0,0,.8-.09V39.45h-1Z"/><path class="cls-4" d="M125.31,39.55a2,2,0,0,1-.45,1.37,1.62,1.62,0,0,1-1.25.48,1.72,1.72,0,0,1-.88-.22,1.55,1.55,0,0,1-.59-.65,2.32,2.32,0,0,1-.2-1,2,2,0,0,1,.44-1.35,1.63,1.63,0,0,1,1.25-.48,1.58,1.58,0,0,1,1.23.49A1.92,1.92,0,0,1,125.31,39.55Zm-2.59,0c0,.83.3,1.24.91,1.24s.9-.41.9-1.24-.3-1.22-.91-1.22a.77.77,0,0,0-.69.32A1.62,1.62,0,0,0,122.72,39.55Z"/><path class="cls-4" d="M128,37.72a1.24,1.24,0,0,1,1,.48,2.15,2.15,0,0,1,.37,1.35,2.21,2.21,0,0,1-.37,1.37,1.39,1.39,0,0,1-2.1,0h-.05l-.14.42h-.56v-5h.75v1.19c0,.09,0,.22,0,.4s0,.28,0,.33h0A1.19,1.19,0,0,1,128,37.72Zm-.19.61a.76.76,0,0,0-.66.27,1.65,1.65,0,0,0-.21.9v0a1.67,1.67,0,0,0,.21,1,.78.78,0,0,0,.67.29.69.69,0,0,0,.61-.32,1.67,1.67,0,0,0,.21-.92C128.63,38.74,128.35,38.33,127.8,38.33Z"/><path class="cls-4" d="M131.84,41.4a1.72,1.72,0,0,1-1.3-.48,1.84,1.84,0,0,1-.47-1.33,2,2,0,0,1,.43-1.37,1.49,1.49,0,0,1,1.2-.5,1.47,1.47,0,0,1,1.11.42,1.66,1.66,0,0,1,.41,1.18v.41h-2.37a1.16,1.16,0,0,0,.28.8,1,1,0,0,0,.74.28,2.74,2.74,0,0,0,.59-.06,3.08,3.08,0,0,0,.58-.2v.61a2.31,2.31,0,0,1-.56.19A3.14,3.14,0,0,1,131.84,41.4Zm-.14-3.11a.78.78,0,0,0-.58.23,1.11,1.11,0,0,0-.26.66h1.62a1,1,0,0,0-.22-.66A.71.71,0,0,0,131.7,38.29Z"/><path class="cls-4" d="M135.88,37.72a1.94,1.94,0,0,1,.38,0l-.07.7a1.87,1.87,0,0,0-.34,0,.94.94,0,0,0-.73.29,1.07,1.07,0,0,0-.28.77v1.86h-.76V37.78h.59l.1.63h0a1.51,1.51,0,0,1,.46-.51A1.14,1.14,0,0,1,135.88,37.72Z"/><path class="cls-4" d="M140.05,41.34h-.76V39.15a1,1,0,0,0-.16-.61.64.64,0,0,0-.53-.21.84.84,0,0,0-.7.29,1.54,1.54,0,0,0-.22,1v1.77h-.76V37.78h.59l.11.47h0a1.1,1.1,0,0,1,.45-.4,1.59,1.59,0,0,1,.66-.13,1.14,1.14,0,0,1,1.28,1.3Z"/><path class="cls-4" d="M143.33,41.34l-.15-.5h0a1.47,1.47,0,0,1-.51.45,1.65,1.65,0,0,1-.67.11,1.12,1.12,0,0,1-.82-.28,1,1,0,0,1-.3-.8,1,1,0,0,1,.41-.83,2.35,2.35,0,0,1,1.25-.31h.61V39a.73.73,0,0,0-.16-.51.64.64,0,0,0-.49-.16,1.59,1.59,0,0,0-.53.08,3.19,3.19,0,0,0-.48.19l-.24-.54a2.5,2.5,0,0,1,.63-.24,3.07,3.07,0,0,1,.65-.07,1.62,1.62,0,0,1,1,.29,1.17,1.17,0,0,1,.34.93v2.4Zm-1.13-.51a.93.93,0,0,0,.67-.24.83.83,0,0,0,.24-.64v-.31l-.45,0a1.49,1.49,0,0,0-.78.18.55.55,0,0,0-.24.49.46.46,0,0,0,.14.36A.59.59,0,0,0,142.2,40.83Z"/><path class="cls-4" d="M148.06,41.34h-.76V39.15a.94.94,0,0,0-.17-.61.62.62,0,0,0-.52-.21.86.86,0,0,0-.71.29,1.62,1.62,0,0,0-.22,1v1.77h-.75V37.78h.59l.1.47h0a1.13,1.13,0,0,1,.46-.4,1.59,1.59,0,0,1,.66-.13,1.14,1.14,0,0,1,1.28,1.3Z"/><path class="cls-4" d="M151.49,41.34h-2.7v-.47l1.8-2.51H148.9v-.58h2.54v.53l-1.76,2.45h1.81Z"/><path class="cls-4" d="M154.49,41.34l-.15-.5h0a1.41,1.41,0,0,1-.52.45,1.62,1.62,0,0,1-.67.11,1.13,1.13,0,0,1-.82-.28,1.07,1.07,0,0,1-.29-.8,1,1,0,0,1,.41-.83,2.34,2.34,0,0,1,1.24-.31h.62V39a.78.78,0,0,0-.16-.51.67.67,0,0,0-.5-.16,1.53,1.53,0,0,0-.52.08,2.53,2.53,0,0,0-.48.19l-.25-.54a2.73,2.73,0,0,1,.64-.24,3,3,0,0,1,.65-.07,1.57,1.57,0,0,1,1,.29,1.17,1.17,0,0,1,.35.93v2.4Zm-1.13-.51a.91.91,0,0,0,.66-.24.8.8,0,0,0,.25-.64v-.31l-.46,0a1.47,1.47,0,0,0-.77.18.56.56,0,0,0-.25.49.43.43,0,0,0,.15.36A.57.57,0,0,0,153.36,40.83Z"/><path class="cls-4" d="M157.25,37.78h.83l.72,2a4.12,4.12,0,0,1,.22.81h0a3.6,3.6,0,0,1,.1-.43c0-.17.33-1,.82-2.4h.82l-1.52,4a1.45,1.45,0,0,1-1.39,1.11,2.63,2.63,0,0,1-.49-.05v-.6a1.61,1.61,0,0,0,.39,0,.79.79,0,0,0,.77-.64l.13-.33Z"/><path class="cls-4" d="M122.21,49.25h-.94L119,45.5h0l0,.21c0,.4,0,.76,0,1.09v2.45h-.7V44.54h.94l2.3,3.73h0c0-.05,0-.23,0-.54s0-.55,0-.72V44.54h.7Z"/><path class="cls-4" d="M126.53,47.46a2,2,0,0,1-.44,1.36,1.61,1.61,0,0,1-1.25.49,1.69,1.69,0,0,1-.88-.22,1.49,1.49,0,0,1-.59-.65,2.17,2.17,0,0,1-.21-1,1.9,1.9,0,0,1,.45-1.35,1.61,1.61,0,0,1,1.25-.48,1.57,1.57,0,0,1,1.22.49A1.92,1.92,0,0,1,126.53,47.46Zm-2.59,0c0,.82.31,1.23.91,1.23s.9-.41.9-1.23-.3-1.22-.9-1.22a.77.77,0,0,0-.69.32A1.54,1.54,0,0,0,123.94,47.46Z"/><path class="cls-4" d="M129.21,45.63a1.9,1.9,0,0,1,.37,0l-.07.7a1.86,1.86,0,0,0-.34,0,1,1,0,0,0-.73.3,1.06,1.06,0,0,0-.28.77v1.86h-.76V45.69H128l.1.63h0a1.42,1.42,0,0,1,.46-.51A1.15,1.15,0,0,1,129.21,45.63Z"/><path class="cls-4" d="M133.24,49.25h-.76v-2.2a1,1,0,0,0-.15-.61.6.6,0,0,0-.49-.2.74.74,0,0,0-.64.29,1.7,1.7,0,0,0-.2.94v1.78h-.76V45.69h.59l.11.47h0a1,1,0,0,1,.43-.4,1.41,1.41,0,0,1,.62-.13,1.08,1.08,0,0,1,1.09.55h0a1.09,1.09,0,0,1,.44-.41,1.39,1.39,0,0,1,.66-.14,1.19,1.19,0,0,1,.93.32,1.43,1.43,0,0,1,.29,1v2.32h-.76v-2.2a1,1,0,0,0-.15-.61.6.6,0,0,0-.49-.2.72.72,0,0,0-.64.28,1.37,1.37,0,0,0-.21.84Z"/><path class="cls-4" d="M138.77,49.25l-.15-.5h0a1.41,1.41,0,0,1-.52.45,1.76,1.76,0,0,1-.67.11,1.11,1.11,0,0,1-.81-.28,1.06,1.06,0,0,1-.3-.8.94.94,0,0,1,.41-.83,2.35,2.35,0,0,1,1.25-.31l.61,0v-.19a.73.73,0,0,0-.16-.51.66.66,0,0,0-.49-.17,1.84,1.84,0,0,0-.53.08c-.16.06-.33.12-.48.19l-.24-.54a2.93,2.93,0,0,1,.63-.23,3.07,3.07,0,0,1,.65-.07,1.51,1.51,0,0,1,1,.29,1.17,1.17,0,0,1,.35.93v2.4Zm-1.13-.52a.89.89,0,0,0,.66-.23.81.81,0,0,0,.25-.64v-.31l-.45,0a1.49,1.49,0,0,0-.78.18.53.53,0,0,0-.24.48.45.45,0,0,0,.14.37A.57.57,0,0,0,137.64,48.73Z"/><path class="cls-4" d="M141.69,48.7a1.71,1.71,0,0,0,.55-.09v.57a1.52,1.52,0,0,1-.32.1,2.73,2.73,0,0,1-.41,0c-.72,0-1.07-.38-1.07-1.13V46.26H140v-.33l.52-.28.26-.75h.47v.79h1v.57h-1v1.91a.54.54,0,0,0,.13.4A.48.48,0,0,0,141.69,48.7Z"/><path class="cls-4" d="M142.91,44.75a.37.37,0,0,1,.43-.42.43.43,0,0,1,.31.1.46.46,0,0,1,.11.32.41.41,0,0,1-.11.3.43.43,0,0,1-.31.11.46.46,0,0,1-.32-.11A.41.41,0,0,1,142.91,44.75Zm.8,4.5H143V45.69h.75Z"/><path class="cls-4" d="M145.6,49.25l-1.35-3.56h.8l.72,2.07a4.18,4.18,0,0,1,.23.84h0a5.85,5.85,0,0,1,.22-.84l.72-2.07h.81l-1.36,3.56Z"/><path class="cls-4" d="M148.28,44.75a.42.42,0,0,1,.11-.32.43.43,0,0,1,.31-.1.37.37,0,0,1,.42.42.37.37,0,0,1-.11.3.42.42,0,0,1-.31.11.43.43,0,0,1-.31-.11A.37.37,0,0,1,148.28,44.75Zm.8,4.5h-.76V45.69h.76Z"/><path class="cls-4" d="M151.36,49.31a1.24,1.24,0,0,1-1-.48,2.16,2.16,0,0,1-.38-1.36,2.2,2.2,0,0,1,.38-1.36,1.27,1.27,0,0,1,1.05-.48,1.24,1.24,0,0,1,1.07.51h0a4,4,0,0,1-.06-.6v-1.3h.76v5h-.59l-.13-.47h0A1.18,1.18,0,0,1,151.36,49.31Zm.2-.61a.84.84,0,0,0,.68-.26,1.44,1.44,0,0,0,.22-.85v-.11a1.52,1.52,0,0,0-.22-.95.83.83,0,0,0-.69-.29.69.69,0,0,0-.61.33,1.66,1.66,0,0,0-.22.92,1.62,1.62,0,0,0,.21.9A.7.7,0,0,0,151.56,48.7Z"/><path class="cls-4" d="M156.49,49.25l-.15-.5h0a1.47,1.47,0,0,1-.51.45,1.84,1.84,0,0,1-.67.11,1.12,1.12,0,0,1-.82-.28,1.06,1.06,0,0,1-.3-.8.94.94,0,0,1,.41-.83,2.35,2.35,0,0,1,1.25-.31l.61,0v-.19a.73.73,0,0,0-.16-.51.65.65,0,0,0-.49-.17,1.89,1.89,0,0,0-.53.08l-.48.19-.24-.54a2.93,2.93,0,0,1,.63-.23,3.07,3.07,0,0,1,.65-.07,1.51,1.51,0,0,1,1,.29,1.14,1.14,0,0,1,.35.93v2.4Zm-1.13-.52a.93.93,0,0,0,.67-.23.84.84,0,0,0,.24-.64v-.31l-.45,0a1.49,1.49,0,0,0-.78.18.53.53,0,0,0-.24.48.45.45,0,0,0,.14.37A.57.57,0,0,0,155.36,48.73Z"/><path class="cls-4" d="M159.29,49.31a1.24,1.24,0,0,1-1-.48,2.16,2.16,0,0,1-.38-1.36,2.2,2.2,0,0,1,.38-1.36,1.26,1.26,0,0,1,1.05-.48,1.24,1.24,0,0,1,1.07.51h0a4,4,0,0,1-.06-.6v-1.3h.76v5h-.59l-.13-.47h0A1.19,1.19,0,0,1,159.29,49.31Zm.2-.61a.84.84,0,0,0,.68-.26,1.44,1.44,0,0,0,.22-.85v-.11a1.59,1.59,0,0,0-.22-.95.83.83,0,0,0-.69-.29.69.69,0,0,0-.61.33,1.58,1.58,0,0,0-.22.92,1.62,1.62,0,0,0,.21.9A.7.7,0,0,0,159.49,48.7Z"/><path class="cls-4" d="M114.4,83.42a2.38,2.38,0,0,1-.64,1.79,2.62,2.62,0,0,1-1.87.61h-1.31v-4.7H112a2.43,2.43,0,0,1,1.75.6A2.25,2.25,0,0,1,114.4,83.42Zm-.81,0c0-1.13-.52-1.69-1.58-1.69h-.66v3.41h.54A1.51,1.51,0,0,0,113.59,83.45Z"/><path class="cls-4" d="M117.56,85.82l-.15-.49h0a1.54,1.54,0,0,1-.51.44,1.64,1.64,0,0,1-.67.12,1.12,1.12,0,0,1-.82-.29,1,1,0,0,1-.3-.8,1,1,0,0,1,.41-.83,2.27,2.27,0,0,1,1.25-.3l.61,0v-.19a.69.69,0,0,0-.16-.51.61.61,0,0,0-.49-.17,1.59,1.59,0,0,0-.53.08,3.19,3.19,0,0,0-.48.19l-.24-.54a2.48,2.48,0,0,1,.63-.23,2.56,2.56,0,0,1,.65-.08,1.62,1.62,0,0,1,1,.29,1.17,1.17,0,0,1,.34.93v2.4Zm-1.13-.51a1,1,0,0,0,.67-.23.87.87,0,0,0,.24-.65v-.31l-.45,0a1.49,1.49,0,0,0-.78.18.55.55,0,0,0-.24.49.5.5,0,0,0,.14.37A.64.64,0,0,0,116.43,85.31Z"/><path class="cls-4" d="M120.48,85.27a1.81,1.81,0,0,0,.56-.08v.57l-.33.09a2.71,2.71,0,0,1-.41,0c-.71,0-1.07-.38-1.07-1.14V82.83h-.49V82.5l.52-.28.26-.75H120v.79h1v.57h-1v1.91a.52.52,0,0,0,.13.4A.48.48,0,0,0,120.48,85.27Z"/><path class="cls-4" d="M124.9,84a2,2,0,0,1-.44,1.36,1.64,1.64,0,0,1-1.25.49,1.7,1.7,0,0,1-.88-.23,1.49,1.49,0,0,1-.59-.65,2.13,2.13,0,0,1-.21-1,1.94,1.94,0,0,1,.45-1.36,1.61,1.61,0,0,1,1.25-.48,1.53,1.53,0,0,1,1.22.5A1.91,1.91,0,0,1,124.9,84Zm-2.59,0c0,.82.31,1.23.91,1.23s.9-.41.9-1.23-.3-1.22-.9-1.22a.76.76,0,0,0-.69.31A1.55,1.55,0,0,0,122.31,84Z"/><path class="cls-4" d="M128.16,84.81a.92.92,0,0,1-.38.8,1.83,1.83,0,0,1-1.08.28,2.64,2.64,0,0,1-1.15-.22V85a2.87,2.87,0,0,0,1.17.29c.47,0,.7-.14.7-.43a.33.33,0,0,0-.08-.22.94.94,0,0,0-.25-.19l-.49-.22a2.24,2.24,0,0,1-.84-.47.91.91,0,0,1-.21-.62.81.81,0,0,1,.37-.71,1.72,1.72,0,0,1,1-.25,2.86,2.86,0,0,1,1.19.25l-.25.57a2.62,2.62,0,0,0-1-.24c-.4,0-.6.12-.6.35a.36.36,0,0,0,.16.28,3.39,3.39,0,0,0,.68.32,2.72,2.72,0,0,1,.64.31.94.94,0,0,1,.3.33A1,1,0,0,1,128.16,84.81Z"/><path class="cls-4" d="M6.05,86.48H5.28v-4H3.89v-.66H7.43v.66H6.05Z"/><path class="cls-4" d="M9.62,86.55a1.72,1.72,0,0,1-1.3-.49,1.82,1.82,0,0,1-.46-1.33,2,2,0,0,1,.43-1.37,1.52,1.52,0,0,1,1.2-.5,1.45,1.45,0,0,1,1.11.43A1.64,1.64,0,0,1,11,84.47v.4H8.64a1.14,1.14,0,0,0,.28.8.94.94,0,0,0,.74.28,2.81,2.81,0,0,0,.59-.06,3.34,3.34,0,0,0,.58-.2v.62a2.29,2.29,0,0,1-.56.18A3.13,3.13,0,0,1,9.62,86.55Zm-.13-3.12a.75.75,0,0,0-.58.23,1.08,1.08,0,0,0-.26.67h1.61a.94.94,0,0,0-.21-.67A.72.72,0,0,0,9.49,83.43Z"/><path class="cls-4" d="M13.3,86.55a1.58,1.58,0,0,1-1.23-.47,2,2,0,0,1-.42-1.36,2,2,0,0,1,.44-1.38,1.65,1.65,0,0,1,1.27-.48,2.38,2.38,0,0,1,1,.21l-.23.61a2.22,2.22,0,0,0-.79-.19q-.93,0-.93,1.23a1.49,1.49,0,0,0,.23.9.81.81,0,0,0,.68.3,2,2,0,0,0,.95-.25v.66a1.61,1.61,0,0,1-.43.17A2.9,2.9,0,0,1,13.3,86.55Z"/><path class="cls-4" d="M18.26,86.48H17.5V84.29a1,1,0,0,0-.16-.61.68.68,0,0,0-.53-.2.83.83,0,0,0-.7.28,1.56,1.56,0,0,0-.22.95v1.77h-.76V82.92h.59l.11.47h0a1,1,0,0,1,.45-.39,1.59,1.59,0,0,1,.66-.14,1.14,1.14,0,0,1,1.28,1.3Z"/><path class="cls-4" d="M22.47,84.7A1.94,1.94,0,0,1,22,86.06a1.62,1.62,0,0,1-1.24.49,1.73,1.73,0,0,1-.89-.23,1.44,1.44,0,0,1-.58-.64,2.21,2.21,0,0,1-.21-1,1.94,1.94,0,0,1,.44-1.35,1.61,1.61,0,0,1,1.26-.49,1.58,1.58,0,0,1,1.22.5A1.92,1.92,0,0,1,22.47,84.7Zm-2.59,0c0,.82.3,1.23.91,1.23s.9-.41.9-1.23-.3-1.22-.91-1.22a.79.79,0,0,0-.69.31A1.63,1.63,0,0,0,19.88,84.7Z"/><path class="cls-4" d="M24.09,86.48h-.75v-5h.75Z"/><path class="cls-4" d="M28.33,84.7a1.94,1.94,0,0,1-.45,1.36,1.6,1.6,0,0,1-1.24.49,1.7,1.7,0,0,1-.88-.23,1.47,1.47,0,0,1-.59-.64,2.21,2.21,0,0,1-.21-1,1.9,1.9,0,0,1,.45-1.35,1.79,1.79,0,0,1,2.47,0A1.92,1.92,0,0,1,28.33,84.7Zm-2.59,0c0,.82.31,1.23.91,1.23s.9-.41.9-1.23-.3-1.22-.9-1.22a.76.76,0,0,0-.69.31A1.55,1.55,0,0,0,25.74,84.7Z"/><path class="cls-4" d="M32.21,82.92v.42l-.61.11a1.46,1.46,0,0,1,.14.28,1.29,1.29,0,0,1,.05.35,1.07,1.07,0,0,1-.38.86,1.58,1.58,0,0,1-1,.32,1.42,1.42,0,0,1-.31,0,.42.42,0,0,0-.25.36.19.19,0,0,0,.12.18,1,1,0,0,0,.42.06H31a1.35,1.35,0,0,1,.89.25.88.88,0,0,1,.31.73,1.06,1.06,0,0,1-.5.93,2.6,2.6,0,0,1-1.44.33,2,2,0,0,1-1.11-.26.83.83,0,0,1-.39-.73.79.79,0,0,1,.21-.56,1.2,1.2,0,0,1,.58-.31.6.6,0,0,1-.25-.2.6.6,0,0,1-.1-.3.49.49,0,0,1,.12-.34,1.05,1.05,0,0,1,.33-.28,1.1,1.1,0,0,1-.45-.38,1.19,1.19,0,0,1-.17-.63,1.11,1.11,0,0,1,.37-.9,1.54,1.54,0,0,1,1-.32l.31,0,.25,0ZM29.41,87a.4.4,0,0,0,.22.37,1.19,1.19,0,0,0,.62.13,1.86,1.86,0,0,0,.92-.17.54.54,0,0,0,.3-.47.34.34,0,0,0-.16-.33,1.28,1.28,0,0,0-.62-.1h-.57a.82.82,0,0,0-.52.15A.51.51,0,0,0,29.41,87Zm.32-3a.69.69,0,0,0,.18.51.64.64,0,0,0,.49.18c.44,0,.66-.23.66-.7a.81.81,0,0,0-.17-.54.61.61,0,0,0-.49-.18.67.67,0,0,0-.5.18A.82.82,0,0,0,29.73,84.08Z"/><path class="cls-4" d="M32.83,82.49v-.08c.12-.15.25-.32.37-.5a4.64,4.64,0,0,0,.31-.48h.88v.07c-.11.13-.28.3-.5.51a5.89,5.89,0,0,1-.56.48Zm.79,4h-.75V82.92h.75Z"/><path class="cls-4" d="M36.93,86.48,36.78,86h0a1.47,1.47,0,0,1-.52.44,1.56,1.56,0,0,1-.66.12,1.12,1.12,0,0,1-.82-.29,1,1,0,0,1-.3-.8,1,1,0,0,1,.41-.83,2.36,2.36,0,0,1,1.25-.3l.61,0v-.19a.69.69,0,0,0-.16-.51.66.66,0,0,0-.49-.17,1.84,1.84,0,0,0-.53.08,4,4,0,0,0-.48.19l-.24-.54a2.48,2.48,0,0,1,.63-.23,3.11,3.11,0,0,1,.65-.08,1.51,1.51,0,0,1,1,.3,1.14,1.14,0,0,1,.35.93v2.39ZM35.8,86a.93.93,0,0,0,.66-.23.84.84,0,0,0,.25-.65v-.31l-.45,0a1.71,1.71,0,0,0-.78.18.55.55,0,0,0-.24.49.46.46,0,0,0,.14.37A.62.62,0,0,0,35.8,86Z"/><path class="cls-3" d="M58.17,49.11a3.31,3.31,0,0,1-1.09,2.68,4.71,4.71,0,0,1-3.11.92H53v3.85h-2.3V45.74h3.46a4.6,4.6,0,0,1,3,.85A3.07,3.07,0,0,1,58.17,49.11ZM53,50.83h.75a2.52,2.52,0,0,0,1.59-.42,1.45,1.45,0,0,0,.52-1.21,1.5,1.5,0,0,0-.44-1.2A2.09,2.09,0,0,0,54,47.62H53Z"/><path class="cls-3" d="M81,56.56H78.12l-4.71-8.19h-.06c.09,1.45.14,2.48.14,3.1v5.09h-2V45.74h2.89l4.7,8.1h0c-.07-1.4-.11-2.4-.11-3V45.74H81Z"/><path class="cls-5" d="M61.63,56.74v-2a15.14,15.14,0,0,0,3.69-.18A3,3,0,0,0,67.56,52a5.16,5.16,0,0,0-.08-2.28A2.93,2.93,0,0,0,65,47.47a6.1,6.1,0,0,0-1.13-.11H59.05V45.53h4.57a7.6,7.6,0,0,1,2.67.44,4.32,4.32,0,0,1,2.75,3A7.56,7.56,0,0,1,69,53.53a4.41,4.41,0,0,1-3.29,3A20.94,20.94,0,0,1,61.63,56.74Z"/><path class="cls-5" d="M62.75,50.78c0-.49,0-1,0-1.46,0-.12,0-.17.16-.16.5,0,1,0,1.49.07a1.31,1.31,0,0,1,1.25,1.47A1.63,1.63,0,0,1,65.2,52a1.72,1.72,0,0,1-1.12.45c-.39,0-.79,0-1.19,0-.11,0-.14,0-.14-.15C62.76,51.77,62.75,51.28,62.75,50.78Z"/><path class="cls-5" d="M51.22,61.36V59.24h.25v2.12Z"/><path class="cls-5" d="M53.1,61.36v-1A.4.4,0,0,0,53,60a.38.38,0,0,0-.28-.1.44.44,0,0,0-.36.14.66.66,0,0,0-.12.44v.84H52V59.77h.2l0,.22h0a.61.61,0,0,1,.2-.19.73.73,0,0,1,.3-.06.6.6,0,0,1,.43.14.57.57,0,0,1,.15.44v1Z"/><path class="cls-5" d="M54.35,61.19h.12l.09,0v.18a.23.23,0,0,1-.11,0h-.14c-.31,0-.46-.16-.46-.49V60h-.23v-.12l.23-.1.1-.34h.14v.37h.46V60h-.46v.93a.29.29,0,0,0,.07.22A.26.26,0,0,0,54.35,61.19Z"/><path class="cls-5" d="M55.55,61.39a.69.69,0,0,1-.55-.22.8.8,0,0,1-.21-.59A1,1,0,0,1,55,60a.65.65,0,0,1,.51-.23.59.59,0,0,1,.47.2.73.73,0,0,1,.18.52v.15H55a.64.64,0,0,0,.14.42.49.49,0,0,0,.38.15,1.34,1.34,0,0,0,.51-.11v.21a1,1,0,0,1-.24.08A1.14,1.14,0,0,1,55.55,61.39Zm-.06-1.45a.39.39,0,0,0-.31.13.56.56,0,0,0-.13.34h.83a.52.52,0,0,0-.1-.35A.37.37,0,0,0,55.49,59.94Z"/><path class="cls-5" d="M56.79,61.36h-.24V59.1h.24Z"/><path class="cls-5" d="M57.28,59.34c0-.06,0-.1,0-.12a.15.15,0,0,1,.2,0s0,.06,0,.12a.16.16,0,0,1,0,.12.14.14,0,0,1-.2,0A.16.16,0,0,1,57.28,59.34Zm.26,2H57.3V59.77h.24Z"/><path class="cls-5" d="M59.35,59.77v.15l-.29,0a.5.5,0,0,1,.07.13.52.52,0,0,1,0,.18.48.48,0,0,1-.16.38.64.64,0,0,1-.44.14l-.13,0a.25.25,0,0,0-.15.21.11.11,0,0,0,0,.1.42.42,0,0,0,.18,0h.29a.63.63,0,0,1,.39.1.4.4,0,0,1,.14.32.44.44,0,0,1-.21.4,1.08,1.08,0,0,1-.62.14A.9.9,0,0,1,58,62a.39.39,0,0,1-.17-.33.37.37,0,0,1,.09-.25.55.55,0,0,1,.27-.15.18.18,0,0,1-.11-.08.33.33,0,0,1,0-.14.27.27,0,0,1,0-.15.58.58,0,0,1,.14-.12.57.57,0,0,1-.2-.18.51.51,0,0,1-.07-.28.54.54,0,0,1,.15-.4.69.69,0,0,1,.45-.14.78.78,0,0,1,.22,0Zm-1.27,1.86a.21.21,0,0,0,.11.19.55.55,0,0,0,.31.07A.84.84,0,0,0,59,61.8a.29.29,0,0,0,.15-.25.21.21,0,0,0-.08-.18.64.64,0,0,0-.3,0h-.29a.42.42,0,0,0-.26.08A.29.29,0,0,0,58.08,61.63Zm.13-1.35a.34.34,0,0,0,.1.25.36.36,0,0,0,.26.09.31.31,0,0,0,.35-.35.31.31,0,0,0-.35-.35.34.34,0,0,0-.26.09A.33.33,0,0,0,58.21,60.28Z"/><path class="cls-5" d="M60.35,61.39a.72.72,0,0,1-.56-.22.84.84,0,0,1-.2-.59.89.89,0,0,1,.19-.61.62.62,0,0,1,.51-.23.6.6,0,0,1,.47.2.73.73,0,0,1,.17.52v.15H59.84A.59.59,0,0,0,60,61a.48.48,0,0,0,.38.15,1.25,1.25,0,0,0,.5-.11v.21a.75.75,0,0,1-.24.08A1,1,0,0,1,60.35,61.39Zm-.07-1.45a.37.37,0,0,0-.3.13.56.56,0,0,0-.14.34h.83a.52.52,0,0,0-.1-.35A.34.34,0,0,0,60.28,59.94Z"/><path class="cls-5" d="M62.43,61.36v-1a.4.4,0,0,0-.09-.29.37.37,0,0,0-.27-.1.47.47,0,0,0-.37.14.66.66,0,0,0-.12.44v.84h-.24V59.77h.2l0,.22h0a.55.55,0,0,1,.21-.19.72.72,0,0,1,.29-.06.63.63,0,0,1,.44.14.61.61,0,0,1,.14.44v1Z"/><path class="cls-5" d="M63.8,61.39a.64.64,0,0,1-.53-.22.85.85,0,0,1-.19-.6.88.88,0,0,1,.19-.61.68.68,0,0,1,.55-.22l.23,0,.18.06-.08.21L64,60l-.17,0c-.32,0-.48.21-.48.62a.78.78,0,0,0,.11.45.41.41,0,0,0,.36.16,1,1,0,0,0,.4-.09v.21A.79.79,0,0,1,63.8,61.39Z"/><path class="cls-5" d="M64.56,59.34c0-.06,0-.1,0-.12a.14.14,0,0,1,.2,0s0,.06,0,.12a.16.16,0,0,1,0,.12.14.14,0,0,1-.2,0A.16.16,0,0,1,64.56,59.34Zm.26,2h-.24V59.77h.24Z"/><path class="cls-5" d="M66.31,61.36l0-.23h0a.61.61,0,0,1-.24.2.65.65,0,0,1-.29.06.53.53,0,0,1-.37-.12.47.47,0,0,1-.14-.35c0-.32.26-.49.77-.51h.27v-.1a.38.38,0,0,0-.08-.28.33.33,0,0,0-.26-.09,1.08,1.08,0,0,0-.45.12l-.07-.18a1,1,0,0,1,.26-.1.86.86,0,0,1,.28,0,.62.62,0,0,1,.42.13.52.52,0,0,1,.14.4v1.09Zm-.55-.17a.52.52,0,0,0,.36-.12.5.5,0,0,0,.13-.35v-.14H66a.75.75,0,0,0-.42.09.27.27,0,0,0-.13.24.25.25,0,0,0,.08.2A.32.32,0,0,0,65.76,61.19Z"/><path class="cls-5" d="M68.84,61.15h0a.56.56,0,0,1-.5.24.57.57,0,0,1-.48-.22.89.89,0,0,1-.17-.6.92.92,0,0,1,.17-.61.58.58,0,0,1,.48-.22.6.6,0,0,1,.5.23h0V59.1h.24v2.26h-.19Zm-.49,0a.43.43,0,0,0,.36-.14.63.63,0,0,0,.11-.43v0a.74.74,0,0,0-.11-.48.41.41,0,0,0-.36-.15.36.36,0,0,0-.32.17.76.76,0,0,0-.12.46A.74.74,0,0,0,68,61,.38.38,0,0,0,68.35,61.19Z"/><path class="cls-5" d="M70.25,61.39a.7.7,0,0,1-.56-.22.8.8,0,0,1-.2-.59.94.94,0,0,1,.18-.61.65.65,0,0,1,.51-.23.63.63,0,0,1,.48.2.77.77,0,0,1,.17.52v.15h-1.1a.64.64,0,0,0,.15.42.47.47,0,0,0,.37.15,1.34,1.34,0,0,0,.51-.11v.21a.75.75,0,0,1-.24.08A1.12,1.12,0,0,1,70.25,61.39Zm-.07-1.45a.39.39,0,0,0-.31.13.56.56,0,0,0-.13.34h.83a.52.52,0,0,0-.1-.35A.36.36,0,0,0,70.18,59.94Z"/><path class="cls-5" d="M73.09,61.15h0a.57.57,0,0,1-.5.24.55.55,0,0,1-.48-.22.9.9,0,0,1-.18-.6A.92.92,0,0,1,72.1,60a.55.55,0,0,1,.48-.22.6.6,0,0,1,.5.23h0V59.1h.24v2.26h-.19Zm-.48,0a.43.43,0,0,0,.36-.14.69.69,0,0,0,.11-.43v0a.8.8,0,0,0-.11-.48.43.43,0,0,0-.36-.15.39.39,0,0,0-.33.17.84.84,0,0,0-.11.46.82.82,0,0,0,.11.46A.41.41,0,0,0,72.61,61.19Z"/><path class="cls-5" d="M74.81,61.36l0-.23h0a.61.61,0,0,1-.24.2.62.62,0,0,1-.29.06.53.53,0,0,1-.37-.12.47.47,0,0,1-.14-.35c0-.32.26-.49.77-.51h.27v-.1a.38.38,0,0,0-.08-.28.33.33,0,0,0-.26-.09,1,1,0,0,0-.44.12l-.08-.18a1,1,0,0,1,.26-.1.9.9,0,0,1,.28,0,.62.62,0,0,1,.42.13.52.52,0,0,1,.14.4v1.09Zm-.54-.17a.5.5,0,0,0,.35-.12.5.5,0,0,0,.13-.35v-.14h-.24a.75.75,0,0,0-.42.09.26.26,0,0,0-.12.24.24.24,0,0,0,.07.2A.33.33,0,0,0,74.27,61.19Z"/><path class="cls-5" d="M76,61.19h.12l.09,0v.18a.23.23,0,0,1-.11,0H76c-.31,0-.46-.16-.46-.49V60h-.23v-.12l.23-.1.1-.34h.14v.37h.46V60h-.46v.93a.29.29,0,0,0,.07.22A.24.24,0,0,0,76,61.19Z"/><path class="cls-5" d="M77.9,60.56a.89.89,0,0,1-.19.61.71.71,0,0,1-.54.22.77.77,0,0,1-.38-.1.67.67,0,0,1-.26-.29,1,1,0,0,1-.09-.44.85.85,0,0,1,.2-.6.67.67,0,0,1,.54-.22.67.67,0,0,1,.53.22A.88.88,0,0,1,77.9,60.56Zm-1.21,0a.78.78,0,0,0,.12.47.45.45,0,0,0,.36.16.44.44,0,0,0,.36-.16.78.78,0,0,0,.12-.47.76.76,0,0,0-.12-.46.48.48,0,0,0-.72,0A.74.74,0,0,0,76.69,60.56Z"/><path class="cls-5" d="M79.35,60.92a.41.41,0,0,1-.16.35.82.82,0,0,1-.47.12,1.09,1.09,0,0,1-.49-.1v-.23a1.73,1.73,0,0,0,.24.1l.26,0a.6.6,0,0,0,.29-.06.21.21,0,0,0,.1-.18.19.19,0,0,0-.08-.16,1.15,1.15,0,0,0-.32-.16,1.58,1.58,0,0,1-.31-.14.47.47,0,0,1-.14-.14.41.41,0,0,1,0-.19.38.38,0,0,1,.16-.31.79.79,0,0,1,.44-.11,1.48,1.48,0,0,1,.5.1l-.09.2a1.06,1.06,0,0,0-.43-.1.45.45,0,0,0-.26.06.15.15,0,0,0-.09.14.14.14,0,0,0,0,.11.3.3,0,0,0,.1.09l.28.12a.93.93,0,0,1,.38.2A.35.35,0,0,1,79.35,60.92Z"/><path class="cls-5" d="M81.49,61.36l0-.23h0a.61.61,0,0,1-.24.2.6.6,0,0,1-.29.06.53.53,0,0,1-.37-.12.47.47,0,0,1-.14-.35c0-.32.26-.49.77-.51h.27v-.1a.38.38,0,0,0-.08-.28.32.32,0,0,0-.25-.09,1,1,0,0,0-.45.12l-.08-.18a1.17,1.17,0,0,1,.26-.1.9.9,0,0,1,.28,0,.62.62,0,0,1,.42.13.52.52,0,0,1,.14.4v1.09ZM81,61.19a.5.5,0,0,0,.35-.12.46.46,0,0,0,.13-.35v-.14h-.24a.77.77,0,0,0-.42.09.26.26,0,0,0-.12.24.22.22,0,0,0,.08.2A.29.29,0,0,0,81,61.19Z"/><path class="cls-5" d="M83.25,61.36v-1a.4.4,0,0,0-.09-.29.35.35,0,0,0-.27-.1.47.47,0,0,0-.37.14.66.66,0,0,0-.11.44v.84h-.24V59.77h.19l0,.22h0a.55.55,0,0,1,.21-.19.73.73,0,0,1,.3-.06.62.62,0,0,1,.43.14.61.61,0,0,1,.14.44v1Z"/><path class="cls-5" d="M84.5,61.19h.12l.1,0v.18l-.12,0h-.13c-.31,0-.46-.16-.46-.49V60h-.23v-.12l.23-.1.1-.34h.14v.37h.46V60h-.46v.93a.34.34,0,0,0,.06.22A.26.26,0,0,0,84.5,61.19Z"/><path class="cls-5" d="M85,59.34c0-.06,0-.1,0-.12a.12.12,0,0,1,.1,0,.13.13,0,0,1,.1,0s0,.06,0,.12a.16.16,0,0,1,0,.12.13.13,0,0,1-.1,0,.12.12,0,0,1-.1,0A.16.16,0,0,1,85,59.34Zm.26,2H85V59.77h.24Z"/><path class="cls-5" d="M86.42,61.39a.64.64,0,0,1-.53-.22.85.85,0,0,1-.19-.6.88.88,0,0,1,.19-.61.68.68,0,0,1,.55-.22l.23,0,.18.06-.08.21L86.6,60l-.17,0c-.32,0-.48.21-.48.62a.71.71,0,0,0,.12.45.39.39,0,0,0,.35.16,1,1,0,0,0,.4-.09v.21A.79.79,0,0,1,86.42,61.39Z"/><path class="cls-5" d="M88.57,60.56a.89.89,0,0,1-.19.61.71.71,0,0,1-.54.22.77.77,0,0,1-.38-.1A.67.67,0,0,1,87.2,61a1,1,0,0,1-.09-.44.85.85,0,0,1,.2-.6.67.67,0,0,1,.54-.22.67.67,0,0,1,.53.22A.88.88,0,0,1,88.57,60.56Zm-1.21,0a.78.78,0,0,0,.12.47.45.45,0,0,0,.36.16A.44.44,0,0,0,88.2,61a.78.78,0,0,0,.12-.47.76.76,0,0,0-.12-.46.48.48,0,0,0-.72,0A.74.74,0,0,0,87.36,60.56Z"/><path class="cls-5" d="M89.72,59.74l.19,0,0,.22-.18,0a.41.41,0,0,0-.33.16.56.56,0,0,0-.13.39v.85H89V59.77h.2l0,.29h0a.73.73,0,0,1,.22-.24A.5.5,0,0,1,89.72,59.74Z"/><path class="cls-5" d="M90.93,59.74l.19,0,0,.22-.18,0a.44.44,0,0,0-.33.16.56.56,0,0,0-.13.39v.85h-.24V59.77h.2l0,.29h0a.73.73,0,0,1,.22-.24A.5.5,0,0,1,90.93,59.74Z"/><path class="cls-5" d="M91.65,59.77v1a.4.4,0,0,0,.08.29.4.4,0,0,0,.28.1.47.47,0,0,0,.37-.14.74.74,0,0,0,.11-.45v-.83h.24v1.59h-.2l0-.21h0a.63.63,0,0,1-.21.18.73.73,0,0,1-.3.06.6.6,0,0,1-.43-.14.57.57,0,0,1-.15-.44v-1Z"/><path class="cls-5" d="M94,61.39a.64.64,0,0,1-.28-.06.55.55,0,0,1-.22-.18h0a2.53,2.53,0,0,1,0,.27v.65h-.24v-2.3h.2l0,.22h0a.56.56,0,0,1,.22-.19.64.64,0,0,1,.28-.06.57.57,0,0,1,.49.22,1,1,0,0,1,.17.6,1,1,0,0,1-.17.61A.59.59,0,0,1,94,61.39Zm0-1.45a.44.44,0,0,0-.36.14.77.77,0,0,0-.11.43v.05a.8.8,0,0,0,.11.48.43.43,0,0,0,.36.15.39.39,0,0,0,.33-.17.87.87,0,0,0,.11-.46.84.84,0,0,0-.11-.46A.41.41,0,0,0,94,59.94Z"/><path class="cls-5" d="M95.7,61.39a.67.67,0,0,1-.54-.22.9.9,0,0,1-.19-.6.88.88,0,0,1,.2-.61.66.66,0,0,1,.54-.22l.23,0,.18.06-.07.21L95.87,60l-.16,0c-.33,0-.49.21-.49.62a.71.71,0,0,0,.12.45.41.41,0,0,0,.35.16,1,1,0,0,0,.41-.09v.21A.82.82,0,0,1,95.7,61.39Z"/><path class="cls-5" d="M96.46,59.34c0-.06,0-.1,0-.12a.12.12,0,0,1,.1,0,.13.13,0,0,1,.1,0s0,.06,0,.12a.16.16,0,0,1,0,.12.13.13,0,0,1-.1,0,.12.12,0,0,1-.1,0A.16.16,0,0,1,96.46,59.34Zm.26,2h-.24V59.77h.24Z"/><path class="cls-5" d="M98.6,60.56a.9.9,0,0,1-.2.61.71.71,0,0,1-.54.22.8.8,0,0,1-.38-.1.65.65,0,0,1-.25-.29,1,1,0,0,1-.09-.44.85.85,0,0,1,.19-.6.67.67,0,0,1,.54-.22.67.67,0,0,1,.53.22A.89.89,0,0,1,98.6,60.56Zm-1.21,0a.78.78,0,0,0,.12.47.48.48,0,0,0,.72,0,.78.78,0,0,0,.12-.47.76.76,0,0,0-.12-.46.46.46,0,0,0-.37-.16.43.43,0,0,0-.35.16A.74.74,0,0,0,97.39,60.56Zm.28-1,.15-.22a1.64,1.64,0,0,0,.12-.22h.3v0l-.19.24-.22.21h-.16Z"/><path class="cls-5" d="M100.11,61.36v-1A.4.4,0,0,0,100,60a.38.38,0,0,0-.28-.1.44.44,0,0,0-.36.14.66.66,0,0,0-.12.44v.84H99V59.77h.2l0,.22h0a.61.61,0,0,1,.2-.19.73.73,0,0,1,.3-.06.6.6,0,0,1,.43.14.57.57,0,0,1,.15.44v1Z"/></svg>