<svg id="Capa_1" data-name="Capa 1" xmlns="http://www.w3.org/2000/svg" viewBox="0 0 41.5 41.33"><defs><style>.cls-1{fill:#7bc082;}.cls-2{fill:#fff;}</style></defs><title>Mesa de trabajo 3 copia 4</title><circle class="cls-1" cx="20.85" cy="20.66" r="20.51"/><path class="cls-2" d="M14.82,7.19a5.24,5.24,0,1,0,5.23,5.23A5.24,5.24,0,0,0,14.82,7.19Zm1.68,8.12a3.08,3.08,0,0,1-1.91.51,4.69,4.69,0,0,1-1.85-.35V14.32a4,4,0,0,0,.82.31,3.41,3.41,0,0,0,.89.12,1.76,1.76,0,0,0,1-.23.85.85,0,0,0,.32-.73.67.67,0,0,0-.37-.64A2.69,2.69,0,0,0,14.21,13h-.48v-1h.49a2.31,2.31,0,0,0,1.09-.19.71.71,0,0,0,.34-.67c0-.49-.3-.73-.91-.73a2.1,2.1,0,0,0-.64.11,3,3,0,0,0-.72.36l-.63-.93a3.47,3.47,0,0,1,2.09-.63,2.68,2.68,0,0,1,1.57.4A1.3,1.3,0,0,1,17,10.76a1.47,1.47,0,0,1-.37,1,1.9,1.9,0,0,1-1,.58v0a2,2,0,0,1,1.18.47,1.33,1.33,0,0,1,.39,1A1.72,1.72,0,0,1,16.5,15.31Zm3.3,11.53c0,.3-.15.44-.45.44h-.61a.39.39,0,0,1-.44-.44.39.39,0,0,1,.44-.45h.61A.4.4,0,0,1,19.8,26.84Zm-.45-2.67h-.61a.44.44,0,1,1,0-.88h.63A.44.44,0,1,1,19.35,24.17Zm0-3h-.63a.45.45,0,1,1,0-.89h.63A.45.45,0,1,1,19.39,21.13Zm14.72,1.58a5.63,5.63,0,0,0-1.54-3,5.36,5.36,0,0,0-3-1.62v-1.9a1.44,1.44,0,0,0-1.4-1.52H26.88V13.14c0-.77-.51-1.15-1.27-1.15H20.66a11,11,0,0,1,.06,1.14h3.93a.9.9,0,0,1,1,.89v.64h-5.2a6.11,6.11,0,0,1-.65,1.14h7.56a1,1,0,0,1,1,1v1.26a2.72,2.72,0,0,0-.68,0A5.61,5.61,0,0,0,24,20.24h-3c-.64,0-.76.89,0,.89h2.41a5.36,5.36,0,0,0-.51,2.16h-1.9a.45.45,0,1,0,0,.89h1.9a7.22,7.22,0,0,0,.63,2.15H20.92a.51.51,0,1,0,0,1h3.17a5.19,5.19,0,0,0,4.19,2v.76c0,.51-.26.89-1,.89H18.51a.94.94,0,0,1-1-1V17.83a3.15,3.15,0,0,1-1.27.38V28.36h-.38a.93.93,0,0,1-1-1v-9.1a2.7,2.7,0,0,1-1.27-.14v10A1.63,1.63,0,0,0,15,29.63h1.27V31a1.43,1.43,0,0,0,1.55,1.27H28a1.55,1.55,0,0,0,1.55-1.53V29.25A5.63,5.63,0,0,0,33.16,27,5.31,5.31,0,0,0,34.11,22.71Zm-2,3.68a4.35,4.35,0,0,1-2.89,1.7,4.06,4.06,0,0,1-3.36-.83,4.5,4.5,0,0,1-1.74-2.89A4.17,4.17,0,0,1,25,21a4.53,4.53,0,0,1,2.89-1.74,4.16,4.16,0,0,1,3.36.89A4.4,4.4,0,0,1,32.9,23,4.07,4.07,0,0,1,32.07,26.39ZM21,17.32H24.6a.45.45,0,1,1,0,.89H21C20.28,18.21,20.28,17.32,21,17.32Zm9.35,7.46a1.46,1.46,0,0,1-1.29,1.61V27h-.81v-.53a1.84,1.84,0,0,1-1.54-1.21L28,24.61a.71.71,0,0,0,.69.49c.19,0,.28-.07.28-.2s-.16-.27-.5-.41a3.68,3.68,0,0,1-1-.6,1.33,1.33,0,0,1-.51-1.09,1.42,1.42,0,0,1,1.38-1.54v-.41h.81v.41a1.81,1.81,0,0,1,1.25,1.17L29.18,23c-.16-.33-.35-.49-.57-.49s-.28.08-.28.24.17.27.52.41a3.85,3.85,0,0,1,1,.59A1.22,1.22,0,0,1,30.39,24.78Z"/></svg>